{
copyright = "Copyright (c) 2015, Cadson Demak (info@cadsondemak.com)";
customParameters = (
{
name = vendorID;
value = CDK;
},
{
name = description;
value = "Copyright (c) 2015, Cadson Demak (info@cadsondemak.com)";
},
{
name = license;

glyphs = (
{
glyphname = A;
lastChange = "2015-11-26 07:52:35 +0000";
layers = (
{
layerId = "DD5B64A7-4DAF-4BC4-A4CC-81A10E608EA1";
name = "Bold Italic";
paths = (
{
closed = 1;
nodes = (
"195 0 LINE",
"271 128 LINE",
"446 128 LINE",
"469 0 LINE",
"684 0 LINE",
"572 644 LINE",
"347 644 LINE",
"-36 0 LINE"
);
},
{
closed = 1;
nodes = (
"422 434 LINE",
"450 278 LINE",
"329 278 LINE"
);
}
);
width = 760;
}
);
leftKerningGroup = A;
note = A;
rightKerningGroup = A;
unicode = 0041;
},
{
glyphname = Aacute;
lastChange = "2015-11-26 07:52:34 +0000";
layers = (
{
layerId = "DD5B64A7-4DAF-4BC4-A4CC-81A10E608EA1";
name = "Bold Italic";
paths = (
{
closed = 1;
nodes = (
"195 0 LINE",
"271 128 LINE",
"446 128 LINE",
"469 0 LINE",
"684 0 LINE",
"572 644 LINE",
"347 644 LINE",
"-36 0 LINE"
);
},
{
closed = 1;
nodes = (
"422 434 LINE",
"450 278 LINE",
"329 278 LINE"
);
},
{
closed = 1;
nodes = (
"544 688 LINE",
"691 904 LINE",
"525 904 LINE",
"387 688 LINE"
);
}
);
width = 760;
}
);
leftKerningGroup = A;
note = Aacute;
rightKerningGroup = A;
unicode = 00C1;
},
{
glyphname = Abreve;
lastChange = "2015-11-26 07:52:34 +0000";
layers = (
{
layerId = "DD5B64A7-4DAF-4BC4-A4CC-81A10E608EA1";
name = "Bold Italic";
paths = (
{
closed = 1;
nodes = (
"195 0 LINE",
"271 128 LINE",
"446 128 LINE",
"469 0 LINE",
"684 0 LINE",
"572 644 LINE",
"347 644 LINE",
"-36 0 LINE"
);
},
{
closed = 1;
nodes = (
"422 434 LINE",
"450 278 LINE",
"329 278 LINE"
);
},
{
closed = 1;
nodes = (
"601 688 OFFCURVE",
"689 760 OFFCURVE",
"717 892 CURVE",
"573 892 LINE",
"563 845 OFFCURVE",
"546 806 OFFCURVE",
"488 806 CURVE SMOOTH",
"448 806 OFFCURVE",
"436 827 OFFCURVE",
"436 857 CURVE SMOOTH",
"436 868 OFFCURVE",
"437 879 OFFCURVE",
"440 892 CURVE",
"308 892 LINE",
"304 872 OFFCURVE",
"302 853 OFFCURVE",
"302 835 CURVE SMOOTH",
"302 740 OFFCURVE",
"365 688 OFFCURVE",
"468 688 CURVE SMOOTH"
);
}
);
width = 760;
}
);
leftKerningGroup = A;
note = Abreve;
rightKerningGroup = A;
unicode = 0102;
},
{
glyphname = Abreveacute;
lastChange = "2015-11-26 07:52:35 +0000";
layers = (
{
layerId = "DD5B64A7-4DAF-4BC4-A4CC-81A10E608EA1";
name = "Bold Italic";
paths = (
{
closed = 1;
nodes = (
"195 0 LINE",
"271 128 LINE",
"446 128 LINE",
"469 0 LINE",
"684 0 LINE",
"572 644 LINE",
"347 644 LINE",
"-36 0 LINE"
);
},
{
closed = 1;
nodes = (
"422 434 LINE",
"450 278 LINE",
"329 278 LINE"
);
},
{
closed = 1;
nodes = (
"590 688 OFFCURVE",
"672 743 OFFCURVE",
"698 868 CURVE",
"576 868 LINE",
"568 822 OFFCURVE",
"543 792 OFFCURVE",
"489 792 CURVE SMOOTH",
"448 792 OFFCURVE",
"431 807 OFFCURVE",
"431 838 CURVE SMOOTH",
"431 847 OFFCURVE",
"433 857 OFFCURVE",
"435 868 CURVE",
"318 868 LINE",
"315 851 OFFCURVE",
"313 836 OFFCURVE",
"313 822 CURVE SMOOTH",
"313 731 OFFCURVE",
"378 688 OFFCURVE",
"470 688 CURVE SMOOTH"
);
},
{
closed = 1;
nodes = (
"576 892 LINE",
"688 1040 LINE",
"547 1040 LINE",
"448 892 LINE"
);
}
);
width = 760;
}
);
leftKerningGroup = A;
note = Abreveacute;
rightKerningGroup = A;
unicode = 1EAE;
},
{
glyphname = Abrevedotbelow;
lastChange = "2015-11-26 07:52:35 +0000";
layers = (
{
layerId = "DD5B64A7-4DAF-4BC4-A4CC-81A10E608EA1";
name = "Bold Italic";
paths = (
{
closed = 1;
nodes = (
"195 0 LINE",
"271 128 LINE",
"446 128 LINE",
"469 0 LINE",
"684 0 LINE",
"572 644 LINE",
"347 644 LINE",
"-36 0 LINE"
);
},
{
closed = 1;
nodes = (
"358 -176 LINE",
"386 -46 LINE",
"243 -46 LINE",
"215 -176 LINE"
);
},
{
closed = 1;
nodes = (
"422 434 LINE",
"450 278 LINE",
"329 278 LINE"
);
},
{
closed = 1;
nodes = (
"602 688 OFFCURVE",
"690 760 OFFCURVE",
"718 892 CURVE",
"574 892 LINE",
"564 845 OFFCURVE",
"547 806 OFFCURVE",
"489 806 CURVE SMOOTH",
"449 806 OFFCURVE",
"437 827 OFFCURVE",
"437 857 CURVE SMOOTH",
"437 868 OFFCURVE",
"438 879 OFFCURVE",
"441 892 CURVE",
"309 892 LINE",
"305 872 OFFCURVE",
"303 853 OFFCURVE",
"303 835 CURVE SMOOTH",
"303 740 OFFCURVE",
"366 688 OFFCURVE",
"469 688 CURVE SMOOTH"
);
}
);
width = 760;
}
);
leftKerningGroup = A;
note = Abrevedotbelow;
rightKerningGroup = A;
unicode = 1EB6;
},
{
glyphname = Abrevegrave;
lastChange = "2015-11-26 07:52:35 +0000";
layers = (
{
layerId = "DD5B64A7-4DAF-4BC4-A4CC-81A10E608EA1";
name = "Bold Italic";
paths = (
{
closed = 1;
nodes = (
"195 0 LINE",
"271 128 LINE",
"446 128 LINE",
"469 0 LINE",
"684 0 LINE",
"572 644 LINE",
"347 644 LINE",
"-36 0 LINE"
);
},
{
closed = 1;
nodes = (
"422 434 LINE",
"450 278 LINE",
"329 278 LINE"
);
},
{
closed = 1;
nodes = (
"589 688 OFFCURVE",
"671 743 OFFCURVE",
"697 868 CURVE",
"575 868 LINE",
"567 822 OFFCURVE",
"542 792 OFFCURVE",
"488 792 CURVE SMOOTH",
"447 792 OFFCURVE",
"430 807 OFFCURVE",
"430 838 CURVE SMOOTH",
"430 847 OFFCURVE",
"432 857 OFFCURVE",
"434 868 CURVE",
"317 868 LINE",
"314 851 OFFCURVE",
"312 836 OFFCURVE",
"312 822 CURVE SMOOTH",
"312 731 OFFCURVE",
"377 688 OFFCURVE",
"469 688 CURVE SMOOTH"
);
},
{
closed = 1;
nodes = (
"577 892 LINE",
"542 1040 LINE",
"401 1040 LINE",
"449 892 LINE"
);
}
);
width = 760;
}
);
leftKerningGroup = A;
note = Abrevegrave;
rightKerningGroup = A;
unicode = 1EB0;
},
{
glyphname = Abrevehookabove;
lastChange = "2015-11-26 07:52:35 +0000";
layers = (
{
layerId = "DD5B64A7-4DAF-4BC4-A4CC-81A10E608EA1";
name = "Bold Italic";
paths = (
{
closed = 1;
nodes = (
"195 0 LINE",
"271 128 LINE",
"446 128 LINE",
"469 0 LINE",
"684 0 LINE",
"572 644 LINE",
"347 644 LINE",
"-36 0 LINE"
);
},
{
closed = 1;
nodes = (
"422 434 LINE",
"450 278 LINE",
"329 278 LINE"
);
},
{
closed = 1;
nodes = (
"589 688 OFFCURVE",
"671 743 OFFCURVE",
"697 868 CURVE",
"575 868 LINE",
"567 822 OFFCURVE",
"542 792 OFFCURVE",
"488 792 CURVE SMOOTH",
"447 792 OFFCURVE",
"430 807 OFFCURVE",
"430 838 CURVE SMOOTH",
"430 847 OFFCURVE",
"432 857 OFFCURVE",
"434 868 CURVE",
"317 868 LINE",
"314 851 OFFCURVE",
"312 836 OFFCURVE",
"312 822 CURVE SMOOTH",
"312 731 OFFCURVE",
"377 688 OFFCURVE",
"469 688 CURVE SMOOTH"
);
},
{
closed = 1;
nodes = (
"576 882 LINE",
"582 910 LINE",
"635 923 OFFCURVE",
"660 946 OFFCURVE",
"669 990 CURVE SMOOTH",
"670 995 OFFCURVE",
"671 1001 OFFCURVE",
"671 1006 CURVE SMOOTH",
"671 1046 OFFCURVE",
"636 1076 OFFCURVE",
"569 1076 CURVE SMOOTH",
"530 1076 OFFCURVE",
"488 1070 OFFCURVE",
"463 1063 CURVE",
"447 991 LINE",
"460 996 OFFCURVE",
"479 1001 OFFCURVE",
"496 1001 CURVE SMOOTH",
"522 1001 OFFCURVE",
"536 997 OFFCURVE",
"536 982 CURVE SMOOTH",
"536 960 OFFCURVE",
"514 945 OFFCURVE",
"456 943 CURVE",
"443 882 LINE"
);
}
);
width = 760;
}
);
leftKerningGroup = A;
note = Abrevehookabove;
rightKerningGroup = A;
unicode = 1EB2;
},
{
glyphname = Abrevetilde;
lastChange = "2015-11-26 07:52:35 +0000";
layers = (
{
layerId = "DD5B64A7-4DAF-4BC4-A4CC-81A10E608EA1";
name = "Bold Italic";
paths = (
{
closed = 1;
nodes = (
"195 0 LINE",
"271 128 LINE",
"446 128 LINE",
"469 0 LINE",
"684 0 LINE",
"572 644 LINE",
"347 644 LINE",
"-36 0 LINE"
);
},
{
closed = 1;
nodes = (
"422 434 LINE",
"450 278 LINE",
"329 278 LINE"
);
},
{
closed = 1;
nodes = (
"589 688 OFFCURVE",
"671 743 OFFCURVE",
"697 868 CURVE",
"575 868 LINE",
"567 822 OFFCURVE",
"542 792 OFFCURVE",
"488 792 CURVE SMOOTH",
"447 792 OFFCURVE",
"430 807 OFFCURVE",
"430 838 CURVE SMOOTH",
"430 847 OFFCURVE",
"432 857 OFFCURVE",
"434 868 CURVE",
"317 868 LINE",
"314 851 OFFCURVE",
"312 836 OFFCURVE",
"312 822 CURVE SMOOTH",
"312 731 OFFCURVE",
"377 688 OFFCURVE",
"469 688 CURVE SMOOTH"
);
},
{
closed = 1;
nodes = (
"645 889 OFFCURVE",
"682 904 OFFCURVE",
"698 921 CURVE",
"720 1027 LINE",
"700 1004 OFFCURVE",
"665 988 OFFCURVE",
"624 988 CURVE SMOOTH",
"564 988 OFFCURVE",
"521 1029 OFFCURVE",
"456 1029 CURVE SMOOTH",
"418 1029 OFFCURVE",
"379 1015 OFFCURVE",
"358 997 CURVE",
"335 892 LINE",
"363 916 OFFCURVE",
"397 930 OFFCURVE",
"438 930 CURVE SMOOTH",
"492 930 OFFCURVE",
"543 889 OFFCURVE",
"606 889 CURVE SMOOTH"
);
}
);
width = 760;
}
);
leftKerningGroup = A;
note = Abrevetilde;
rightKerningGroup = A;
unicode = 1EB4;
},
{
glyphname = Acaron;
lastChange = "2015-11-26 07:52:34 +0000";
layers = (
{
layerId = "DD5B64A7-4DAF-4BC4-A4CC-81A10E608EA1";
name = "Bold Italic";
paths = (
{
closed = 1;
nodes = (
"195 0 LINE",
"271 128 LINE",
"446 128 LINE",
"469 0 LINE",
"684 0 LINE",
"572 644 LINE",
"347 644 LINE",
"-36 0 LINE"
);
},
{
closed = 1;
nodes = (
"422 434 LINE",
"450 278 LINE",
"329 278 LINE"
);
},
{
closed = 1;
nodes = (
"532 688 LINE",
"741 896 LINE",
"583 896 LINE",
"484 788 LINE",
"434 896 LINE",
"285 896 LINE",
"406 688 LINE"
);
}
);
width = 760;
}
);
leftKerningGroup = A;
note = Acaron;
rightKerningGroup = A;
unicode = 01CD;
},
{
glyphname = Acircumflex;
lastChange = "2015-11-26 07:52:36 +0000";
layers = (
{
layerId = "DD5B64A7-4DAF-4BC4-A4CC-81A10E608EA1";
name = "Bold Italic";
paths = (
{
closed = 1;
nodes = (
"195 0 LINE",
"271 128 LINE",
"446 128 LINE",
"469 0 LINE",
"684 0 LINE",
"572 644 LINE",
"347 644 LINE",
"-36 0 LINE"
);
},
{
closed = 1;
nodes = (
"422 434 LINE",
"450 278 LINE",
"329 278 LINE"
);
},
{
closed = 1;
nodes = (
"403 688 LINE",
"498 796 LINE",
"551 688 LINE",
"697 688 LINE",
"576 896 LINE",
"449 896 LINE",
"241 688 LINE"
);
}
);
width = 760;
}
);
leftKerningGroup = A;
note = Acircumflex;
rightKerningGroup = A;
unicode = 00C2;
},
{
glyphname = Acircumflexacute;
lastChange = "2015-11-26 07:52:34 +0000";
layers = (
{
layerId = "DD5B64A7-4DAF-4BC4-A4CC-81A10E608EA1";
name = "Bold Italic";
paths = (
{
closed = 1;
nodes = (
"195 0 LINE",
"271 128 LINE",
"446 128 LINE",
"469 0 LINE",
"684 0 LINE",
"572 644 LINE",
"347 644 LINE",
"-36 0 LINE"
);
},
{
closed = 1;
nodes = (
"422 434 LINE",
"450 278 LINE",
"329 278 LINE"
);
},
{
closed = 1;
nodes = (
"414 688 LINE",
"487 765 LINE",
"530 688 LINE",
"693 688 LINE",
"578 848 LINE",
"422 848 LINE",
"238 688 LINE"
);
},
{
closed = 1;
nodes = (
"775 816 LINE",
"890 980 LINE",
"733 980 LINE",
"626 816 LINE"
);
}
);
width = 760;
}
);
leftKerningGroup = A;
note = Acircumflexacute;
rightKerningGroup = A;
unicode = 1EA4;
},
{
glyphname = Acircumflexdotbelow;
lastChange = "2015-11-26 07:52:34 +0000";
layers = (
{
layerId = "DD5B64A7-4DAF-4BC4-A4CC-81A10E608EA1";
name = "Bold Italic";
paths = (
{
closed = 1;
nodes = (
"198 0 LINE",
"274 128 LINE",
"449 128 LINE",
"472 0 LINE",
"687 0 LINE",
"575 644 LINE",
"350 644 LINE",
"-33 0 LINE"
);
},
{
closed = 1;
nodes = (
"361 -176 LINE",
"389 -46 LINE",
"246 -46 LINE",
"218 -176 LINE"
);
},
{
closed = 1;
nodes = (
"425 434 LINE",
"453 278 LINE",
"332 278 LINE"
);
},
{
closed = 1;
nodes = (
"407 688 LINE",
"502 796 LINE",
"555 688 LINE",
"701 688 LINE",
"580 896 LINE",
"453 896 LINE",
"245 688 LINE"
);
}
);
width = 763;
}
);
leftKerningGroup = A;
note = Acircumflexdotbelow;
rightKerningGroup = A;
unicode = 1EAC;
},
{
glyphname = Acircumflexgrave;
lastChange = "2015-11-26 07:52:35 +0000";
layers = (
{
layerId = "DD5B64A7-4DAF-4BC4-A4CC-81A10E608EA1";
name = "Bold Italic";
paths = (
{
closed = 1;
nodes = (
"195 0 LINE",
"271 128 LINE",
"446 128 LINE",
"469 0 LINE",
"684 0 LINE",
"572 644 LINE",
"347 644 LINE",
"-36 0 LINE"
);
},
{
closed = 1;
nodes = (
"422 434 LINE",
"450 278 LINE",
"329 278 LINE"
);
},
{
closed = 1;
nodes = (
"367 816 LINE",
"329 980 LINE",
"171 980 LINE",
"217 816 LINE"
);
},
{
closed = 1;
nodes = (
"417 688 LINE",
"492 765 LINE",
"534 688 LINE",
"700 688 LINE",
"585 848 LINE",
"428 848 LINE",
"244 688 LINE"
);
}
);
width = 760;
}
);
leftKerningGroup = A;
note = Acircumflexgrave;
rightKerningGroup = A;
unicode = 1EA6;
},
{
glyphname = Acircumflexhookabove;
lastChange = "2015-11-26 07:52:34 +0000";
layers = (
{
layerId = "DD5B64A7-4DAF-4BC4-A4CC-81A10E608EA1";
name = "Bold Italic";
paths = (
{
closed = 1;
nodes = (
"195 0 LINE",
"271 128 LINE",
"446 128 LINE",
"469 0 LINE",
"684 0 LINE",
"572 644 LINE",
"347 644 LINE",
"-36 0 LINE"
);
},
{
closed = 1;
nodes = (
"422 434 LINE",
"450 278 LINE",
"329 278 LINE"
);
},
{
closed = 1;
nodes = (
"416 688 LINE",
"490 765 LINE",
"533 688 LINE",
"696 688 LINE",
"581 848 LINE",
"424 848 LINE",
"240 688 LINE"
);
},
{
closed = 1;
nodes = (
"774 793 LINE",
"781 825 LINE",
"832 834 OFFCURVE",
"860 866 OFFCURVE",
"870 912 CURVE SMOOTH",
"871 918 OFFCURVE",
"872 924 OFFCURVE",
"872 930 CURVE SMOOTH",
"872 972 OFFCURVE",
"837 1001 OFFCURVE",
"765 1001 CURVE SMOOTH",
"720 1001 OFFCURVE",
"682 996 OFFCURVE",
"656 989 CURVE",
"638 907 LINE",
"653 911 OFFCURVE",
"672 915 OFFCURVE",
"689 915 CURVE SMOOTH",
"711 915 OFFCURVE",
"723 912 OFFCURVE",
"723 901 CURVE SMOOTH",
"723 884 OFFCURVE",
"710 871 OFFCURVE",
"650 870 CURVE",
"634 793 LINE"
);
}
);
width = 760;
}
);
leftKerningGroup = A;
note = Acircumflexhookabove;
rightKerningGroup = A;
unicode = 1EA8;
},
{
glyphname = Acircumflextilde;
lastChange = "2015-11-26 07:52:35 +0000";
layers = (
{
layerId = "DD5B64A7-4DAF-4BC4-A4CC-81A10E608EA1";
name = "Bold Italic";
paths = (
{
closed = 1;
nodes = (
"195 0 LINE",
"271 128 LINE",
"446 128 LINE",
"469 0 LINE",
"684 0 LINE",
"572 644 LINE",
"347 644 LINE",
"-36 0 LINE"
);
},
{
closed = 1;
nodes = (
"422 434 LINE",
"450 278 LINE",
"329 278 LINE"
);
},
{
closed = 1;
nodes = (
"413 688 LINE",
"487 765 LINE",
"530 688 LINE",
"698 688 LINE",
"583 848 LINE",
"426 848 LINE",
"242 688 LINE"
);
},
{
closed = 1;
nodes = (
"638 858 OFFCURVE",
"675 873 OFFCURVE",
"691 890 CURVE",
"713 996 LINE",
"692 973 OFFCURVE",
"658 957 OFFCURVE",
"617 957 CURVE SMOOTH",
"557 957 OFFCURVE",
"514 998 OFFCURVE",
"449 998 CURVE SMOOTH",
"411 998 OFFCURVE",
"373 984 OFFCURVE",
"351 966 CURVE",
"328 861 LINE",
"356 885 OFFCURVE",
"390 899 OFFCURVE",
"431 899 CURVE SMOOTH",
"485 899 OFFCURVE",
"536 858 OFFCURVE",
"599 858 CURVE SMOOTH"
);
}
);
width = 760;
}
);
leftKerningGroup = A;
note = Acircumflextilde;
rightKerningGroup = A;
unicode = 1EAA;
},
{
glyphname = Adieresis;
lastChange = "2015-11-26 07:52:35 +0000";
layers = (
{
layerId = "DD5B64A7-4DAF-4BC4-A4CC-81A10E608EA1";
name = "Bold Italic";
paths = (
{
closed = 1;
nodes = (
"195 0 LINE",
"271 128 LINE",
"446 128 LINE",
"469 0 LINE",
"684 0 LINE",
"572 644 LINE",
"347 644 LINE",
"-36 0 LINE"
);
},
{
closed = 1;
nodes = (
"422 434 LINE",
"450 278 LINE",
"329 278 LINE"
);
},
{
closed = 1;
nodes = (
"434 715 LINE",
"461 846 LINE",
"318 846 LINE",
"291 715 LINE"
);
},
{
closed = 1;
nodes = (
"659 715 LINE",
"686 846 LINE",
"543 846 LINE",
"516 715 LINE"
);
}
);
width = 760;
}
);
leftKerningGroup = A;
note = Adieresis;
rightKerningGroup = A;
unicode = 00C4;
},
{
glyphname = Adotbelow;
lastChange = "2015-11-26 07:52:36 +0000";
layers = (
{
layerId = "DD5B64A7-4DAF-4BC4-A4CC-81A10E608EA1";
name = "Bold Italic";
paths = (
{
closed = 1;
nodes = (
"195 0 LINE",
"271 128 LINE",
"446 128 LINE",
"469 0 LINE",
"684 0 LINE",
"572 644 LINE",
"347 644 LINE",
"-36 0 LINE"
);
},
{
closed = 1;
nodes = (
"358 -176 LINE",
"386 -46 LINE",
"243 -46 LINE",
"215 -176 LINE"
);
},
{
closed = 1;
nodes = (
"422 434 LINE",
"450 278 LINE",
"329 278 LINE"
);
}
);
width = 760;
}
);
note = Adotbelow;
unicode = 1EA0;
},
{
glyphname = Agrave;
lastChange = "2015-11-26 07:52:35 +0000";
layers = (
{
layerId = "DD5B64A7-4DAF-4BC4-A4CC-81A10E608EA1";
name = "Bold Italic";
paths = (
{
closed = 1;
nodes = (
"195 0 LINE",
"271 128 LINE",
"446 128 LINE",
"469 0 LINE",
"684 0 LINE",
"572 644 LINE",
"347 644 LINE",
"-36 0 LINE"
);
},
{
closed = 1;
nodes = (
"422 434 LINE",
"450 278 LINE",
"329 278 LINE"
);
},
{
closed = 1;
nodes = (
"546 688 LINE",
"500 904 LINE",
"333 904 LINE",
"388 688 LINE"
);
}
);
width = 760;
}
);
leftKerningGroup = A;
note = Agrave;
rightKerningGroup = A;
unicode = 00C0;
},
{
glyphname = Ahookabove;
lastChange = "2015-11-26 07:52:35 +0000";
layers = (
{
layerId = "DD5B64A7-4DAF-4BC4-A4CC-81A10E608EA1";
name = "Bold Italic";
paths = (
{
closed = 1;
nodes = (
"195 0 LINE",
"271 128 LINE",
"446 128 LINE",
"469 0 LINE",
"684 0 LINE",
"572 644 LINE",
"347 644 LINE",
"-36 0 LINE"
);
},
{
closed = 1;
nodes = (
"422 434 LINE",
"450 278 LINE",
"329 278 LINE"
);
},
{
closed = 1;
nodes = (
"551 688 LINE",
"559 726 LINE",
"619 743 OFFCURVE",
"651 769 OFFCURVE",
"664 828 CURVE SMOOTH",
"666 835 OFFCURVE",
"666 842 OFFCURVE",
"666 848 CURVE SMOOTH",
"666 898 OFFCURVE",
"623 932 OFFCURVE",
"540 932 CURVE SMOOTH",
"487 932 OFFCURVE",
"446 927 OFFCURVE",
"414 918 CURVE",
"396 832 LINE",
"413 837 OFFCURVE",
"436 841 OFFCURVE",
"456 841 CURVE SMOOTH",
"488 841 OFFCURVE",
"505 834 OFFCURVE",
"505 817 CURVE SMOOTH",
"505 791 OFFCURVE",
"483 773 OFFCURVE",
"408 769 CURVE",
"391 688 LINE"
);
}
);
width = 760;
}
);
leftKerningGroup = A;
note = Ahookabove;
rightKerningGroup = A;
unicode = 1EA2;
},
{
glyphname = Amacron;
lastChange = "2015-11-26 07:52:34 +0000";
layers = (
{
layerId = "DD5B64A7-4DAF-4BC4-A4CC-81A10E608EA1";
name = "Bold Italic";
paths = (
{
closed = 1;
nodes = (
"195 0 LINE",
"271 128 LINE",
"446 128 LINE",
"469 0 LINE",
"684 0 LINE",
"572 644 LINE",
"347 644 LINE",
"-36 0 LINE"
);
},
{
closed = 1;
nodes = (
"422 434 LINE",
"450 278 LINE",
"329 278 LINE"
);
},
{
closed = 1;
nodes = (
"640 699 LINE",
"667 825 LINE",
"329 825 LINE",
"302 699 LINE"
);
}
);
width = 760;
}
);
leftKerningGroup = A;
note = Amacron;
rightKerningGroup = A;
unicode = 0100;
},
{
glyphname = Aogonek;
lastChange = "2015-11-26 07:52:35 +0000";
layers = (
{
layerId = "DD5B64A7-4DAF-4BC4-A4CC-81A10E608EA1";
name = "Bold Italic";
paths = (
{
closed = 1;
nodes = (
"546 -220 OFFCURVE",
"591 -211 OFFCURVE",
"613 -203 CURVE",
"634 -107 LINE",
"620 -114 OFFCURVE",
"598 -118 OFFCURVE",
"581 -118 CURVE SMOOTH",
"557 -118 OFFCURVE",
"544 -111 OFFCURVE",
"544 -93 CURVE SMOOTH",
"544 -90 OFFCURVE",
"544 -87 OFFCURVE",
"545 -83 CURVE SMOOTH",
"552 -51 OFFCURVE",
"578 -24 OFFCURVE",
"615 0 CURVE",
"684 0 LINE",
"572 644 LINE",
"347 644 LINE",
"-36 0 LINE",
"195 0 LINE",
"271 128 LINE",
"446 128 LINE",
"469 0 LINE",
"428 -30 OFFCURVE",
"378 -80 OFFCURVE",
"378 -143 CURVE SMOOTH",
"378 -196 OFFCURVE",
"427 -220 OFFCURVE",
"500 -220 CURVE SMOOTH"
);
},
{
closed = 1;
nodes = (
"422 434 LINE",
"450 278 LINE",
"329 278 LINE"
);
}
);
width = 760;
}
);
leftKerningGroup = A;
note = Aogonek;
rightKerningGroup = A;
unicode = 0104;
},
{
glyphname = Aring;
lastChange = "2015-11-26 07:52:35 +0000";
layers = (
{
layerId = "DD5B64A7-4DAF-4BC4-A4CC-81A10E608EA1";
name = "Bold Italic";
paths = (
{
closed = 1;
nodes = (
"195 0 LINE",
"271 128 LINE",
"446 128 LINE",
"469 0 LINE",
"684 0 LINE",
"573 634 LINE",
"599 658 OFFCURVE",
"615 690 OFFCURVE",
"623 726 CURVE SMOOTH",
"625 737 OFFCURVE",
"627 748 OFFCURVE",
"627 759 CURVE SMOOTH",
"627 820 OFFCURVE",
"585 864 OFFCURVE",
"506 864 CURVE SMOOTH",
"406 864 OFFCURVE",
"348 804 OFFCURVE",
"331 726 CURVE SMOOTH",
"329 715 OFFCURVE",
"328 705 OFFCURVE",
"328 695 CURVE SMOOTH",
"328 673 OFFCURVE",
"333 653 OFFCURVE",
"343 637 CURVE",
"-36 0 LINE"
);
},
{
closed = 1;
nodes = (
"422 434 LINE",
"450 278 LINE",
"329 278 LINE"
);
},
{
closed = 1;
nodes = (
"432 674 OFFCURVE",
"419 690 OFFCURVE",
"419 712 CURVE SMOOTH",
"419 745 OFFCURVE",
"446 779 OFFCURVE",
"488 779 CURVE SMOOTH",
"521 779 OFFCURVE",
"533 763 OFFCURVE",
"533 741 CURVE SMOOTH",
"533 708 OFFCURVE",
"509 674 OFFCURVE",
"465 674 CURVE SMOOTH"
);
}
);
width = 760;
}
);
leftKerningGroup = A;
note = Aring;
rightKerningGroup = A;
unicode = 00C5;
},
{
glyphname = Aringacute;
lastChange = "2015-11-26 07:52:34 +0000";
layers = (
{
layerId = "DD5B64A7-4DAF-4BC4-A4CC-81A10E608EA1";
name = "Bold Italic";
paths = (
{
closed = 1;
nodes = (
"195 0 LINE",
"271 128 LINE",
"446 128 LINE",
"469 0 LINE",
"684 0 LINE",
"573 634 LINE",
"599 658 OFFCURVE",
"615 690 OFFCURVE",
"623 726 CURVE SMOOTH",
"625 737 OFFCURVE",
"627 748 OFFCURVE",
"627 759 CURVE SMOOTH",
"627 820 OFFCURVE",
"585 864 OFFCURVE",
"506 864 CURVE SMOOTH",
"406 864 OFFCURVE",
"348 804 OFFCURVE",
"331 726 CURVE SMOOTH",
"329 715 OFFCURVE",
"328 705 OFFCURVE",
"328 695 CURVE SMOOTH",
"328 673 OFFCURVE",
"333 653 OFFCURVE",
"343 637 CURVE",
"-36 0 LINE"
);
},
{
closed = 1;
nodes = (
"422 434 LINE",
"450 278 LINE",
"329 278 LINE"
);
},
{
closed = 1;
nodes = (
"432 674 OFFCURVE",
"419 690 OFFCURVE",
"419 712 CURVE SMOOTH",
"419 745 OFFCURVE",
"446 779 OFFCURVE",
"488 779 CURVE SMOOTH",
"521 779 OFFCURVE",
"533 763 OFFCURVE",
"533 741 CURVE SMOOTH",
"533 708 OFFCURVE",
"509 674 OFFCURVE",
"465 674 CURVE SMOOTH"
);
},
{
closed = 1;
nodes = (
"599 893 LINE",
"746 1076 LINE",
"580 1076 LINE",
"442 893 LINE"
);
}
);
width = 760;
}
);
leftKerningGroup = A;
note = Aringacute;
rightKerningGroup = A;
unicode = 01FA;
},
{
glyphname = Atilde;
lastChange = "2015-11-26 07:52:35 +0000";
layers = (
{
layerId = "DD5B64A7-4DAF-4BC4-A4CC-81A10E608EA1";
name = "Bold Italic";
paths = (
{
closed = 1;
nodes = (
"195 0 LINE",
"271 128 LINE",
"446 128 LINE",
"469 0 LINE",
"684 0 LINE",
"572 644 LINE",
"347 644 LINE",
"-36 0 LINE"
);
},
{
closed = 1;
nodes = (
"422 434 LINE",
"450 278 LINE",
"329 278 LINE"
);
},
{
closed = 1;
nodes = (
"612 692 OFFCURVE",
"652 708 OFFCURVE",
"669 726 CURVE",
"697 856 LINE",
"676 833 OFFCURVE",
"638 815 OFFCURVE",
"594 815 CURVE SMOOTH",
"528 815 OFFCURVE",
"482 858 OFFCURVE",
"412 858 CURVE SMOOTH",
"372 858 OFFCURVE",
"330 842 OFFCURVE",
"307 824 CURVE",
"279 695 LINE",
"309 719 OFFCURVE",
"345 735 OFFCURVE",
"389 735 CURVE SMOOTH",
"447 735 OFFCURVE",
"502 692 OFFCURVE",
"571 692 CURVE SMOOTH"
);
}
);
width = 760;
}
);
leftKerningGroup = A;
note = Atilde;
rightKerningGroup = A;
unicode = 00C3;
},
{
glyphname = AE;
lastChange = "2015-11-26 07:52:35 +0000";
layers = (
{
layerId = "DD5B64A7-4DAF-4BC4-A4CC-81A10E608EA1";
name = "Bold Italic";
paths = (
{
closed = 1;
nodes = (
"189 0 LINE",
"266 129 LINE",
"374 129 LINE",
"347 0 LINE",
"790 0 LINE",
"823 159 LINE",
"588 159 LINE",
"606 240 LINE",
"804 240 LINE",
"838 403 LINE",
"640 403 LINE",
"658 485 LINE",
"893 485 LINE",
"926 644 LINE",
"347 644 LINE",
"-36 0 LINE"
);
},
{
closed = 1;
nodes = (
"444 485 LINE",
"450 485 LINE",
"407 284 LINE",
"330 284 LINE"
);
}
);
width = 866;
}
);
leftKerningGroup = A;
note = AE;
rightKerningGroup = E;
unicode = 00C6;
},
{
glyphname = AEacute;
lastChange = "2015-11-26 07:52:36 +0000";
layers = (
{
layerId = "DD5B64A7-4DAF-4BC4-A4CC-81A10E608EA1";
name = "Bold Italic";
paths = (
{
closed = 1;
nodes = (
"189 0 LINE",
"266 129 LINE",
"374 129 LINE",
"347 0 LINE",
"790 0 LINE",
"823 159 LINE",
"588 159 LINE",
"606 240 LINE",
"804 240 LINE",
"838 403 LINE",
"640 403 LINE",
"658 485 LINE",
"893 485 LINE",
"926 644 LINE",
"347 644 LINE",
"-36 0 LINE"
);
},
{
closed = 1;
nodes = (
"444 485 LINE",
"450 485 LINE",
"407 284 LINE",
"330 284 LINE"
);
},
{
closed = 1;
nodes = (
"659 688 LINE",
"806 904 LINE",
"640 904 LINE",
"502 688 LINE"
);
}
);
width = 866;
}
);
leftKerningGroup = A;
note = AEacute;
rightKerningGroup = E;
unicode = 01FC;
},
{
glyphname = B;
lastChange = "2015-11-26 07:52:34 +0000";
layers = (
{
layerId = "DD5B64A7-4DAF-4BC4-A4CC-81A10E608EA1";
name = "Bold Italic";
paths = (
{
closed = 1;
nodes = (
"358 0 LINE SMOOTH",
"515 0 OFFCURVE",
"594 71 OFFCURVE",
"619 193 CURVE SMOOTH",
"622 207 OFFCURVE",
"623 220 OFFCURVE",
"623 232 CURVE SMOOTH",
"623 280 OFFCURVE",
"600 308 OFFCURVE",
"561 327 CURVE",
"605 353 OFFCURVE",
"641 398 OFFCURVE",
"654 464 CURVE SMOOTH",
"656 477 OFFCURVE",
"658 490 OFFCURVE",
"658 502 CURVE SMOOTH",
"658 587 OFFCURVE",
"597 644 OFFCURVE",
"488 644 CURVE SMOOTH",
"120 644 LINE",
"-16 0 LINE"
);
},
{
closed = 1;
nodes = (
"242 255 LINE",
"350 255 LINE SMOOTH",
"387 255 OFFCURVE",
"404 241 OFFCURVE",
"404 217 CURVE SMOOTH",
"404 213 OFFCURVE",
"403 208 OFFCURVE",
"402 203 CURVE SMOOTH",
"393 164 OFFCURVE",
"374 147 OFFCURVE",
"329 147 CURVE SMOOTH",
"219 147 LINE"
);
},
{
closed = 1;
nodes = (
"293 496 LINE",
"396 496 LINE SMOOTH",
"432 496 OFFCURVE",
"448 483 OFFCURVE",
"448 459 CURVE SMOOTH",
"448 454 OFFCURVE",
"447 449 OFFCURVE",
"446 444 CURVE SMOOTH",
"439 410 OFFCURVE",
"421 392 OFFCURVE",
"377 392 CURVE SMOOTH",
"271 392 LINE"
);
}
);
width = 654;
}
);
note = B;
unicode = 0042;
},
{
glyphname = C;
lastChange = "2015-11-26 07:52:31 +0000";
layers = (
{
layerId = "DD5B64A7-4DAF-4BC4-A4CC-81A10E608EA1";
name = "Bold Italic";
paths = (
{
closed = 1;
nodes = (
"414 -10 OFFCURVE",
"477 2 OFFCURVE",
"540 23 CURVE",
"580 211 LINE",
"514 184 OFFCURVE",
"452 172 OFFCURVE",
"387 172 CURVE SMOOTH",
"286 172 OFFCURVE",
"244 196 OFFCURVE",
"244 264 CURVE SMOOTH",
"244 280 OFFCURVE",
"247 299 OFFCURVE",
"251 320 CURVE SMOOTH",
"274 430 OFFCURVE",
"341 472 OFFCURVE",
"449 472 CURVE SMOOTH",
"525 472 OFFCURVE",
"572 460 OFFCURVE",
"625 432 CURVE",
"665 619 LINE",
"611 641 OFFCURVE",
"552 654 OFFCURVE",
"473 654 CURVE SMOOTH",
"209 654 OFFCURVE",
"78 538 OFFCURVE",
"32 320 CURVE SMOOTH",
"26 291 OFFCURVE",
"23 264 OFFCURVE",
"23 239 CURVE SMOOTH",
"23 77 OFFCURVE",
"147 -10 OFFCURVE",
"333 -10 CURVE SMOOTH"
);
}
);
width = 612;
}
);
leftKerningGroup = C;
note = C;
unicode = 0043;
},
{
glyphname = Cacute;
lastChange = "2015-11-26 07:52:35 +0000";
layers = (
{
layerId = "DD5B64A7-4DAF-4BC4-A4CC-81A10E608EA1";
name = "Bold Italic";
paths = (
{
closed = 1;
nodes = (
"414 -10 OFFCURVE",
"477 2 OFFCURVE",
"540 23 CURVE",
"580 211 LINE",
"514 184 OFFCURVE",
"452 172 OFFCURVE",
"387 172 CURVE SMOOTH",
"286 172 OFFCURVE",
"244 196 OFFCURVE",
"244 264 CURVE SMOOTH",
"244 280 OFFCURVE",
"247 299 OFFCURVE",
"251 320 CURVE SMOOTH",
"274 430 OFFCURVE",
"341 472 OFFCURVE",
"449 472 CURVE SMOOTH",
"525 472 OFFCURVE",
"572 460 OFFCURVE",
"625 432 CURVE",
"665 619 LINE",
"611 641 OFFCURVE",
"552 654 OFFCURVE",
"473 654 CURVE SMOOTH",
"209 654 OFFCURVE",
"78 538 OFFCURVE",
"32 320 CURVE SMOOTH",
"26 291 OFFCURVE",
"23 264 OFFCURVE",
"23 239 CURVE SMOOTH",
"23 77 OFFCURVE",
"147 -10 OFFCURVE",
"333 -10 CURVE SMOOTH"
);
},
{
closed = 1;
nodes = (
"540 688 LINE",
"687 904 LINE",
"521 904 LINE",
"383 688 LINE"
);
}
);
width = 612;
}
);
leftKerningGroup = C;
note = Cacute;
unicode = 0106;
},
{
glyphname = Ccaron;
lastChange = "2015-11-26 07:52:35 +0000";
layers = (
{
layerId = "DD5B64A7-4DAF-4BC4-A4CC-81A10E608EA1";
name = "Bold Italic";
paths = (
{
closed = 1;
nodes = (
"414 -10 OFFCURVE",
"477 2 OFFCURVE",
"540 23 CURVE",
"580 211 LINE",
"514 184 OFFCURVE",
"452 172 OFFCURVE",
"387 172 CURVE SMOOTH",
"286 172 OFFCURVE",
"244 196 OFFCURVE",
"244 264 CURVE SMOOTH",
"244 280 OFFCURVE",
"247 299 OFFCURVE",
"251 320 CURVE SMOOTH",
"274 430 OFFCURVE",
"341 472 OFFCURVE",
"449 472 CURVE SMOOTH",
"525 472 OFFCURVE",
"572 460 OFFCURVE",
"625 432 CURVE",
"665 619 LINE",
"611 641 OFFCURVE",
"552 654 OFFCURVE",
"473 654 CURVE SMOOTH",
"209 654 OFFCURVE",
"78 538 OFFCURVE",
"32 320 CURVE SMOOTH",
"26 291 OFFCURVE",
"23 264 OFFCURVE",
"23 239 CURVE SMOOTH",
"23 77 OFFCURVE",
"147 -10 OFFCURVE",
"333 -10 CURVE SMOOTH"
);
},
{
closed = 1;
nodes = (
"526 687 LINE",
"735 895 LINE",
"577 895 LINE",
"478 787 LINE",
"428 895 LINE",
"279 895 LINE",
"400 687 LINE"
);
}
);
width = 612;
}
);
leftKerningGroup = C;
note = Ccaron;
unicode = 010C;
},
{
glyphname = Ccedilla;
lastChange = "2015-11-26 07:52:31 +0000";
layers = (
{
layerId = "DD5B64A7-4DAF-4BC4-A4CC-81A10E608EA1";
name = "Bold Italic";
paths = (
{
closed = 1;
nodes = (
"372 -240 OFFCURVE",
"436 -200 OFFCURVE",
"450 -134 CURVE SMOOTH",
"452 -126 OFFCURVE",
"452 -119 OFFCURVE",
"452 -112 CURVE SMOOTH",
"452 -69 OFFCURVE",
"423 -39 OFFCURVE",
"360 -39 CURVE",
"378 -9 LINE",
"438 -5 OFFCURVE",
"489 6 OFFCURVE",
"540 23 CURVE",
"580 211 LINE",
"514 184 OFFCURVE",
"452 172 OFFCURVE",
"387 172 CURVE SMOOTH",
"286 172 OFFCURVE",
"244 196 OFFCURVE",
"244 264 CURVE SMOOTH",
"244 280 OFFCURVE",
"247 299 OFFCURVE",
"251 320 CURVE SMOOTH",
"274 430 OFFCURVE",
"341 472 OFFCURVE",
"449 472 CURVE SMOOTH",
"525 472 OFFCURVE",
"572 460 OFFCURVE",
"625 432 CURVE",
"665 619 LINE",
"611 641 OFFCURVE",
"552 654 OFFCURVE",
"473 654 CURVE SMOOTH",
"209 654 OFFCURVE",
"78 538 OFFCURVE",
"32 320 CURVE SMOOTH",
"26 291 OFFCURVE",
"23 264 OFFCURVE",
"23 239 CURVE SMOOTH",
"23 96 OFFCURVE",
"118 12 OFFCURVE",
"268 -6 CURVE",
"221 -101 LINE",
"290 -101 LINE SMOOTH",
"314 -101 OFFCURVE",
"330 -105 OFFCURVE",
"330 -122 CURVE SMOOTH",
"330 -152 OFFCURVE",
"304 -165 OFFCURVE",
"252 -165 CURVE SMOOTH",
"232 -165 OFFCURVE",
"212 -162 OFFCURVE",
"195 -157 CURVE",
"179 -232 LINE",
"193 -236 OFFCURVE",
"238 -240 OFFCURVE",
"262 -240 CURVE SMOOTH"
);
}
);
width = 612;
}
);
leftKerningGroup = C;
note = Ccedilla;
unicode = 00C7;
},
{
glyphname = Ccircumflex;
lastChange = "2015-11-26 07:52:35 +0000";
layers = (
{
layerId = "DD5B64A7-4DAF-4BC4-A4CC-81A10E608EA1";
name = "Bold Italic";
paths = (
{
closed = 1;
nodes = (
"414 -10 OFFCURVE",
"477 2 OFFCURVE",
"540 23 CURVE",
"580 211 LINE",
"514 184 OFFCURVE",
"452 172 OFFCURVE",
"387 172 CURVE SMOOTH",
"286 172 OFFCURVE",
"244 196 OFFCURVE",
"244 264 CURVE SMOOTH",
"244 280 OFFCURVE",
"247 299 OFFCURVE",
"251 320 CURVE SMOOTH",
"274 430 OFFCURVE",
"341 472 OFFCURVE",
"449 472 CURVE SMOOTH",
"525 472 OFFCURVE",
"572 460 OFFCURVE",
"625 432 CURVE",
"665 619 LINE",
"611 641 OFFCURVE",
"552 654 OFFCURVE",
"473 654 CURVE SMOOTH",
"209 654 OFFCURVE",
"78 538 OFFCURVE",
"32 320 CURVE SMOOTH",
"26 291 OFFCURVE",
"23 264 OFFCURVE",
"23 239 CURVE SMOOTH",
"23 77 OFFCURVE",
"147 -10 OFFCURVE",
"333 -10 CURVE SMOOTH"
);
},
{
closed = 1;
nodes = (
"370 687 LINE",
"465 795 LINE",
"518 687 LINE",
"664 687 LINE",
"543 895 LINE",
"416 895 LINE",
"208 687 LINE"
);
}
);
width = 612;
}
);
leftKerningGroup = C;
note = Ccircumflex;
unicode = 0108;
},
{
glyphname = Cdotaccent;
lastChange = "2015-11-26 07:52:34 +0000";
layers = (
{
layerId = "DD5B64A7-4DAF-4BC4-A4CC-81A10E608EA1";
name = "Bold Italic";
paths = (
{
closed = 1;
nodes = (
"414 -10 OFFCURVE",
"477 2 OFFCURVE",
"540 23 CURVE",
"580 211 LINE",
"514 184 OFFCURVE",
"452 172 OFFCURVE",
"387 172 CURVE SMOOTH",
"286 172 OFFCURVE",
"244 196 OFFCURVE",
"244 264 CURVE SMOOTH",
"244 280 OFFCURVE",
"247 299 OFFCURVE",
"251 320 CURVE SMOOTH",
"274 430 OFFCURVE",
"341 472 OFFCURVE",
"449 472 CURVE SMOOTH",
"525 472 OFFCURVE",
"572 460 OFFCURVE",
"625 432 CURVE",
"665 619 LINE",
"611 641 OFFCURVE",
"552 654 OFFCURVE",
"473 654 CURVE SMOOTH",
"209 654 OFFCURVE",
"78 538 OFFCURVE",
"32 320 CURVE SMOOTH",
"26 291 OFFCURVE",
"23 264 OFFCURVE",
"23 239 CURVE SMOOTH",
"23 77 OFFCURVE",
"147 -10 OFFCURVE",
"333 -10 CURVE SMOOTH"
);
},
{
closed = 1;
nodes = (
"531 716 LINE",
"558 847 LINE",
"415 847 LINE",
"388 716 LINE"
);
}
);
width = 612;
}
);
leftKerningGroup = C;
note = Cdotaccent;
unicode = 010A;
},
{
glyphname = D;
lastChange = "2015-11-26 07:52:35 +0000";
layers = (
{
layerId = "DD5B64A7-4DAF-4BC4-A4CC-81A10E608EA1";
name = "Bold Italic";
paths = (
{
closed = 1;
nodes = (
"291 0 LINE SMOOTH",
"503 0 OFFCURVE",
"628 94 OFFCURVE",
"671 318 CURVE SMOOTH",
"677 349 OFFCURVE",
"680 378 OFFCURVE",
"680 405 CURVE SMOOTH",
"680 565 OFFCURVE",
"576 644 OFFCURVE",
"417 644 CURVE SMOOTH",
"120 644 LINE",
"-16 0 LINE"
);
},
{
closed = 1;
nodes = (
"299 473 LINE",
"355 473 LINE SMOOTH",
"425 473 OFFCURVE",
"461 456 OFFCURVE",
"461 390 CURVE SMOOTH",
"461 370 OFFCURVE",
"458 347 OFFCURVE",
"452 318 CURVE SMOOTH",
"425 190 OFFCURVE",
"381 164 OFFCURVE",
"289 164 CURVE SMOOTH",
"233 164 LINE"
);
}
);
width = 680;
}
);
note = D;
rightKerningGroup = D;
unicode = 0044;
},
{
glyphname = Eth;
lastChange = "2015-11-26 07:52:34 +0000";
layers = (
{
layerId = "DD5B64A7-4DAF-4BC4-A4CC-81A10E608EA1";
name = "Bold Italic";
paths = (
{
closed = 1;
nodes = (
"332 0 LINE SMOOTH",
"544 0 OFFCURVE",
"669 94 OFFCURVE",
"712 318 CURVE SMOOTH",
"718 349 OFFCURVE",
"721 378 OFFCURVE",
"721 405 CURVE SMOOTH",
"721 565 OFFCURVE",
"617 644 OFFCURVE",
"458 644 CURVE SMOOTH",
"161 644 LINE",
"106 386 LINE",
"46 386 LINE",
"15 244 LINE",
"76 244 LINE",
"25 0 LINE"
);
},
{
closed = 1;
nodes = (
"291 244 LINE",
"393 244 LINE",
"424 386 LINE",
"321 386 LINE",
"340 473 LINE",
"396 473 LINE SMOOTH",
"466 473 OFFCURVE",
"502 456 OFFCURVE",
"502 390 CURVE SMOOTH",
"502 370 OFFCURVE",
"499 347 OFFCURVE",
"493 318 CURVE SMOOTH",
"466 190 OFFCURVE",
"422 164 OFFCURVE",
"330 164 CURVE SMOOTH",
"274 164 LINE"
);
}
);
width = 722;
}
);
note = Eth;
rightKerningGroup = D;
unicode = 00D0;
},
{
glyphname = Dcaron;
lastChange = "2015-11-26 07:52:35 +0000";
layers = (
{
layerId = "DD5B64A7-4DAF-4BC4-A4CC-81A10E608EA1";
name = "Bold Italic";
paths = (
{
closed = 1;
nodes = (
"291 0 LINE SMOOTH",
"503 0 OFFCURVE",
"628 94 OFFCURVE",
"671 318 CURVE SMOOTH",
"677 349 OFFCURVE",
"680 378 OFFCURVE",
"680 405 CURVE SMOOTH",
"680 565 OFFCURVE",
"576 644 OFFCURVE",
"417 644 CURVE SMOOTH",
"120 644 LINE",
"-16 0 LINE"
);
},
{
closed = 1;
nodes = (
"299 473 LINE",
"355 473 LINE SMOOTH",
"425 473 OFFCURVE",
"461 456 OFFCURVE",
"461 390 CURVE SMOOTH",
"461 370 OFFCURVE",
"458 347 OFFCURVE",
"452 318 CURVE SMOOTH",
"425 190 OFFCURVE",
"381 164 OFFCURVE",
"289 164 CURVE SMOOTH",
"233 164 LINE"
);
},
{
closed = 1;
nodes = (
"453 687 LINE",
"662 895 LINE",
"504 895 LINE",
"405 787 LINE",
"355 895 LINE",
"206 895 LINE",
"327 687 LINE"
);
}
);
width = 680;
}
);
note = Dcaron;
rightKerningGroup = D;
unicode = 010E;
},
{
glyphname = Dcroat;
lastChange = "2015-11-26 07:52:35 +0000";
layers = (
{
layerId = "DD5B64A7-4DAF-4BC4-A4CC-81A10E608EA1";
name = "Bold Italic";
paths = (
{
closed = 1;
nodes = (
"332 0 LINE SMOOTH",
"544 0 OFFCURVE",
"669 94 OFFCURVE",
"712 318 CURVE SMOOTH",
"718 349 OFFCURVE",
"721 378 OFFCURVE",
"721 405 CURVE SMOOTH",
"721 565 OFFCURVE",
"617 644 OFFCURVE",
"458 644 CURVE SMOOTH",
"161 644 LINE",
"106 386 LINE",
"46 386 LINE",
"15 244 LINE",
"76 244 LINE",
"25 0 LINE"
);
},
{
closed = 1;
nodes = (
"291 244 LINE",
"393 244 LINE",
"424 386 LINE",
"321 386 LINE",
"340 473 LINE",
"396 473 LINE SMOOTH",
"466 473 OFFCURVE",
"502 456 OFFCURVE",
"502 390 CURVE SMOOTH",
"502 370 OFFCURVE",
"499 347 OFFCURVE",
"493 318 CURVE SMOOTH",
"466 190 OFFCURVE",
"422 164 OFFCURVE",
"330 164 CURVE SMOOTH",
"274 164 LINE"
);
}
);
width = 722;
}
);
note = Dcroat;
rightKerningGroup = D;
unicode = 0110;
},
{
glyphname = Ddotbelow;
lastChange = "2015-11-26 07:52:34 +0000";
layers = (
{
layerId = "DD5B64A7-4DAF-4BC4-A4CC-81A10E608EA1";
name = "Bold Italic";
paths = (
{
closed = 1;
nodes = (
"291 0 LINE SMOOTH",
"503 0 OFFCURVE",
"628 94 OFFCURVE",
"671 318 CURVE SMOOTH",
"677 349 OFFCURVE",
"680 378 OFFCURVE",
"680 405 CURVE SMOOTH",
"680 565 OFFCURVE",
"576 644 OFFCURVE",
"417 644 CURVE SMOOTH",
"120 644 LINE",
"-16 0 LINE"
);
},
{
closed = 1;
nodes = (
"266 -205 LINE",
"294 -75 LINE",
"151 -75 LINE",
"123 -205 LINE"
);
},
{
closed = 1;
nodes = (
"299 473 LINE",
"355 473 LINE SMOOTH",
"425 473 OFFCURVE",
"461 456 OFFCURVE",
"461 390 CURVE SMOOTH",
"461 370 OFFCURVE",
"458 347 OFFCURVE",
"452 318 CURVE SMOOTH",
"425 190 OFFCURVE",
"381 164 OFFCURVE",
"289 164 CURVE SMOOTH",
"233 164 LINE"
);
}
);
width = 680;
}
);
note = Ddotbelow;
rightKerningGroup = D;
unicode = 1E0C;
},
{
glyphname = Dlinebelow;
lastChange = "2015-11-26 07:52:34 +0000";
layers = (
{
layerId = "DD5B64A7-4DAF-4BC4-A4CC-81A10E608EA1";
name = "Bold Italic";
paths = (
{
closed = 1;
nodes = (
"291 0 LINE SMOOTH",
"503 0 OFFCURVE",
"628 94 OFFCURVE",
"671 318 CURVE SMOOTH",
"677 349 OFFCURVE",
"680 378 OFFCURVE",
"680 405 CURVE SMOOTH",
"680 565 OFFCURVE",
"576 644 OFFCURVE",
"417 644 CURVE SMOOTH",
"120 644 LINE",
"-16 0 LINE"
);
},
{
closed = 1;
nodes = (
"371 -176 LINE",
"398 -50 LINE",
"60 -50 LINE",
"33 -176 LINE"
);
},
{
closed = 1;
nodes = (
"299 473 LINE",
"355 473 LINE SMOOTH",
"425 473 OFFCURVE",
"461 456 OFFCURVE",
"461 390 CURVE SMOOTH",
"461 370 OFFCURVE",
"458 347 OFFCURVE",
"452 318 CURVE SMOOTH",
"425 190 OFFCURVE",
"381 164 OFFCURVE",
"289 164 CURVE SMOOTH",
"233 164 LINE"
);
}
);
width = 680;
}
);
note = Dlinebelow;
rightKerningGroup = D;
unicode = 1E0E;
},
{
glyphname = E;
lastChange = "2015-11-26 07:52:31 +0000";
layers = (
{
layerId = "DD5B64A7-4DAF-4BC4-A4CC-81A10E608EA1";
name = "Bold Italic";
paths = (
{
closed = 1;
nodes = (
"485 0 LINE",
"518 159 LINE",
"232 159 LINE",
"250 240 LINE",
"499 240 LINE",
"533 403 LINE",
"284 403 LINE",
"302 485 LINE",
"588 485 LINE",
"621 644 LINE",
"120 644 LINE",
"-16 0 LINE"
);
}
);
width = 551;
}
);
note = E;
unicode = 0045;
},
{
glyphname = Eacute;
lastChange = "2015-11-26 07:52:34 +0000";
layers = (
{
layerId = "DD5B64A7-4DAF-4BC4-A4CC-81A10E608EA1";
name = "Bold Italic";
paths = (
{
closed = 1;
nodes = (
"485 0 LINE",
"518 159 LINE",
"232 159 LINE",
"250 240 LINE",
"499 240 LINE",
"533 403 LINE",
"284 403 LINE",
"302 485 LINE",
"588 485 LINE",
"621 644 LINE",
"120 644 LINE",
"-16 0 LINE"
);
},
{
closed = 1;
nodes = (
"436 688 LINE",
"583 904 LINE",
"417 904 LINE",
"279 688 LINE"
);
}
);
width = 551;
}
);
note = Eacute;
unicode = 00C9;
},
{
glyphname = Ebreve;
lastChange = "2015-11-26 07:52:35 +0000";
layers = (
{
layerId = "DD5B64A7-4DAF-4BC4-A4CC-81A10E608EA1";
name = "Bold Italic";
paths = (
{
closed = 1;
nodes = (
"485 0 LINE",
"518 159 LINE",
"232 159 LINE",
"250 240 LINE",
"499 240 LINE",
"533 403 LINE",
"284 403 LINE",
"302 485 LINE",
"588 485 LINE",
"621 644 LINE",
"120 644 LINE",
"-16 0 LINE"
);
},
{
closed = 1;
nodes = (
"515 688 OFFCURVE",
"603 760 OFFCURVE",
"631 892 CURVE",
"487 892 LINE",
"477 845 OFFCURVE",
"460 806 OFFCURVE",
"402 806 CURVE SMOOTH",
"362 806 OFFCURVE",
"350 827 OFFCURVE",
"350 857 CURVE SMOOTH",
"350 868 OFFCURVE",
"351 879 OFFCURVE",
"354 892 CURVE",
"222 892 LINE",
"218 872 OFFCURVE",
"216 853 OFFCURVE",
"216 835 CURVE SMOOTH",
"216 740 OFFCURVE",
"279 688 OFFCURVE",
"382 688 CURVE SMOOTH"
);
}
);
width = 556;
}
);
note = Ebreve;
unicode = 0114;
},
{
glyphname = Ecaron;
lastChange = "2015-11-26 07:52:35 +0000";
layers = (
{
layerId = "DD5B64A7-4DAF-4BC4-A4CC-81A10E608EA1";
name = "Bold Italic";
paths = (
{
closed = 1;
nodes = (
"485 0 LINE",
"518 159 LINE",
"232 159 LINE",
"250 240 LINE",
"499 240 LINE",
"533 403 LINE",
"284 403 LINE",
"302 485 LINE",
"588 485 LINE",
"621 644 LINE",
"120 644 LINE",
"-16 0 LINE"
);
},
{
closed = 1;
nodes = (
"448 687 LINE",
"657 895 LINE",
"499 895 LINE",
"400 787 LINE",
"350 895 LINE",
"201 895 LINE",
"322 687 LINE"
);
}
);
width = 557;
}
);
note = Ecaron;
unicode = 011A;
},
{
glyphname = Ecircumflex;
lastChange = "2015-11-26 07:52:35 +0000";
layers = (
{
layerId = "DD5B64A7-4DAF-4BC4-A4CC-81A10E608EA1";
name = "Bold Italic";
paths = (
{
closed = 1;
nodes = (
"486 0 LINE",
"519 159 LINE",
"233 159 LINE",
"251 240 LINE",
"500 240 LINE",
"534 403 LINE",
"285 403 LINE",
"303 485 LINE",
"589 485 LINE",
"622 644 LINE",
"121 644 LINE",
"-15 0 LINE"
);
},
{
closed = 1;
nodes = (
"316 688 LINE",
"411 796 LINE",
"464 688 LINE",
"610 688 LINE",
"489 896 LINE",
"362 896 LINE",
"154 688 LINE"
);
}
);
width = 557;
}
);
note = Ecircumflex;
unicode = 00CA;
},
{
glyphname = Ecircumflexacute;
lastChange = "2015-11-26 07:52:34 +0000";
layers = (
{
layerId = "DD5B64A7-4DAF-4BC4-A4CC-81A10E608EA1";
name = "Bold Italic";
paths = (
{
closed = 1;
nodes = (
"485 0 LINE",
"518 159 LINE",
"232 159 LINE",
"250 240 LINE",
"499 240 LINE",
"533 403 LINE",
"284 403 LINE",
"302 485 LINE",
"588 485 LINE",
"621 644 LINE",
"120 644 LINE",
"-16 0 LINE"
);
},
{
closed = 1;
nodes = (
"322 688 LINE",
"395 765 LINE",
"438 688 LINE",
"601 688 LINE",
"486 848 LINE",
"330 848 LINE",
"146 688 LINE"
);
},
{
closed = 1;
nodes = (
"683 816 LINE",
"798 980 LINE",
"641 980 LINE",
"534 816 LINE"
);
}
);
width = 551;
}
);
note = Ecircumflexacute;
unicode = 1EBE;
},
{
glyphname = Ecircumflexdotbelow;
lastChange = "2015-11-26 07:52:35 +0000";
layers = (
{
layerId = "DD5B64A7-4DAF-4BC4-A4CC-81A10E608EA1";
name = "Bold Italic";
paths = (
{
closed = 1;
nodes = (
"488 0 LINE",
"521 159 LINE",
"235 159 LINE",
"253 240 LINE",
"502 240 LINE",
"536 403 LINE",
"287 403 LINE",
"305 485 LINE",
"591 485 LINE",
"624 644 LINE",
"123 644 LINE",
"-13 0 LINE"
);
},
{
closed = 1;
nodes = (
"267 -176 LINE",
"295 -46 LINE",
"152 -46 LINE",
"124 -176 LINE"
);
},
{
closed = 1;
nodes = (
"312 688 LINE",
"407 796 LINE",
"460 688 LINE",
"606 688 LINE",
"485 896 LINE",
"358 896 LINE",
"150 688 LINE"
);
}
);
width = 564;
}
);
note = Ecircumflexdotbelow;
unicode = 1EC6;
},
{
glyphname = Ecircumflexgrave;
lastChange = "2015-11-26 07:52:34 +0000";
layers = (
{
layerId = "DD5B64A7-4DAF-4BC4-A4CC-81A10E608EA1";
name = "Bold Italic";
paths = (
{
closed = 1;
nodes = (
"485 0 LINE",
"518 159 LINE",
"232 159 LINE",
"250 240 LINE",
"499 240 LINE",
"533 403 LINE",
"284 403 LINE",
"302 485 LINE",
"588 485 LINE",
"621 644 LINE",
"120 644 LINE",
"-16 0 LINE"
);
},
{
closed = 1;
nodes = (
"274 816 LINE",
"236 980 LINE",
"78 980 LINE",
"124 816 LINE"
);
},
{
closed = 1;
nodes = (
"324 688 LINE",
"399 765 LINE",
"441 688 LINE",
"607 688 LINE",
"492 848 LINE",
"335 848 LINE",
"151 688 LINE"
);
}
);
width = 551;
}
);
note = Ecircumflexgrave;
unicode = 1EC0;
},
{
glyphname = Ecircumflexhookabove;
lastChange = "2015-11-26 07:52:35 +0000";
layers = (
{
layerId = "DD5B64A7-4DAF-4BC4-A4CC-81A10E608EA1";
name = "Bold Italic";
paths = (
{
closed = 1;
nodes = (
"485 0 LINE",
"518 159 LINE",
"232 159 LINE",
"250 240 LINE",
"499 240 LINE",
"533 403 LINE",
"284 403 LINE",
"302 485 LINE",
"588 485 LINE",
"621 644 LINE",
"120 644 LINE",
"-16 0 LINE"
);
},
{
closed = 1;
nodes = (
"321 688 LINE",
"395 765 LINE",
"438 688 LINE",
"601 688 LINE",
"486 848 LINE",
"329 848 LINE",
"145 688 LINE"
);
},
{
closed = 1;
nodes = (
"679 793 LINE",
"686 825 LINE",
"737 834 OFFCURVE",
"765 866 OFFCURVE",
"775 912 CURVE SMOOTH",
"776 918 OFFCURVE",
"777 924 OFFCURVE",
"777 930 CURVE SMOOTH",
"777 972 OFFCURVE",
"742 1001 OFFCURVE",
"670 1001 CURVE SMOOTH",
"625 1001 OFFCURVE",
"587 996 OFFCURVE",
"561 989 CURVE",
"543 907 LINE",
"558 911 OFFCURVE",
"577 915 OFFCURVE",
"594 915 CURVE SMOOTH",
"616 915 OFFCURVE",
"628 912 OFFCURVE",
"628 901 CURVE SMOOTH",
"628 884 OFFCURVE",
"615 871 OFFCURVE",
"555 870 CURVE",
"539 793 LINE"
);
}
);
width = 551;
}
);
note = Ecircumflexhookabove;
unicode = 1EC2;
},
{
glyphname = Ecircumflextilde;
lastChange = "2015-11-26 07:52:34 +0000";
layers = (
{
layerId = "DD5B64A7-4DAF-4BC4-A4CC-81A10E608EA1";
name = "Bold Italic";
paths = (
{
closed = 1;
nodes = (
"485 0 LINE",
"518 159 LINE",
"232 159 LINE",
"250 240 LINE",
"499 240 LINE",
"533 403 LINE",
"284 403 LINE",
"302 485 LINE",
"588 485 LINE",
"621 644 LINE",
"120 644 LINE",
"-16 0 LINE"
);
},
{
closed = 1;
nodes = (
"321 688 LINE",
"395 765 LINE",
"438 688 LINE",
"606 688 LINE",
"491 848 LINE",
"334 848 LINE",
"150 688 LINE"
);
},
{
closed = 1;
nodes = (
"546 858 OFFCURVE",
"583 873 OFFCURVE",
"599 890 CURVE",
"621 996 LINE",
"600 973 OFFCURVE",
"566 957 OFFCURVE",
"525 957 CURVE SMOOTH",
"465 957 OFFCURVE",
"422 998 OFFCURVE",
"357 998 CURVE SMOOTH",
"319 998 OFFCURVE",
"281 984 OFFCURVE",
"259 966 CURVE",
"236 861 LINE",
"264 885 OFFCURVE",
"298 899 OFFCURVE",
"339 899 CURVE SMOOTH",
"393 899 OFFCURVE",
"444 858 OFFCURVE",
"507 858 CURVE SMOOTH"
);
}
);
width = 556;
}
);
note = Ecircumflextilde;
unicode = 1EC4;
},
{
glyphname = Edieresis;
lastChange = "2015-11-26 07:52:35 +0000";
layers = (
{
layerId = "DD5B64A7-4DAF-4BC4-A4CC-81A10E608EA1";
name = "Bold Italic";
paths = (
{
closed = 1;
nodes = (
"485 0 LINE",
"518 159 LINE",
"232 159 LINE",
"250 240 LINE",
"499 240 LINE",
"533 403 LINE",
"284 403 LINE",
"302 485 LINE",
"588 485 LINE",
"621 644 LINE",
"120 644 LINE",
"-16 0 LINE"
);
},
{
closed = 1;
nodes = (
"350 716 LINE",
"377 847 LINE",
"234 847 LINE",
"207 716 LINE"
);
},
{
closed = 1;
nodes = (
"575 716 LINE",
"602 847 LINE",
"459 847 LINE",
"432 716 LINE"
);
}
);
width = 556;
}
);
note = Edieresis;
unicode = 00CB;
},
{
glyphname = Edotaccent;
lastChange = "2015-11-26 07:52:35 +0000";
layers = (
{
layerId = "DD5B64A7-4DAF-4BC4-A4CC-81A10E608EA1";
name = "Bold Italic";
paths = (
{
closed = 1;
nodes = (
"485 0 LINE",
"518 159 LINE",
"232 159 LINE",
"250 240 LINE",
"499 240 LINE",
"533 403 LINE",
"284 403 LINE",
"302 485 LINE",
"588 485 LINE",
"621 644 LINE",
"120 644 LINE",
"-16 0 LINE"
);
},
{
closed = 1;
nodes = (
"454 716 LINE",
"481 847 LINE",
"338 847 LINE",
"311 716 LINE"
);
}
);
width = 556;
}
);
note = Edotaccent;
unicode = 0116;
},
{
glyphname = Edotbelow;
lastChange = "2015-11-26 07:52:34 +0000";
layers = (
{
layerId = "DD5B64A7-4DAF-4BC4-A4CC-81A10E608EA1";
name = "Bold Italic";
paths = (
{
closed = 1;
nodes = (
"485 0 LINE",
"518 159 LINE",
"232 159 LINE",
"250 240 LINE",
"499 240 LINE",
"533 403 LINE",
"284 403 LINE",
"302 485 LINE",
"588 485 LINE",
"621 644 LINE",
"120 644 LINE",
"-16 0 LINE"
);
},
{
closed = 1;
nodes = (
"258 -176 LINE",
"286 -46 LINE",
"143 -46 LINE",
"115 -176 LINE"
);
}
);
width = 556;
}
);
note = Edotbelow;
unicode = 1EB8;
},
{
glyphname = Egrave;
lastChange = "2015-11-26 07:52:34 +0000";
layers = (
{
layerId = "DD5B64A7-4DAF-4BC4-A4CC-81A10E608EA1";
name = "Bold Italic";
paths = (
{
closed = 1;
nodes = (
"485 0 LINE",
"518 159 LINE",
"232 159 LINE",
"250 240 LINE",
"499 240 LINE",
"533 403 LINE",
"284 403 LINE",
"302 485 LINE",
"588 485 LINE",
"621 644 LINE",
"120 644 LINE",
"-16 0 LINE"
);
},
{
closed = 1;
nodes = (
"477 688 LINE",
"431 904 LINE",
"264 904 LINE",
"319 688 LINE"
);
}
);
width = 556;
}
);
note = Egrave;
unicode = 00C8;
},
{
glyphname = Ehookabove;
lastChange = "2015-11-26 07:52:34 +0000";
layers = (
{
layerId = "DD5B64A7-4DAF-4BC4-A4CC-81A10E608EA1";
name = "Bold Italic";
paths = (
{
closed = 1;
nodes = (
"485 0 LINE",
"518 159 LINE",
"232 159 LINE",
"250 240 LINE",
"499 240 LINE",
"533 403 LINE",
"284 403 LINE",
"302 485 LINE",
"588 485 LINE",
"621 644 LINE",
"120 644 LINE",
"-16 0 LINE"
);
},
{
closed = 1;
nodes = (
"457 688 LINE",
"465 726 LINE",
"525 743 OFFCURVE",
"557 769 OFFCURVE",
"570 828 CURVE SMOOTH",
"572 835 OFFCURVE",
"572 842 OFFCURVE",
"572 848 CURVE SMOOTH",
"572 898 OFFCURVE",
"529 932 OFFCURVE",
"446 932 CURVE SMOOTH",
"393 932 OFFCURVE",
"352 927 OFFCURVE",
"320 918 CURVE",
"302 832 LINE",
"319 837 OFFCURVE",
"342 841 OFFCURVE",
"362 841 CURVE SMOOTH",
"394 841 OFFCURVE",
"411 834 OFFCURVE",
"411 817 CURVE SMOOTH",
"411 791 OFFCURVE",
"389 773 OFFCURVE",
"314 769 CURVE",
"297 688 LINE"
);
}
);
width = 556;
}
);
note = Ehookabove;
unicode = 1EBA;
},
{
glyphname = Emacron;
lastChange = "2015-11-26 07:52:35 +0000";
layers = (
{
layerId = "DD5B64A7-4DAF-4BC4-A4CC-81A10E608EA1";
name = "Bold Italic";
paths = (
{
closed = 1;
nodes = (
"485 0 LINE",
"518 159 LINE",
"232 159 LINE",
"250 240 LINE",
"499 240 LINE",
"533 403 LINE",
"284 403 LINE",
"302 485 LINE",
"588 485 LINE",
"621 644 LINE",
"120 644 LINE",
"-16 0 LINE"
);
},
{
closed = 1;
nodes = (
"544 725 LINE",
"571 851 LINE",
"233 851 LINE",
"206 725 LINE"
);
}
);
width = 556;
}
);
note = Emacron;
unicode = 0112;
},
{
glyphname = Eogonek;
lastChange = "2015-11-26 07:52:31 +0000";
layers = (
{
layerId = "DD5B64A7-4DAF-4BC4-A4CC-81A10E608EA1";
name = "Bold Italic";
paths = (
{
closed = 1;
nodes = (
"366 -220 OFFCURVE",
"411 -211 OFFCURVE",
"433 -203 CURVE",
"454 -107 LINE",
"440 -114 OFFCURVE",
"418 -118 OFFCURVE",
"401 -118 CURVE SMOOTH",
"377 -118 OFFCURVE",
"364 -111 OFFCURVE",
"364 -93 CURVE SMOOTH",
"364 -90 OFFCURVE",
"364 -87 OFFCURVE",
"365 -83 CURVE SMOOTH",
"372 -51 OFFCURVE",
"398 -24 OFFCURVE",
"435 0 CURVE",
"485 0 LINE",
"518 159 LINE",
"232 159 LINE",
"250 240 LINE",
"499 240 LINE",
"533 403 LINE",
"284 403 LINE",
"302 485 LINE",
"588 485 LINE",
"621 644 LINE",
"120 644 LINE",
"-16 0 LINE",
"301 0 LINE",
"253 -26 OFFCURVE",
"212 -68 OFFCURVE",
"201 -120 CURVE SMOOTH",
"199 -128 OFFCURVE",
"198 -136 OFFCURVE",
"198 -143 CURVE SMOOTH",
"198 -196 OFFCURVE",
"247 -220 OFFCURVE",
"320 -220 CURVE SMOOTH"
);
}
);
width = 556;
}
);
note = Eogonek;
unicode = 0118;
},
{
glyphname = Etilde;
lastChange = "2015-11-26 07:52:35 +0000";
layers = (
{
layerId = "DD5B64A7-4DAF-4BC4-A4CC-81A10E608EA1";
name = "Bold Italic";
paths = (
{
closed = 1;
nodes = (
"485 0 LINE",
"518 159 LINE",
"232 159 LINE",
"250 240 LINE",
"499 240 LINE",
"533 403 LINE",
"284 403 LINE",
"302 485 LINE",
"588 485 LINE",
"621 644 LINE",
"120 644 LINE",
"-16 0 LINE"
);
},
{
closed = 1;
nodes = (
"526 694 OFFCURVE",
"566 710 OFFCURVE",
"583 728 CURVE",
"611 858 LINE",
"590 835 OFFCURVE",
"552 817 OFFCURVE",
"508 817 CURVE SMOOTH",
"442 817 OFFCURVE",
"396 860 OFFCURVE",
"326 860 CURVE SMOOTH",
"286 860 OFFCURVE",
"244 844 OFFCURVE",
"221 826 CURVE",
"193 697 LINE",
"223 721 OFFCURVE",
"259 737 OFFCURVE",
"303 737 CURVE SMOOTH",
"361 737 OFFCURVE",
"416 694 OFFCURVE",
"485 694 CURVE SMOOTH"
);
}
);
width = 556;
}
);
note = Etilde;
unicode = 1EBC;
},
{
glyphname = F;
lastChange = "2015-11-26 07:52:31 +0000";
layers = (
{
layerId = "DD5B64A7-4DAF-4BC4-A4CC-81A10E608EA1";
name = "Bold Italic";
paths = (
{
closed = 1;
nodes = (
"199 0 LINE",
"250 241 LINE",
"496 241 LINE",
"530 402 LINE",
"284 402 LINE",
"302 487 LINE",
"586 487 LINE",
"619 644 LINE",
"120 644 LINE",
"-16 0 LINE"
);
}
);
width = 539;
}
);
note = F;
unicode = 0046;
},
{
glyphname = G;
lastChange = "2015-11-26 07:52:31 +0000";
layers = (
{
layerId = "DD5B64A7-4DAF-4BC4-A4CC-81A10E608EA1";
name = "Bold Italic";
paths = (
{
closed = 1;
nodes = (
"443 -10 OFFCURVE",
"532 16 OFFCURVE",
"591 51 CURVE",
"661 379 LINE",
"365 379 LINE",
"337 248 LINE",
"454 248 LINE",
"440 182 LINE",
"416 175 OFFCURVE",
"391 172 OFFCURVE",
"362 172 CURVE SMOOTH",
"277 172 OFFCURVE",
"242 192 OFFCURVE",
"242 254 CURVE SMOOTH",
"242 272 OFFCURVE",
"245 294 OFFCURVE",
"250 319 CURVE SMOOTH",
"273 430 OFFCURVE",
"343 472 OFFCURVE",
"457 472 CURVE SMOOTH",
"529 472 OFFCURVE",
"590 463 OFFCURVE",
"639 442 CURVE",
"678 625 LINE",
"625 644 OFFCURVE",
"560 654 OFFCURVE",
"481 654 CURVE SMOOTH",
"228 654 OFFCURVE",
"77 536 OFFCURVE",
"31 319 CURVE SMOOTH",
"25 289 OFFCURVE",
"22 261 OFFCURVE",
"22 236 CURVE SMOOTH",
"22 75 OFFCURVE",
"139 -10 OFFCURVE",
"324 -10 CURVE SMOOTH"
);
}
);
width = 657;
}
);
leftKerningGroup = C;
note = G;
unicode = 0047;
},
{
glyphname = Gbreve;
lastChange = "2015-11-26 07:52:34 +0000";
layers = (
{
layerId = "DD5B64A7-4DAF-4BC4-A4CC-81A10E608EA1";
name = "Bold Italic";
paths = (
{
closed = 1;
nodes = (
"443 -10 OFFCURVE",
"532 16 OFFCURVE",
"591 51 CURVE",
"661 379 LINE",
"365 379 LINE",
"337 248 LINE",
"454 248 LINE",
"440 182 LINE",
"416 175 OFFCURVE",
"391 172 OFFCURVE",
"362 172 CURVE SMOOTH",
"277 172 OFFCURVE",
"242 192 OFFCURVE",
"242 254 CURVE SMOOTH",
"242 272 OFFCURVE",
"245 294 OFFCURVE",
"250 319 CURVE SMOOTH",
"273 430 OFFCURVE",
"343 472 OFFCURVE",
"457 472 CURVE SMOOTH",
"529 472 OFFCURVE",
"590 463 OFFCURVE",
"639 442 CURVE",
"678 625 LINE",
"625 644 OFFCURVE",
"560 654 OFFCURVE",
"481 654 CURVE SMOOTH",
"228 654 OFFCURVE",
"77 536 OFFCURVE",
"31 319 CURVE SMOOTH",
"25 289 OFFCURVE",
"22 261 OFFCURVE",
"22 236 CURVE SMOOTH",
"22 75 OFFCURVE",
"139 -10 OFFCURVE",
"324 -10 CURVE SMOOTH"
);
},
{
closed = 1;
nodes = (
"604 688 OFFCURVE",
"692 760 OFFCURVE",
"720 892 CURVE",
"576 892 LINE",
"566 845 OFFCURVE",
"549 806 OFFCURVE",
"491 806 CURVE SMOOTH",
"451 806 OFFCURVE",
"439 827 OFFCURVE",
"439 857 CURVE SMOOTH",
"439 868 OFFCURVE",
"440 879 OFFCURVE",
"443 892 CURVE",
"311 892 LINE",
"307 872 OFFCURVE",
"305 853 OFFCURVE",
"305 835 CURVE SMOOTH",
"305 740 OFFCURVE",
"368 688 OFFCURVE",
"471 688 CURVE SMOOTH"
);
}
);
width = 657;
}
);
leftKerningGroup = C;
note = Gbreve;
unicode = 011E;
},
{
glyphname = Gcaron;
lastChange = "2015-11-26 07:52:35 +0000";
layers = (
{
layerId = "DD5B64A7-4DAF-4BC4-A4CC-81A10E608EA1";
name = "Bold Italic";
paths = (
{
closed = 1;
nodes = (
"443 -10 OFFCURVE",
"532 16 OFFCURVE",
"591 51 CURVE",
"661 379 LINE",
"365 379 LINE",
"337 248 LINE",
"454 248 LINE",
"440 182 LINE",
"416 175 OFFCURVE",
"391 172 OFFCURVE",
"362 172 CURVE SMOOTH",
"277 172 OFFCURVE",
"242 192 OFFCURVE",
"242 254 CURVE SMOOTH",
"242 272 OFFCURVE",
"245 294 OFFCURVE",
"250 319 CURVE SMOOTH",
"273 430 OFFCURVE",
"343 472 OFFCURVE",
"457 472 CURVE SMOOTH",
"529 472 OFFCURVE",
"590 463 OFFCURVE",
"639 442 CURVE",
"678 625 LINE",
"625 644 OFFCURVE",
"560 654 OFFCURVE",
"481 654 CURVE SMOOTH",
"228 654 OFFCURVE",
"77 536 OFFCURVE",
"31 319 CURVE SMOOTH",
"25 289 OFFCURVE",
"22 261 OFFCURVE",
"22 236 CURVE SMOOTH",
"22 75 OFFCURVE",
"139 -10 OFFCURVE",
"324 -10 CURVE SMOOTH"
);
},
{
closed = 1;
nodes = (
"529 688 LINE",
"738 896 LINE",
"580 896 LINE",
"481 788 LINE",
"431 896 LINE",
"282 896 LINE",
"403 688 LINE"
);
}
);
width = 657;
}
);
leftKerningGroup = C;
note = Gcaron;
unicode = 01E6;
},
{
glyphname = Gcircumflex;
lastChange = "2015-11-26 07:52:35 +0000";
layers = (
{
layerId = "DD5B64A7-4DAF-4BC4-A4CC-81A10E608EA1";
name = "Bold Italic";
paths = (
{
closed = 1;
nodes = (
"443 -10 OFFCURVE",
"532 16 OFFCURVE",
"591 51 CURVE",
"661 379 LINE",
"365 379 LINE",
"337 248 LINE",
"454 248 LINE",
"440 182 LINE",
"416 175 OFFCURVE",
"391 172 OFFCURVE",
"362 172 CURVE SMOOTH",
"277 172 OFFCURVE",
"242 192 OFFCURVE",
"242 254 CURVE SMOOTH",
"242 272 OFFCURVE",
"245 294 OFFCURVE",
"250 319 CURVE SMOOTH",
"273 430 OFFCURVE",
"343 472 OFFCURVE",
"457 472 CURVE SMOOTH",
"529 472 OFFCURVE",
"590 463 OFFCURVE",
"639 442 CURVE",
"678 625 LINE",
"625 644 OFFCURVE",
"560 654 OFFCURVE",
"481 654 CURVE SMOOTH",
"228 654 OFFCURVE",
"77 536 OFFCURVE",
"31 319 CURVE SMOOTH",
"25 289 OFFCURVE",
"22 261 OFFCURVE",
"22 236 CURVE SMOOTH",
"22 75 OFFCURVE",
"139 -10 OFFCURVE",
"324 -10 CURVE SMOOTH"
);
},
{
closed = 1;
nodes = (
"389 687 LINE",
"484 795 LINE",
"537 687 LINE",
"683 687 LINE",
"562 895 LINE",
"435 895 LINE",
"227 687 LINE"
);
}
);
width = 657;
}
);
leftKerningGroup = C;
note = Gcircumflex;
unicode = 011C;
},
{
glyphname = Gcommaaccent;
lastChange = "2015-11-26 07:52:35 +0000";
layers = (
{
layerId = "DD5B64A7-4DAF-4BC4-A4CC-81A10E608EA1";
name = "Bold Italic";
paths = (
{
closed = 1;
nodes = (
"443 -10 OFFCURVE",
"532 16 OFFCURVE",
"591 51 CURVE",
"661 379 LINE",
"365 379 LINE",
"337 248 LINE",
"454 248 LINE",
"440 182 LINE",
"416 175 OFFCURVE",
"391 172 OFFCURVE",
"362 172 CURVE SMOOTH",
"277 172 OFFCURVE",
"242 192 OFFCURVE",
"242 254 CURVE SMOOTH",
"242 272 OFFCURVE",
"245 294 OFFCURVE",
"250 319 CURVE SMOOTH",
"273 430 OFFCURVE",
"343 472 OFFCURVE",
"457 472 CURVE SMOOTH",
"529 472 OFFCURVE",
"590 463 OFFCURVE",
"639 442 CURVE",
"678 625 LINE",
"625 644 OFFCURVE",
"560 654 OFFCURVE",
"481 654 CURVE SMOOTH",
"228 654 OFFCURVE",
"77 536 OFFCURVE",
"31 319 CURVE SMOOTH",
"25 289 OFFCURVE",
"22 261 OFFCURVE",
"22 236 CURVE SMOOTH",
"22 75 OFFCURVE",
"139 -10 OFFCURVE",
"324 -10 CURVE SMOOTH"
);
},
{
closed = 1;
nodes = (
"301 -274 LINE",
"413 -37 LINE",
"247 -37 LINE",
"162 -274 LINE"
);
}
);
width = 657;
}
);
leftKerningGroup = C;
note = Gcommaaccent;
unicode = 0122;
},
{
glyphname = Gdotaccent;
lastChange = "2015-11-26 07:52:34 +0000";
layers = (
{
layerId = "DD5B64A7-4DAF-4BC4-A4CC-81A10E608EA1";
name = "Bold Italic";
paths = (
{
closed = 1;
nodes = (
"443 -10 OFFCURVE",
"532 16 OFFCURVE",
"591 51 CURVE",
"661 379 LINE",
"365 379 LINE",
"337 248 LINE",
"454 248 LINE",
"440 182 LINE",
"416 175 OFFCURVE",
"391 172 OFFCURVE",
"362 172 CURVE SMOOTH",
"277 172 OFFCURVE",
"242 192 OFFCURVE",
"242 254 CURVE SMOOTH",
"242 272 OFFCURVE",
"245 294 OFFCURVE",
"250 319 CURVE SMOOTH",
"273 430 OFFCURVE",
"343 472 OFFCURVE",
"457 472 CURVE SMOOTH",
"529 472 OFFCURVE",
"590 463 OFFCURVE",
"639 442 CURVE",
"678 625 LINE",
"625 644 OFFCURVE",
"560 654 OFFCURVE",
"481 654 CURVE SMOOTH",
"228 654 OFFCURVE",
"77 536 OFFCURVE",
"31 319 CURVE SMOOTH",
"25 289 OFFCURVE",
"22 261 OFFCURVE",
"22 236 CURVE SMOOTH",
"22 75 OFFCURVE",
"139 -10 OFFCURVE",
"324 -10 CURVE SMOOTH"
);
},
{
closed = 1;
nodes = (
"560 716 LINE",
"587 847 LINE",
"444 847 LINE",
"417 716 LINE"
);
}
);
width = 657;
}
);
leftKerningGroup = C;
note = Gdotaccent;
unicode = 0120;
},
{
glyphname = Gmacron;
lastChange = "2015-11-26 07:52:35 +0000";
layers = (
{
layerId = "DD5B64A7-4DAF-4BC4-A4CC-81A10E608EA1";
name = "Bold Italic";
paths = (
{
closed = 1;
nodes = (
"443 -10 OFFCURVE",
"532 16 OFFCURVE",
"591 51 CURVE",
"661 379 LINE",
"365 379 LINE",
"337 248 LINE",
"454 248 LINE",
"440 182 LINE",
"416 175 OFFCURVE",
"391 172 OFFCURVE",
"362 172 CURVE SMOOTH",
"277 172 OFFCURVE",
"242 192 OFFCURVE",
"242 254 CURVE SMOOTH",
"242 272 OFFCURVE",
"245 294 OFFCURVE",
"250 319 CURVE SMOOTH",
"273 430 OFFCURVE",
"343 472 OFFCURVE",
"457 472 CURVE SMOOTH",
"529 472 OFFCURVE",
"590 463 OFFCURVE",
"639 442 CURVE",
"678 625 LINE",
"625 644 OFFCURVE",
"560 654 OFFCURVE",
"481 654 CURVE SMOOTH",
"228 654 OFFCURVE",
"77 536 OFFCURVE",
"31 319 CURVE SMOOTH",
"25 289 OFFCURVE",
"22 261 OFFCURVE",
"22 236 CURVE SMOOTH",
"22 75 OFFCURVE",
"139 -10 OFFCURVE",
"324 -10 CURVE SMOOTH"
);
},
{
closed = 1;
nodes = (
"649 717 LINE",
"676 843 LINE",
"338 843 LINE",
"311 717 LINE"
);
}
);
width = 657;
}
);
leftKerningGroup = C;
note = Gmacron;
unicode = 1E20;
},
{
glyphname = H;
lastChange = "2015-11-26 07:52:31 +0000";
layers = (
{
layerId = "DD5B64A7-4DAF-4BC4-A4CC-81A10E608EA1";
name = "Bold Italic";
paths = (
{
closed = 1;
nodes = (
"199 0 LINE",
"246 225 LINE",
"437 225 LINE",
"390 0 LINE",
"605 0 LINE",
"741 644 LINE",
"526 644 LINE",
"479 419 LINE",
"288 419 LINE",
"335 644 LINE",
"120 644 LINE",
"-16 0 LINE"
);
}
);
width = 701;
}
);
note = H;
unicode = 0048;
},
{
glyphname = Hbar;
lastChange = "2015-11-26 07:52:35 +0000";
layers = (
{
layerId = "DD5B64A7-4DAF-4BC4-A4CC-81A10E608EA1";
name = "Bold Italic";
paths = (
{
closed = 1;
nodes = (
"204 0 LINE",
"251 225 LINE",
"442 225 LINE",
"395 0 LINE",
"610 0 LINE",
"709 469 LINE",
"755 469 LINE",
"781 589 LINE",
"734 589 LINE",
"746 644 LINE",
"531 644 LINE",
"519 589 LINE",
"328 589 LINE",
"340 644 LINE",
"125 644 LINE",
"113 589 LINE",
"69 589 LINE",
"43 469 LINE",
"88 469 LINE",
"-11 0 LINE"
);
},
{
closed = 1;
nodes = (
"303 469 LINE",
"494 469 LINE",
"484 419 LINE",
"293 419 LINE"
);
}
);
width = 712;
}
);
note = Hbar;
unicode = 0126;
},
{
glyphname = Hbrevebelow;
lastChange = "2015-11-26 07:52:35 +0000";
layers = (
{
layerId = "DD5B64A7-4DAF-4BC4-A4CC-81A10E608EA1";
name = "Bold Italic";
paths = (
{
closed = 1;
nodes = (
"199 0 LINE",
"246 225 LINE",
"437 225 LINE",
"390 0 LINE",
"605 0 LINE",
"741 644 LINE",
"526 644 LINE",
"479 419 LINE",
"288 419 LINE",
"335 644 LINE",
"120 644 LINE",
"-16 0 LINE"
);
},
{
closed = 1;
nodes = (
"375 -249 OFFCURVE",
"463 -177 OFFCURVE",
"491 -45 CURVE",
"346 -45 LINE",
"336 -92 OFFCURVE",
"320 -131 OFFCURVE",
"262 -131 CURVE SMOOTH",
"222 -131 OFFCURVE",
"210 -110 OFFCURVE",
"210 -80 CURVE SMOOTH",
"210 -69 OFFCURVE",
"211 -58 OFFCURVE",
"214 -45 CURVE",
"82 -45 LINE",
"78 -65 OFFCURVE",
"76 -84 OFFCURVE",
"76 -102 CURVE SMOOTH",
"76 -197 OFFCURVE",
"139 -249 OFFCURVE",
"243 -249 CURVE SMOOTH"
);
}
);
width = 701;
}
);
note = Hbrevebelow;
unicode = 1E2A;
},
{
glyphname = Hcircumflex;
lastChange = "2015-11-26 07:52:34 +0000";
layers = (
{
layerId = "DD5B64A7-4DAF-4BC4-A4CC-81A10E608EA1";
name = "Bold Italic";
paths = (
{
closed = 1;
nodes = (
"199 0 LINE",
"246 225 LINE",
"437 225 LINE",
"390 0 LINE",
"605 0 LINE",
"741 644 LINE",
"526 644 LINE",
"479 419 LINE",
"288 419 LINE",
"335 644 LINE",
"120 644 LINE",
"-16 0 LINE"
);
},
{
closed = 1;
nodes = (
"373 687 LINE",
"468 795 LINE",
"521 687 LINE",
"667 687 LINE",
"546 895 LINE",
"419 895 LINE",
"211 687 LINE"
);
}
);
width = 701;
}
);
note = Hcircumflex;
unicode = 0124;
},
{
glyphname = Hdotbelow;
lastChange = "2015-11-26 07:52:35 +0000";
layers = (
{
layerId = "DD5B64A7-4DAF-4BC4-A4CC-81A10E608EA1";
name = "Bold Italic";
paths = (
{
closed = 1;
nodes = (
"199 0 LINE",
"246 225 LINE",
"437 225 LINE",
"390 0 LINE",
"605 0 LINE",
"741 644 LINE",
"526 644 LINE",
"479 419 LINE",
"288 419 LINE",
"335 644 LINE",
"120 644 LINE",
"-16 0 LINE"
);
},
{
closed = 1;
nodes = (
"328 -176 LINE",
"356 -46 LINE",
"213 -46 LINE",
"185 -176 LINE"
);
}
);
width = 701;
}
);
note = Hdotbelow;
unicode = 1E24;
},
{
glyphname = I;
lastChange = "2015-11-26 07:52:31 +0000";
layers = (
{
layerId = "DD5B64A7-4DAF-4BC4-A4CC-81A10E608EA1";
name = "Bold Italic";
paths = (
{
closed = 1;
nodes = (
"199 0 LINE",
"335 644 LINE",
"120 644 LINE",
"-16 0 LINE"
);
}
);
width = 295;
}
);
note = I;
unicode = 0049;
},
{
glyphname = IJ;
lastChange = "2015-11-26 07:52:35 +0000";
layers = (
{
layerId = "DD5B64A7-4DAF-4BC4-A4CC-81A10E608EA1";
name = "Bold Italic";
paths = (
{
closed = 1;
nodes = (
"558 -10 OFFCURVE",
"665 59 OFFCURVE",
"698 215 CURVE SMOOTH",
"789 644 LINE",
"574 644 LINE",
"493 259 LINE SMOOTH",
"479 196 OFFCURVE",
"458 172 OFFCURVE",
"383 172 CURVE SMOOTH",
"343 172 OFFCURVE",
"303 178 OFFCURVE",
"274 191 CURVE",
"236 13 LINE",
"279 0 OFFCURVE",
"328 -10 OFFCURVE",
"388 -10 CURVE SMOOTH"
);
},
{
closed = 1;
nodes = (
"199 0 LINE",
"335 644 LINE",
"120 644 LINE",
"-16 0 LINE"
);
}
);
width = 744;
}
);
note = IJ;
rightKerningGroup = J;
unicode = 0132;
},
{
glyphname = Iacute;
lastChange = "2015-11-26 07:52:35 +0000";
layers = (
{
layerId = "DD5B64A7-4DAF-4BC4-A4CC-81A10E608EA1";
name = "Bold Italic";
paths = (
{
closed = 1;
nodes = (
"199 0 LINE",
"335 644 LINE",
"120 644 LINE",
"-16 0 LINE"
);
},
{
closed = 1;
nodes = (
"311 688 LINE",
"458 904 LINE",
"292 904 LINE",
"154 688 LINE"
);
}
);
width = 295;
}
);
note = Iacute;
unicode = 00CD;
},
{
glyphname = Ibreve;
lastChange = "2015-11-26 07:52:34 +0000";
layers = (
{
layerId = "DD5B64A7-4DAF-4BC4-A4CC-81A10E608EA1";
name = "Bold Italic";
paths = (
{
closed = 1;
nodes = (
"199 0 LINE",
"335 644 LINE",
"120 644 LINE",
"-16 0 LINE"
);
},
{
closed = 1;
nodes = (
"375 711 OFFCURVE",
"463 783 OFFCURVE",
"491 915 CURVE",
"347 915 LINE",
"337 868 OFFCURVE",
"320 829 OFFCURVE",
"262 829 CURVE SMOOTH",
"222 829 OFFCURVE",
"210 850 OFFCURVE",
"210 880 CURVE SMOOTH",
"210 891 OFFCURVE",
"211 902 OFFCURVE",
"214 915 CURVE",
"82 915 LINE",
"78 895 OFFCURVE",
"76 876 OFFCURVE",
"76 858 CURVE SMOOTH",
"76 763 OFFCURVE",
"139 711 OFFCURVE",
"242 711 CURVE SMOOTH"
);
}
);
width = 295;
}
);
note = Ibreve;
unicode = 012C;
},
{
glyphname = Icaron;
lastChange = "2015-11-26 07:52:35 +0000";
layers = (
{
layerId = "DD5B64A7-4DAF-4BC4-A4CC-81A10E608EA1";
name = "Bold Italic";
paths = (
{
closed = 1;
nodes = (
"199 0 LINE",
"335 644 LINE",
"120 644 LINE",
"-16 0 LINE"
);
},
{
closed = 1;
nodes = (
"300 688 LINE",
"509 896 LINE",
"351 896 LINE",
"252 788 LINE",
"202 896 LINE",
"53 896 LINE",
"174 688 LINE"
);
}
);
width = 295;
}
);
note = Icaron;
unicode = 01CF;
},
{
glyphname = Icircumflex;
lastChange = "2015-11-26 07:52:34 +0000";
layers = (
{
layerId = "DD5B64A7-4DAF-4BC4-A4CC-81A10E608EA1";
name = "Bold Italic";
paths = (
{
closed = 1;
nodes = (
"199 0 LINE",
"335 644 LINE",
"120 644 LINE",
"-16 0 LINE"
);
},
{
closed = 1;
nodes = (
"171 688 LINE",
"266 796 LINE",
"319 688 LINE",
"465 688 LINE",
"344 896 LINE",
"217 896 LINE",
"9 688 LINE"
);
}
);
width = 295;
}
);
note = Icircumflex;
unicode = 00CE;
},
{
glyphname = Idieresis;
lastChange = "2015-11-26 07:52:34 +0000";
layers = (
{
layerId = "DD5B64A7-4DAF-4BC4-A4CC-81A10E608EA1";
name = "Bold Italic";
paths = (
{
closed = 1;
nodes = (
"199 0 LINE",
"335 644 LINE",
"120 644 LINE",
"-16 0 LINE"
);
},
{
closed = 1;
nodes = (
"204 724 LINE",
"231 855 LINE",
"88 855 LINE",
"61 724 LINE"
);
},
{
closed = 1;
nodes = (
"429 724 LINE",
"456 855 LINE",
"313 855 LINE",
"286 724 LINE"
);
}
);
width = 295;
}
);
note = Idieresis;
unicode = 00CF;
},
{
glyphname = Idotaccent;
lastChange = "2015-11-26 07:52:35 +0000";
layers = (
{
layerId = "DD5B64A7-4DAF-4BC4-A4CC-81A10E608EA1";
name = "Bold Italic";
paths = (
{
closed = 1;
nodes = (
"199 0 LINE",
"335 644 LINE",
"120 644 LINE",
"-16 0 LINE"
);
},
{
closed = 1;
nodes = (
"316 724 LINE",
"343 855 LINE",
"200 855 LINE",
"173 724 LINE"
);
}
);
width = 295;
}
);
note = Idotaccent;
unicode = 0130;
},
{
glyphname = Idotbelow;
lastChange = "2015-11-26 07:52:36 +0000";
layers = (
{
layerId = "DD5B64A7-4DAF-4BC4-A4CC-81A10E608EA1";
name = "Bold Italic";
paths = (
{
closed = 1;
nodes = (
"199 0 LINE",
"335 644 LINE",
"120 644 LINE",
"-16 0 LINE"
);
},
{
closed = 1;
nodes = (
"126 -176 LINE",
"154 -46 LINE",
"11 -46 LINE",
"-17 -176 LINE"
);
}
);
width = 295;
}
);
note = Idotbelow;
unicode = 1ECA;
},
{
glyphname = Igrave;
lastChange = "2015-11-26 07:52:34 +0000";
layers = (
{
layerId = "DD5B64A7-4DAF-4BC4-A4CC-81A10E608EA1";
name = "Bold Italic";
paths = (
{
closed = 1;
nodes = (
"199 0 LINE",
"335 644 LINE",
"120 644 LINE",
"-16 0 LINE"
);
},
{
closed = 1;
nodes = (
"317 688 LINE",
"271 904 LINE",
"104 904 LINE",
"159 688 LINE"
);
}
);
width = 295;
}
);
note = Igrave;
unicode = 00CC;
},
{
glyphname = Ihookabove;
lastChange = "2015-11-26 07:52:34 +0000";
layers = (
{
layerId = "DD5B64A7-4DAF-4BC4-A4CC-81A10E608EA1";
name = "Bold Italic";
paths = (
{
closed = 1;
nodes = (
"199 0 LINE",
"335 644 LINE",
"120 644 LINE",
"-16 0 LINE"
);
},
{
closed = 1;
nodes = (
"312 688 LINE",
"320 726 LINE",
"380 743 OFFCURVE",
"412 769 OFFCURVE",
"425 828 CURVE SMOOTH",
"427 835 OFFCURVE",
"427 842 OFFCURVE",
"427 848 CURVE SMOOTH",
"427 898 OFFCURVE",
"384 932 OFFCURVE",
"301 932 CURVE SMOOTH",
"248 932 OFFCURVE",
"207 927 OFFCURVE",
"175 918 CURVE",
"157 832 LINE",
"174 837 OFFCURVE",
"197 841 OFFCURVE",
"217 841 CURVE SMOOTH",
"249 841 OFFCURVE",
"266 834 OFFCURVE",
"266 817 CURVE SMOOTH",
"266 791 OFFCURVE",
"244 773 OFFCURVE",
"169 769 CURVE",
"152 688 LINE"
);
}
);
width = 295;
}
);
note = Ihookabove;
unicode = 1EC8;
},
{
glyphname = Imacron;
lastChange = "2015-11-26 07:52:34 +0000";
layers = (
{
layerId = "DD5B64A7-4DAF-4BC4-A4CC-81A10E608EA1";
name = "Bold Italic";
paths = (
{
closed = 1;
nodes = (
"199 0 LINE",
"335 644 LINE",
"120 644 LINE",
"-16 0 LINE"
);
},
{
closed = 1;
nodes = (
"414 725 LINE",
"441 851 LINE",
"103 851 LINE",
"76 725 LINE"
);
}
);
width = 295;
}
);
note = Imacron;
unicode = 012A;
},
{
glyphname = Iogonek;
lastChange = "2015-11-26 07:52:31 +0000";
layers = (
{
layerId = "DD5B64A7-4DAF-4BC4-A4CC-81A10E608EA1";
name = "Bold Italic";
paths = (
{
closed = 1;
nodes = (
"89 -220 OFFCURVE",
"134 -211 OFFCURVE",
"156 -203 CURVE",
"177 -107 LINE",
"163 -114 OFFCURVE",
"141 -118 OFFCURVE",
"124 -118 CURVE SMOOTH",
"100 -118 OFFCURVE",
"87 -111 OFFCURVE",
"87 -93 CURVE SMOOTH",
"87 -90 OFFCURVE",
"87 -87 OFFCURVE",
"88 -83 CURVE SMOOTH",
"95 -51 OFFCURVE",
"121 -24 OFFCURVE",
"158 0 CURVE",
"199 0 LINE",
"335 644 LINE",
"120 644 LINE",
"-16 0 LINE",
"24 0 LINE",
"-24 -26 OFFCURVE",
"-65 -68 OFFCURVE",
"-76 -120 CURVE SMOOTH",
"-78 -128 OFFCURVE",
"-79 -136 OFFCURVE",
"-79 -143 CURVE SMOOTH",
"-79 -196 OFFCURVE",
"-30 -220 OFFCURVE",
"43 -220 CURVE SMOOTH"
);
}
);
width = 295;
}
);
note = Iogonek;
unicode = 012E;
},
{
glyphname = Itilde;
lastChange = "2015-11-26 07:52:35 +0000";
layers = (
{
layerId = "DD5B64A7-4DAF-4BC4-A4CC-81A10E608EA1";
name = "Bold Italic";
paths = (
{
closed = 1;
nodes = (
"199 0 LINE",
"335 644 LINE",
"120 644 LINE",
"-16 0 LINE"
);
},
{
closed = 1;
nodes = (
"386 717 OFFCURVE",
"426 733 OFFCURVE",
"443 751 CURVE",
"471 881 LINE",
"450 858 OFFCURVE",
"412 840 OFFCURVE",
"368 840 CURVE SMOOTH",
"302 840 OFFCURVE",
"256 883 OFFCURVE",
"186 883 CURVE SMOOTH",
"146 883 OFFCURVE",
"104 867 OFFCURVE",
"81 849 CURVE",
"53 720 LINE",
"83 744 OFFCURVE",
"119 760 OFFCURVE",
"163 760 CURVE SMOOTH",
"221 760 OFFCURVE",
"276 717 OFFCURVE",
"345 717 CURVE SMOOTH"
);
}
);
width = 295;
}
);
note = Itilde;
unicode = 0128;
},
{
glyphname = J;
lastChange = "2015-11-26 07:52:31 +0000";
layers = (
{
layerId = "DD5B64A7-4DAF-4BC4-A4CC-81A10E608EA1";
name = "Bold Italic";
paths = (
{
closed = 1;
nodes = (
"268 -10 OFFCURVE",
"375 59 OFFCURVE",
"408 215 CURVE SMOOTH",
"499 644 LINE",
"284 644 LINE",
"203 259 LINE SMOOTH",
"189 196 OFFCURVE",
"168 172 OFFCURVE",
"93 172 CURVE SMOOTH",
"53 172 OFFCURVE",
"13 178 OFFCURVE",
"-16 191 CURVE",
"-54 13 LINE",
"-11 0 OFFCURVE",
"38 -10 OFFCURVE",
"98 -10 CURVE SMOOTH"
);
}
);
width = 454;
}
);
leftKerningGroup = J;
note = J;
rightKerningGroup = J;
unicode = 004A;
},
{
glyphname = Jcircumflex;
lastChange = "2015-11-26 07:52:35 +0000";
layers = (
{
layerId = "DD5B64A7-4DAF-4BC4-A4CC-81A10E608EA1";
name = "Bold Italic";
paths = (
{
closed = 1;
nodes = (
"268 -10 OFFCURVE",
"375 59 OFFCURVE",
"408 215 CURVE SMOOTH",
"499 644 LINE",
"284 644 LINE",
"203 259 LINE SMOOTH",
"189 196 OFFCURVE",
"168 172 OFFCURVE",
"93 172 CURVE SMOOTH",
"53 172 OFFCURVE",
"13 178 OFFCURVE",
"-16 191 CURVE",
"-54 13 LINE",
"-11 0 OFFCURVE",
"38 -10 OFFCURVE",
"98 -10 CURVE SMOOTH"
);
},
{
closed = 1;
nodes = (
"332 688 LINE",
"427 796 LINE",
"480 688 LINE",
"626 688 LINE",
"505 896 LINE",
"378 896 LINE",
"170 688 LINE"
);
}
);
width = 454;
}
);
leftKerningGroup = J;
note = Jcircumflex;
rightKerningGroup = J;
unicode = 0134;
},
{
glyphname = K;
lastChange = "2015-11-26 07:52:31 +0000";
layers = (
{
layerId = "DD5B64A7-4DAF-4BC4-A4CC-81A10E608EA1";
name = "Bold Italic";
paths = (
{
closed = 1;
nodes = (
"199 0 LINE",
"236 177 LINE",
"306 242 LINE",
"400 0 LINE",
"628 0 LINE",
"467 378 LINE",
"746 644 LINE",
"503 644 LINE",
"292 440 LINE",
"335 644 LINE",
"120 644 LINE",
"-16 0 LINE"
);
}
);
width = 704;
}
);
note = K;
rightKerningGroup = K;
unicode = 004B;
},
{
glyphname = Kcommaaccent;
lastChange = "2015-11-26 07:52:35 +0000";
layers = (
{
layerId = "DD5B64A7-4DAF-4BC4-A4CC-81A10E608EA1";
name = "Bold Italic";
paths = (
{
closed = 1;
nodes = (
"199 0 LINE",
"236 177 LINE",
"306 242 LINE",
"400 0 LINE",
"628 0 LINE",
"467 378 LINE",
"746 644 LINE",
"503 644 LINE",
"292 440 LINE",
"335 644 LINE",
"120 644 LINE",
"-16 0 LINE"
);
},
{
closed = 1;
nodes = (
"268 -274 LINE",
"380 -37 LINE",
"214 -37 LINE",
"129 -274 LINE"
);
}
);
width = 704;
}
);
note = Kcommaaccent;
rightKerningGroup = K;
unicode = 0136;
},
{
glyphname = L;
lastChange = "2015-11-26 07:52:31 +0000";
layers = (
{
layerId = "DD5B64A7-4DAF-4BC4-A4CC-81A10E608EA1";
name = "Bold Italic";
paths = (
{
closed = 1;
nodes = (
"475 0 LINE",
"509 164 LINE",
"233 164 LINE",
"335 644 LINE",
"120 644 LINE",
"-16 0 LINE"
);
}
);
width = 531;
}
);
note = L;
rightKerningGroup = L;
unicode = 004C;
},
{
glyphname = Lacute;
lastChange = "2015-11-26 07:52:35 +0000";
layers = (
{
layerId = "DD5B64A7-4DAF-4BC4-A4CC-81A10E608EA1";
name = "Bold Italic";
paths = (
{
closed = 1;
nodes = (
"475 0 LINE",
"509 164 LINE",
"233 164 LINE",
"335 644 LINE",
"120 644 LINE",
"-16 0 LINE"
);
},
{
closed = 1;
nodes = (
"314 688 LINE",
"461 904 LINE",
"295 904 LINE",
"157 688 LINE"
);
}
);
width = 531;
}
);
note = Lacute;
rightKerningGroup = L;
unicode = 0139;
},
{
glyphname = Lcaron;
lastChange = "2015-11-26 07:52:34 +0000";
layers = (
{
layerId = "DD5B64A7-4DAF-4BC4-A4CC-81A10E608EA1";
name = "Bold Italic";
paths = (
{
closed = 1;
nodes = (
"475 0 LINE",
"509 164 LINE",
"233 164 LINE",
"335 644 LINE",
"120 644 LINE",
"-16 0 LINE"
);
},
{
closed = 1;
nodes = (
"294 688 LINE",
"406 925 LINE",
"240 925 LINE",
"155 688 LINE"
);
}
);
width = 531;
}
);
note = Lcaron;
rightKerningGroup = L;
unicode = 013D;
},
{
glyphname = Lcommaaccent;
lastChange = "2015-11-26 07:52:35 +0000";
layers = (
{
layerId = "DD5B64A7-4DAF-4BC4-A4CC-81A10E608EA1";
name = "Bold Italic";
paths = (
{
closed = 1;
nodes = (
"475 0 LINE",
"509 164 LINE",
"233 164 LINE",
"335 644 LINE",
"120 644 LINE",
"-16 0 LINE"
);
},
{
closed = 1;
nodes = (
"221 -274 LINE",
"333 -37 LINE",
"167 -37 LINE",
"82 -274 LINE"
);
}
);
width = 531;
}
);
note = Lcommaaccent;
rightKerningGroup = L;
unicode = 013B;
},
{
glyphname = Ldot;
lastChange = "2015-11-26 07:52:35 +0000";
layers = (
{
layerId = "DD5B64A7-4DAF-4BC4-A4CC-81A10E608EA1";
name = "Bold Italic";
paths = (
{
closed = 1;
nodes = (
"475 0 LINE",
"509 164 LINE",
"233 164 LINE",
"335 644 LINE",
"120 644 LINE",
"-16 0 LINE"
);
},
{
closed = 1;
nodes = (
"494 300 LINE",
"521 431 LINE",
"378 431 LINE",
"351 300 LINE"
);
}
);
width = 531;
}
);
note = Ldot;
rightKerningGroup = L;
unicode = 013F;
},
{
glyphname = Ldotbelow;
lastChange = "2015-11-26 07:52:34 +0000";
layers = (
{
layerId = "DD5B64A7-4DAF-4BC4-A4CC-81A10E608EA1";
name = "Bold Italic";
paths = (
{
closed = 1;
nodes = (
"475 0 LINE",
"509 164 LINE",
"233 164 LINE",
"335 644 LINE",
"120 644 LINE",
"-16 0 LINE"
);
},
{
closed = 1;
nodes = (
"255 -175 LINE",
"283 -45 LINE",
"140 -45 LINE",
"112 -175 LINE"
);
}
);
width = 531;
}
);
note = Ldotbelow;
rightKerningGroup = L;
unicode = 1E36;
},
{
glyphname = Ldotbelowmacron;
lastChange = "2015-11-26 07:52:34 +0000";
layers = (
{
layerId = "DD5B64A7-4DAF-4BC4-A4CC-81A10E608EA1";
name = "Bold Italic";
paths = (
{
closed = 1;
nodes = (
"477 0 LINE",
"511 164 LINE",
"235 164 LINE",
"337 644 LINE",
"122 644 LINE",
"-14 0 LINE"
);
},
{
closed = 1;
nodes = (
"256 -175 LINE",
"284 -45 LINE",
"141 -45 LINE",
"113 -175 LINE"
);
},
{
closed = 1;
nodes = (
"412 717 LINE",
"439 843 LINE",
"101 843 LINE",
"74 717 LINE"
);
}
);
width = 533;
}
);
note = Ldotbelowmacron;
rightKerningGroup = L;
unicode = 1E38;
},
{
glyphname = Llinebelow;
lastChange = "2015-11-26 07:52:35 +0000";
layers = (
{
layerId = "DD5B64A7-4DAF-4BC4-A4CC-81A10E608EA1";
name = "Bold Italic";
paths = (
{
closed = 1;
nodes = (
"475 0 LINE",
"509 164 LINE",
"233 164 LINE",
"335 644 LINE",
"120 644 LINE",
"-16 0 LINE"
);
},
{
closed = 1;
nodes = (
"353 -175 LINE",
"380 -49 LINE",
"42 -49 LINE",
"15 -175 LINE"
);
}
);
width = 531;
}
);
note = Llinebelow;
rightKerningGroup = L;
unicode = 1E3A;
},
{
glyphname = Lslash;
lastChange = "2015-11-26 07:52:31 +0000";
layers = (
{
layerId = "DD5B64A7-4DAF-4BC4-A4CC-81A10E608EA1";
name = "Bold Italic";
paths = (
{
closed = 1;
nodes = (
"495 0 LINE",
"529 164 LINE",
"253 164 LINE",
"286 320 LINE",
"372 355 LINE",
"404 506 LINE",
"318 472 LINE",
"355 644 LINE",
"140 644 LINE",
"84 378 LINE",
"7 347 LINE",
"-25 196 LINE",
"52 227 LINE",
"4 0 LINE"
);
}
);
width = 552;
}
);
note = Lslash;
rightKerningGroup = L;
unicode = 0141;
},
{
glyphname = M;
lastChange = "2015-11-26 07:52:31 +0000";
layers = (
{
layerId = "DD5B64A7-4DAF-4BC4-A4CC-81A10E608EA1";
name = "Bold Italic";
paths = (
{
closed = 1;
nodes = (
"199 0 LINE",
"257 274 LINE",
"302 110 LINE",
"414 110 LINE",
"529 274 LINE",
"471 0 LINE",
"686 0 LINE",
"822 644 LINE",
"609 644 LINE",
"402 347 LINE",
"319 644 LINE",
"120 644 LINE",
"-16 0 LINE"
);
}
);
width = 782;
}
);
note = M;
unicode = 004D;
},
{
glyphname = Mdotbelow;
lastChange = "2015-11-26 07:52:36 +0000";
layers = (
{
layerId = "DD5B64A7-4DAF-4BC4-A4CC-81A10E608EA1";
name = "Bold Italic";
paths = (
{
closed = 1;
nodes = (
"199 0 LINE",
"257 274 LINE",
"302 110 LINE",
"414 110 LINE",
"529 274 LINE",
"471 0 LINE",
"686 0 LINE",
"822 644 LINE",
"609 644 LINE",
"402 347 LINE",
"319 644 LINE",
"120 644 LINE",
"-16 0 LINE"
);
},
{
closed = 1;
nodes = (
"371 -176 LINE",
"399 -46 LINE",
"256 -46 LINE",
"228 -176 LINE"
);
}
);
width = 782;
}
);
note = Mdotbelow;
unicode = 1E42;
},
{
glyphname = N;
lastChange = "2015-11-26 07:52:31 +0000";
layers = (
{
layerId = "DD5B64A7-4DAF-4BC4-A4CC-81A10E608EA1";
name = "Bold Italic";
paths = (
{
closed = 1;
nodes = (
"199 0 LINE",
"261 296 LINE",
"409 0 LINE",
"592 0 LINE",
"728 644 LINE",
"513 644 LINE",
"450 347 LINE",
"301 644 LINE",
"120 644 LINE",
"-16 0 LINE"
);
}
);
width = 688;
}
);
note = N;
unicode = 004E;
},
{
glyphname = Nacute;
lastChange = "2015-11-26 07:52:36 +0000";
layers = (
{
layerId = "DD5B64A7-4DAF-4BC4-A4CC-81A10E608EA1";
name = "Bold Italic";
paths = (
{
closed = 1;
nodes = (
"199 0 LINE",
"261 296 LINE",
"409 0 LINE",
"592 0 LINE",
"728 644 LINE",
"513 644 LINE",
"450 347 LINE",
"301 644 LINE",
"120 644 LINE",
"-16 0 LINE"
);
},
{
closed = 1;
nodes = (
"485 688 LINE",
"632 904 LINE",
"466 904 LINE",
"328 688 LINE"
);
}
);
width = 688;
}
);
note = Nacute;
unicode = 0143;
},
{
glyphname = Ncaron;
lastChange = "2015-11-26 07:52:36 +0000";
layers = (
{
layerId = "DD5B64A7-4DAF-4BC4-A4CC-81A10E608EA1";
name = "Bold Italic";
paths = (
{
closed = 1;
nodes = (
"199 0 LINE",
"261 296 LINE",
"409 0 LINE",
"592 0 LINE",
"728 644 LINE",
"513 644 LINE",
"450 347 LINE",
"301 644 LINE",
"120 644 LINE",
"-16 0 LINE"
);
},
{
closed = 1;
nodes = (
"492 688 LINE",
"701 896 LINE",
"543 896 LINE",
"444 788 LINE",
"394 896 LINE",
"245 896 LINE",
"366 688 LINE"
);
}
);
width = 688;
}
);
note = Ncaron;
unicode = 0147;
},
{
glyphname = Ncommaaccent;
lastChange = "2015-11-26 07:52:34 +0000";
layers = (
{
layerId = "DD5B64A7-4DAF-4BC4-A4CC-81A10E608EA1";
name = "Bold Italic";
paths = (
{
closed = 1;
nodes = (
"199 0 LINE",
"261 296 LINE",
"409 0 LINE",
"592 0 LINE",
"728 644 LINE",
"513 644 LINE",
"450 347 LINE",
"301 644 LINE",
"120 644 LINE",
"-16 0 LINE"
);
},
{
closed = 1;
nodes = (
"265 -274 LINE",
"377 -37 LINE",
"211 -37 LINE",
"126 -274 LINE"
);
}
);
width = 688;
}
);
note = Ncommaaccent;
unicode = 0145;
},
{
glyphname = Ndotaccent;
lastChange = "2015-11-26 07:52:36 +0000";
layers = (
{
layerId = "DD5B64A7-4DAF-4BC4-A4CC-81A10E608EA1";
name = "Bold Italic";
paths = (
{
closed = 1;
nodes = (
"199 0 LINE",
"261 296 LINE",
"409 0 LINE",
"592 0 LINE",
"728 644 LINE",
"513 644 LINE",
"450 347 LINE",
"301 644 LINE",
"120 644 LINE",
"-16 0 LINE"
);
},
{
closed = 1;
nodes = (
"509 716 LINE",
"536 847 LINE",
"393 847 LINE",
"366 716 LINE"
);
}
);
width = 688;
}
);
note = Ndotaccent;
unicode = 1E44;
},
{
glyphname = Ndotbelow;
lastChange = "2015-11-26 07:52:36 +0000";
layers = (
{
layerId = "DD5B64A7-4DAF-4BC4-A4CC-81A10E608EA1";
name = "Bold Italic";
paths = (
{
closed = 1;
nodes = (
"199 0 LINE",
"261 296 LINE",
"409 0 LINE",
"592 0 LINE",
"728 644 LINE",
"513 644 LINE",
"450 347 LINE",
"301 644 LINE",
"120 644 LINE",
"-16 0 LINE"
);
},
{
closed = 1;
nodes = (
"325 -176 LINE",
"353 -46 LINE",
"210 -46 LINE",
"182 -176 LINE"
);
}
);
width = 688;
}
);
note = Ndotbelow;
unicode = 1E46;
},
{
glyphname = Eng;
lastChange = "2015-11-26 07:52:31 +0000";
layers = (
{
layerId = "DD5B64A7-4DAF-4BC4-A4CC-81A10E608EA1";
name = "Bold Italic";
paths = (
{
closed = 1;
nodes = (
"497 -234 OFFCURVE",
"555 -170 OFFCURVE",
"580 -52 CURVE SMOOTH",
"728 644 LINE",
"512 644 LINE",
"449 347 LINE",
"301 644 LINE",
"120 644 LINE",
"-16 0 LINE",
"199 0 LINE",
"261 296 LINE",
"385 46 LINE",
"368 -37 LINE SMOOTH",
"361 -73 OFFCURVE",
"346 -84 OFFCURVE",
"304 -84 CURVE SMOOTH",
"284 -84 OFFCURVE",
"264 -81 OFFCURVE",
"246 -74 CURVE",
"217 -210 LINE",
"252 -226 OFFCURVE",
"293 -234 OFFCURVE",
"349 -234 CURVE SMOOTH"
);
}
);
width = 688;
}
);
note = Eng;
unicode = 014A;
},
{
glyphname = Nlinebelow;
lastChange = "2015-11-26 07:52:35 +0000";
layers = (
{
layerId = "DD5B64A7-4DAF-4BC4-A4CC-81A10E608EA1";
name = "Bold Italic";
paths = (
{
closed = 1;
nodes = (
"199 0 LINE",
"261 296 LINE",
"409 0 LINE",
"592 0 LINE",
"728 644 LINE",
"513 644 LINE",
"450 347 LINE",
"301 644 LINE",
"120 644 LINE",
"-16 0 LINE"
);
},
{
closed = 1;
nodes = (
"421 -176 LINE",
"448 -50 LINE",
"110 -50 LINE",
"83 -176 LINE"
);
}
);
width = 688;
}
);
note = Nlinebelow;
unicode = 1E48;
},
{
glyphname = Ntilde;
lastChange = "2015-11-26 07:52:34 +0000";
layers = (
{
layerId = "DD5B64A7-4DAF-4BC4-A4CC-81A10E608EA1";
name = "Bold Italic";
paths = (
{
closed = 1;
nodes = (
"199 0 LINE",
"261 296 LINE",
"409 0 LINE",
"592 0 LINE",
"728 644 LINE",
"513 644 LINE",
"450 347 LINE",
"301 644 LINE",
"120 644 LINE",
"-16 0 LINE"
);
},
{
closed = 1;
nodes = (
"585 694 OFFCURVE",
"625 710 OFFCURVE",
"642 728 CURVE",
"670 858 LINE",
"649 835 OFFCURVE",
"611 817 OFFCURVE",
"567 817 CURVE SMOOTH",
"501 817 OFFCURVE",
"455 860 OFFCURVE",
"385 860 CURVE SMOOTH",
"345 860 OFFCURVE",
"303 844 OFFCURVE",
"280 826 CURVE",
"252 697 LINE",
"282 721 OFFCURVE",
"318 737 OFFCURVE",
"362 737 CURVE SMOOTH",
"420 737 OFFCURVE",
"475 694 OFFCURVE",
"544 694 CURVE SMOOTH"
);
}
);
width = 688;
}
);
note = Ntilde;
unicode = 00D1;
},
{
glyphname = O;
lastChange = "2015-11-26 07:52:35 +0000";
layers = (
{
layerId = "DD5B64A7-4DAF-4BC4-A4CC-81A10E608EA1";
name = "Bold Italic";
paths = (
{
closed = 1;
nodes = (
"532 -10 OFFCURVE",
"655 83 OFFCURVE",
"706 321 CURVE SMOOTH",
"714 357 OFFCURVE",
"717 389 OFFCURVE",
"717 419 CURVE SMOOTH",
"717 580 OFFCURVE",
"610 654 OFFCURVE",
"440 654 CURVE SMOOTH",
"208 654 OFFCURVE",
"84 562 OFFCURVE",
"32 321 CURVE SMOOTH",
"24 285 OFFCURVE",
"21 253 OFFCURVE",
"21 223 CURVE SMOOTH",
"21 60 OFFCURVE",
"132 -10 OFFCURVE",
"298 -10 CURVE SMOOTH"
);
},
{
closed = 1;
nodes = (
"270 172 OFFCURVE",
"242 196 OFFCURVE",
"242 253 CURVE SMOOTH",
"242 272 OFFCURVE",
"245 294 OFFCURVE",
"251 321 CURVE SMOOTH",
"274 431 OFFCURVE",
"317 471 OFFCURVE",
"401 471 CURVE SMOOTH",
"468 471 OFFCURVE",
"495 449 OFFCURVE",
"495 391 CURVE SMOOTH",
"495 372 OFFCURVE",
"492 349 OFFCURVE",
"486 321 CURVE SMOOTH",
"463 215 OFFCURVE",
"420 172 OFFCURVE",
"337 172 CURVE SMOOTH"
);
}
);
width = 714;
}
);
leftKerningGroup = O;
note = O;
rightKerningGroup = O;
unicode = 004F;
},
{
glyphname = Oacute;
lastChange = "2015-11-26 07:52:35 +0000";
layers = (
{
layerId = "DD5B64A7-4DAF-4BC4-A4CC-81A10E608EA1";
name = "Bold Italic";
paths = (
{
closed = 1;
nodes = (
"532 -10 OFFCURVE",
"655 83 OFFCURVE",
"706 321 CURVE SMOOTH",
"714 357 OFFCURVE",
"717 389 OFFCURVE",
"717 419 CURVE SMOOTH",
"717 580 OFFCURVE",
"610 654 OFFCURVE",
"440 654 CURVE SMOOTH",
"208 654 OFFCURVE",
"84 562 OFFCURVE",
"32 321 CURVE SMOOTH",
"24 285 OFFCURVE",
"21 253 OFFCURVE",
"21 223 CURVE SMOOTH",
"21 60 OFFCURVE",
"132 -10 OFFCURVE",
"298 -10 CURVE SMOOTH"
);
},
{
closed = 1;
nodes = (
"270 172 OFFCURVE",
"242 196 OFFCURVE",
"242 253 CURVE SMOOTH",
"242 272 OFFCURVE",
"245 294 OFFCURVE",
"251 321 CURVE SMOOTH",
"274 431 OFFCURVE",
"317 471 OFFCURVE",
"401 471 CURVE SMOOTH",
"468 471 OFFCURVE",
"495 449 OFFCURVE",
"495 391 CURVE SMOOTH",
"495 372 OFFCURVE",
"492 349 OFFCURVE",
"486 321 CURVE SMOOTH",
"463 215 OFFCURVE",
"420 172 OFFCURVE",
"337 172 CURVE SMOOTH"
);
},
{
closed = 1;
nodes = (
"509 688 LINE",
"656 904 LINE",
"490 904 LINE",
"352 688 LINE"
);
}
);
width = 714;
}
);
leftKerningGroup = O;
note = Oacute;
rightKerningGroup = O;
unicode = 00D3;
},
{
glyphname = Obreve;
lastChange = "2015-11-26 07:52:35 +0000";
layers = (
{
layerId = "DD5B64A7-4DAF-4BC4-A4CC-81A10E608EA1";
name = "Bold Italic";
paths = (
{
closed = 1;
nodes = (
"532 -10 OFFCURVE",
"655 83 OFFCURVE",
"706 321 CURVE SMOOTH",
"714 357 OFFCURVE",
"717 389 OFFCURVE",
"717 419 CURVE SMOOTH",
"717 580 OFFCURVE",
"610 654 OFFCURVE",
"440 654 CURVE SMOOTH",
"208 654 OFFCURVE",
"84 562 OFFCURVE",
"32 321 CURVE SMOOTH",
"24 285 OFFCURVE",
"21 253 OFFCURVE",
"21 223 CURVE SMOOTH",
"21 60 OFFCURVE",
"132 -10 OFFCURVE",
"298 -10 CURVE SMOOTH"
);
},
{
closed = 1;
nodes = (
"270 172 OFFCURVE",
"242 196 OFFCURVE",
"242 253 CURVE SMOOTH",
"242 272 OFFCURVE",
"245 294 OFFCURVE",
"251 321 CURVE SMOOTH",
"274 431 OFFCURVE",
"317 471 OFFCURVE",
"401 471 CURVE SMOOTH",
"468 471 OFFCURVE",
"495 449 OFFCURVE",
"495 391 CURVE SMOOTH",
"495 372 OFFCURVE",
"492 349 OFFCURVE",
"486 321 CURVE SMOOTH",
"463 215 OFFCURVE",
"420 172 OFFCURVE",
"337 172 CURVE SMOOTH"
);
},
{
closed = 1;
nodes = (
"579 688 OFFCURVE",
"667 760 OFFCURVE",
"695 892 CURVE",
"551 892 LINE",
"541 845 OFFCURVE",
"524 806 OFFCURVE",
"466 806 CURVE SMOOTH",
"426 806 OFFCURVE",
"414 827 OFFCURVE",
"414 857 CURVE SMOOTH",
"414 868 OFFCURVE",
"415 879 OFFCURVE",
"418 892 CURVE",
"286 892 LINE",
"282 872 OFFCURVE",
"280 853 OFFCURVE",
"280 835 CURVE SMOOTH",
"280 740 OFFCURVE",
"343 688 OFFCURVE",
"446 688 CURVE SMOOTH"
);
}
);
width = 714;
}
);
leftKerningGroup = O;
note = Obreve;
rightKerningGroup = O;
unicode = 014E;
},
{
glyphname = Ocaron;
lastChange = "2015-11-26 07:52:34 +0000";
layers = (
{
layerId = "DD5B64A7-4DAF-4BC4-A4CC-81A10E608EA1";
name = "Bold Italic";
paths = (
{
closed = 1;
nodes = (
"532 -10 OFFCURVE",
"655 83 OFFCURVE",
"706 321 CURVE SMOOTH",
"714 357 OFFCURVE",
"717 389 OFFCURVE",
"717 419 CURVE SMOOTH",
"717 580 OFFCURVE",
"610 654 OFFCURVE",
"440 654 CURVE SMOOTH",
"208 654 OFFCURVE",
"84 562 OFFCURVE",
"32 321 CURVE SMOOTH",
"24 285 OFFCURVE",
"21 253 OFFCURVE",
"21 223 CURVE SMOOTH",
"21 60 OFFCURVE",
"132 -10 OFFCURVE",
"298 -10 CURVE SMOOTH"
);
},
{
closed = 1;
nodes = (
"270 172 OFFCURVE",
"242 196 OFFCURVE",
"242 253 CURVE SMOOTH",
"242 272 OFFCURVE",
"245 294 OFFCURVE",
"251 321 CURVE SMOOTH",
"274 431 OFFCURVE",
"317 471 OFFCURVE",
"401 471 CURVE SMOOTH",
"468 471 OFFCURVE",
"495 449 OFFCURVE",
"495 391 CURVE SMOOTH",
"495 372 OFFCURVE",
"492 349 OFFCURVE",
"486 321 CURVE SMOOTH",
"463 215 OFFCURVE",
"420 172 OFFCURVE",
"337 172 CURVE SMOOTH"
);
},
{
closed = 1;
nodes = (
"509 688 LINE",
"718 896 LINE",
"560 896 LINE",
"461 788 LINE",
"411 896 LINE",
"262 896 LINE",
"383 688 LINE"
);
}
);
width = 714;
}
);
leftKerningGroup = O;
note = Ocaron;
rightKerningGroup = O;
unicode = 01D1;
},
{
glyphname = Ocircumflex;
lastChange = "2015-11-26 07:52:35 +0000";
layers = (
{
layerId = "DD5B64A7-4DAF-4BC4-A4CC-81A10E608EA1";
name = "Bold Italic";
paths = (
{
closed = 1;
nodes = (
"532 -10 OFFCURVE",
"655 83 OFFCURVE",
"706 321 CURVE SMOOTH",
"714 357 OFFCURVE",
"717 389 OFFCURVE",
"717 419 CURVE SMOOTH",
"717 580 OFFCURVE",
"610 654 OFFCURVE",
"440 654 CURVE SMOOTH",
"208 654 OFFCURVE",
"84 562 OFFCURVE",
"32 321 CURVE SMOOTH",
"24 285 OFFCURVE",
"21 253 OFFCURVE",
"21 223 CURVE SMOOTH",
"21 60 OFFCURVE",
"132 -10 OFFCURVE",
"298 -10 CURVE SMOOTH"
);
},
{
closed = 1;
nodes = (
"270 172 OFFCURVE",
"242 196 OFFCURVE",
"242 253 CURVE SMOOTH",
"242 272 OFFCURVE",
"245 294 OFFCURVE",
"251 321 CURVE SMOOTH",
"274 431 OFFCURVE",
"317 471 OFFCURVE",
"401 471 CURVE SMOOTH",
"468 471 OFFCURVE",
"495 449 OFFCURVE",
"495 391 CURVE SMOOTH",
"495 372 OFFCURVE",
"492 349 OFFCURVE",
"486 321 CURVE SMOOTH",
"463 215 OFFCURVE",
"420 172 OFFCURVE",
"337 172 CURVE SMOOTH"
);
},
{
closed = 1;
nodes = (
"381 688 LINE",
"476 796 LINE",
"529 688 LINE",
"675 688 LINE",
"554 896 LINE",
"427 896 LINE",
"219 688 LINE"
);
}
);
width = 714;
}
);
leftKerningGroup = O;
note = Ocircumflex;
rightKerningGroup = O;
unicode = 00D4;
},
{
glyphname = Ocircumflexacute;
lastChange = "2015-11-26 07:52:35 +0000";
layers = (
{
layerId = "DD5B64A7-4DAF-4BC4-A4CC-81A10E608EA1";
name = "Bold Italic";
paths = (
{
closed = 1;
nodes = (
"532 -10 OFFCURVE",
"655 83 OFFCURVE",
"706 321 CURVE SMOOTH",
"714 357 OFFCURVE",
"717 389 OFFCURVE",
"717 419 CURVE SMOOTH",
"717 580 OFFCURVE",
"610 654 OFFCURVE",
"440 654 CURVE SMOOTH",
"208 654 OFFCURVE",
"84 562 OFFCURVE",
"32 321 CURVE SMOOTH",
"24 285 OFFCURVE",
"21 253 OFFCURVE",
"21 223 CURVE SMOOTH",
"21 60 OFFCURVE",
"132 -10 OFFCURVE",
"298 -10 CURVE SMOOTH"
);
},
{
closed = 1;
nodes = (
"270 172 OFFCURVE",
"242 196 OFFCURVE",
"242 253 CURVE SMOOTH",
"242 272 OFFCURVE",
"245 294 OFFCURVE",
"251 321 CURVE SMOOTH",
"274 431 OFFCURVE",
"317 471 OFFCURVE",
"401 471 CURVE SMOOTH",
"468 471 OFFCURVE",
"495 449 OFFCURVE",
"495 391 CURVE SMOOTH",
"495 372 OFFCURVE",
"492 349 OFFCURVE",
"486 321 CURVE SMOOTH",
"463 215 OFFCURVE",
"420 172 OFFCURVE",
"337 172 CURVE SMOOTH"
);
},
{
closed = 1;
nodes = (
"393 688 LINE",
"466 765 LINE",
"509 688 LINE",
"672 688 LINE",
"557 848 LINE",
"401 848 LINE",
"217 688 LINE"
);
},
{
closed = 1;
nodes = (
"754 816 LINE",
"869 980 LINE",
"712 980 LINE",
"605 816 LINE"
);
}
);
width = 714;
}
);
leftKerningGroup = O;
note = Ocircumflexacute;
rightKerningGroup = O;
unicode = 1ED0;
},
{
glyphname = Ocircumflexdotbelow;
lastChange = "2015-11-26 07:52:34 +0000";
layers = (
{
layerId = "DD5B64A7-4DAF-4BC4-A4CC-81A10E608EA1";
name = "Bold Italic";
paths = (
{
closed = 1;
nodes = (
"532 -10 OFFCURVE",
"655 83 OFFCURVE",
"706 321 CURVE SMOOTH",
"714 357 OFFCURVE",
"717 389 OFFCURVE",
"717 419 CURVE SMOOTH",
"717 580 OFFCURVE",
"610 654 OFFCURVE",
"440 654 CURVE SMOOTH",
"208 654 OFFCURVE",
"84 562 OFFCURVE",
"32 321 CURVE SMOOTH",
"24 285 OFFCURVE",
"21 253 OFFCURVE",
"21 223 CURVE SMOOTH",
"21 60 OFFCURVE",
"132 -10 OFFCURVE",
"298 -10 CURVE SMOOTH"
);
},
{
closed = 1;
nodes = (
"337 -176 LINE",
"365 -46 LINE",
"222 -46 LINE",
"194 -176 LINE"
);
},
{
closed = 1;
nodes = (
"270 172 OFFCURVE",
"242 196 OFFCURVE",
"242 253 CURVE SMOOTH",
"242 272 OFFCURVE",
"245 294 OFFCURVE",
"251 321 CURVE SMOOTH",
"274 431 OFFCURVE",
"317 471 OFFCURVE",
"401 471 CURVE SMOOTH",
"468 471 OFFCURVE",
"495 449 OFFCURVE",
"495 391 CURVE SMOOTH",
"495 372 OFFCURVE",
"492 349 OFFCURVE",
"486 321 CURVE SMOOTH",
"463 215 OFFCURVE",
"420 172 OFFCURVE",
"337 172 CURVE SMOOTH"
);
},
{
closed = 1;
nodes = (
"381 688 LINE",
"476 796 LINE",
"529 688 LINE",
"675 688 LINE",
"554 896 LINE",
"427 896 LINE",
"219 688 LINE"
);
}
);
width = 714;
}
);
leftKerningGroup = O;
note = Ocircumflexdotbelow;
rightKerningGroup = O;
unicode = 1ED8;
},
{
glyphname = Ocircumflexgrave;
lastChange = "2015-11-26 07:52:34 +0000";
layers = (
{
layerId = "DD5B64A7-4DAF-4BC4-A4CC-81A10E608EA1";
name = "Bold Italic";
paths = (
{
closed = 1;
nodes = (
"532 -10 OFFCURVE",
"655 83 OFFCURVE",
"706 321 CURVE SMOOTH",
"714 357 OFFCURVE",
"717 389 OFFCURVE",
"717 419 CURVE SMOOTH",
"717 580 OFFCURVE",
"610 654 OFFCURVE",
"440 654 CURVE SMOOTH",
"208 654 OFFCURVE",
"84 562 OFFCURVE",
"32 321 CURVE SMOOTH",
"24 285 OFFCURVE",
"21 253 OFFCURVE",
"21 223 CURVE SMOOTH",
"21 60 OFFCURVE",
"132 -10 OFFCURVE",
"298 -10 CURVE SMOOTH"
);
},
{
closed = 1;
nodes = (
"270 172 OFFCURVE",
"242 196 OFFCURVE",
"242 253 CURVE SMOOTH",
"242 272 OFFCURVE",
"245 294 OFFCURVE",
"251 321 CURVE SMOOTH",
"274 431 OFFCURVE",
"317 471 OFFCURVE",
"401 471 CURVE SMOOTH",
"468 471 OFFCURVE",
"495 449 OFFCURVE",
"495 391 CURVE SMOOTH",
"495 372 OFFCURVE",
"492 349 OFFCURVE",
"486 321 CURVE SMOOTH",
"463 215 OFFCURVE",
"420 172 OFFCURVE",
"337 172 CURVE SMOOTH"
);
},
{
closed = 1;
nodes = (
"343 816 LINE",
"305 980 LINE",
"147 980 LINE",
"193 816 LINE"
);
},
{
closed = 1;
nodes = (
"393 688 LINE",
"468 765 LINE",
"510 688 LINE",
"676 688 LINE",
"561 848 LINE",
"404 848 LINE",
"220 688 LINE"
);
}
);
width = 714;
}
);
leftKerningGroup = O;
note = Ocircumflexgrave;
rightKerningGroup = O;
unicode = 1ED2;
},
{
glyphname = Ocircumflexhookabove;
lastChange = "2015-11-26 07:52:34 +0000";
layers = (
{
layerId = "DD5B64A7-4DAF-4BC4-A4CC-81A10E608EA1";
name = "Bold Italic";
paths = (
{
closed = 1;
nodes = (
"532 -10 OFFCURVE",
"655 83 OFFCURVE",
"706 321 CURVE SMOOTH",
"714 357 OFFCURVE",
"717 389 OFFCURVE",
"717 419 CURVE SMOOTH",
"717 580 OFFCURVE",
"610 654 OFFCURVE",
"440 654 CURVE SMOOTH",
"208 654 OFFCURVE",
"84 562 OFFCURVE",
"32 321 CURVE SMOOTH",
"24 285 OFFCURVE",
"21 253 OFFCURVE",
"21 223 CURVE SMOOTH",
"21 60 OFFCURVE",
"132 -10 OFFCURVE",
"298 -10 CURVE SMOOTH"
);
},
{
closed = 1;
nodes = (
"270 172 OFFCURVE",
"242 196 OFFCURVE",
"242 253 CURVE SMOOTH",
"242 272 OFFCURVE",
"245 294 OFFCURVE",
"251 321 CURVE SMOOTH",
"274 431 OFFCURVE",
"317 471 OFFCURVE",
"401 471 CURVE SMOOTH",
"468 471 OFFCURVE",
"495 449 OFFCURVE",
"495 391 CURVE SMOOTH",
"495 372 OFFCURVE",
"492 349 OFFCURVE",
"486 321 CURVE SMOOTH",
"463 215 OFFCURVE",
"420 172 OFFCURVE",
"337 172 CURVE SMOOTH"
);
},
{
closed = 1;
nodes = (
"392 688 LINE",
"466 765 LINE",
"509 688 LINE",
"672 688 LINE",
"557 848 LINE",
"400 848 LINE",
"216 688 LINE"
);
},
{
closed = 1;
nodes = (
"750 793 LINE",
"757 825 LINE",
"808 834 OFFCURVE",
"836 866 OFFCURVE",
"846 912 CURVE SMOOTH",
"847 918 OFFCURVE",
"848 924 OFFCURVE",
"848 930 CURVE SMOOTH",
"848 972 OFFCURVE",
"813 1001 OFFCURVE",
"741 1001 CURVE SMOOTH",
"696 1001 OFFCURVE",
"658 996 OFFCURVE",
"632 989 CURVE",
"614 907 LINE",
"629 911 OFFCURVE",
"648 915 OFFCURVE",
"665 915 CURVE SMOOTH",
"687 915 OFFCURVE",
"699 912 OFFCURVE",
"699 901 CURVE SMOOTH",
"699 884 OFFCURVE",
"686 871 OFFCURVE",
"626 870 CURVE",
"610 793 LINE"
);
}
);
width = 714;
}
);
leftKerningGroup = O;
note = Ocircumflexhookabove;
rightKerningGroup = O;
unicode = 1ED4;
},
{
glyphname = Ocircumflextilde;
lastChange = "2015-11-26 07:52:35 +0000";
layers = (
{
layerId = "DD5B64A7-4DAF-4BC4-A4CC-81A10E608EA1";
name = "Bold Italic";
paths = (
{
closed = 1;
nodes = (
"532 -10 OFFCURVE",
"655 83 OFFCURVE",
"706 321 CURVE SMOOTH",
"714 357 OFFCURVE",
"717 389 OFFCURVE",
"717 419 CURVE SMOOTH",
"717 580 OFFCURVE",
"610 654 OFFCURVE",
"440 654 CURVE SMOOTH",
"208 654 OFFCURVE",
"84 562 OFFCURVE",
"32 321 CURVE SMOOTH",
"24 285 OFFCURVE",
"21 253 OFFCURVE",
"21 223 CURVE SMOOTH",
"21 60 OFFCURVE",
"132 -10 OFFCURVE",
"298 -10 CURVE SMOOTH"
);
},
{
closed = 1;
nodes = (
"270 172 OFFCURVE",
"242 196 OFFCURVE",
"242 253 CURVE SMOOTH",
"242 272 OFFCURVE",
"245 294 OFFCURVE",
"251 321 CURVE SMOOTH",
"274 431 OFFCURVE",
"317 471 OFFCURVE",
"401 471 CURVE SMOOTH",
"468 471 OFFCURVE",
"495 449 OFFCURVE",
"495 391 CURVE SMOOTH",
"495 372 OFFCURVE",
"492 349 OFFCURVE",
"486 321 CURVE SMOOTH",
"463 215 OFFCURVE",
"420 172 OFFCURVE",
"337 172 CURVE SMOOTH"
);
},
{
closed = 1;
nodes = (
"567 688 OFFCURVE",
"649 743 OFFCURVE",
"675 868 CURVE",
"553 868 LINE",
"545 822 OFFCURVE",
"520 792 OFFCURVE",
"466 792 CURVE SMOOTH",
"425 792 OFFCURVE",
"408 807 OFFCURVE",
"408 838 CURVE SMOOTH",
"408 847 OFFCURVE",
"410 857 OFFCURVE",
"412 868 CURVE",
"295 868 LINE",
"292 851 OFFCURVE",
"290 836 OFFCURVE",
"290 822 CURVE SMOOTH",
"290 731 OFFCURVE",
"355 688 OFFCURVE",
"447 688 CURVE SMOOTH"
);
},
{
closed = 1;
nodes = (
"623 889 OFFCURVE",
"660 904 OFFCURVE",
"676 921 CURVE",
"698 1027 LINE",
"678 1004 OFFCURVE",
"643 988 OFFCURVE",
"602 988 CURVE SMOOTH",
"542 988 OFFCURVE",
"499 1029 OFFCURVE",
"434 1029 CURVE SMOOTH",
"396 1029 OFFCURVE",
"357 1015 OFFCURVE",
"336 997 CURVE",
"313 892 LINE",
"341 916 OFFCURVE",
"375 930 OFFCURVE",
"416 930 CURVE SMOOTH",
"470 930 OFFCURVE",
"521 889 OFFCURVE",
"584 889 CURVE SMOOTH"
);
}
);
width = 714;
}
);
leftKerningGroup = O;
note = Ocircumflextilde;
rightKerningGroup = O;
unicode = 1ED6;
},
{
glyphname = Odieresis;
lastChange = "2015-11-26 07:52:36 +0000";
layers = (
{
layerId = "DD5B64A7-4DAF-4BC4-A4CC-81A10E608EA1";
name = "Bold Italic";
paths = (
{
closed = 1;
nodes = (
"532 -10 OFFCURVE",
"655 83 OFFCURVE",
"706 321 CURVE SMOOTH",
"714 357 OFFCURVE",
"717 389 OFFCURVE",
"717 419 CURVE SMOOTH",
"717 580 OFFCURVE",
"610 654 OFFCURVE",
"440 654 CURVE SMOOTH",
"208 654 OFFCURVE",
"84 562 OFFCURVE",
"32 321 CURVE SMOOTH",
"24 285 OFFCURVE",
"21 253 OFFCURVE",
"21 223 CURVE SMOOTH",
"21 60 OFFCURVE",
"132 -10 OFFCURVE",
"298 -10 CURVE SMOOTH"
);
},
{
closed = 1;
nodes = (
"270 172 OFFCURVE",
"242 196 OFFCURVE",
"242 253 CURVE SMOOTH",
"242 272 OFFCURVE",
"245 294 OFFCURVE",
"251 321 CURVE SMOOTH",
"274 431 OFFCURVE",
"317 471 OFFCURVE",
"401 471 CURVE SMOOTH",
"468 471 OFFCURVE",
"495 449 OFFCURVE",
"495 391 CURVE SMOOTH",
"495 372 OFFCURVE",
"492 349 OFFCURVE",
"486 321 CURVE SMOOTH",
"463 215 OFFCURVE",
"420 172 OFFCURVE",
"337 172 CURVE SMOOTH"
);
},
{
closed = 1;
nodes = (
"412 716 LINE",
"439 847 LINE",
"296 847 LINE",
"269 716 LINE"
);
},
{
closed = 1;
nodes = (
"637 716 LINE",
"664 847 LINE",
"521 847 LINE",
"494 716 LINE"
);
}
);
width = 714;
}
);
leftKerningGroup = O;
note = Odieresis;
rightKerningGroup = O;
unicode = 00D6;
},
{
glyphname = Odotbelow;
lastChange = "2015-11-26 07:52:34 +0000";
layers = (
{
layerId = "DD5B64A7-4DAF-4BC4-A4CC-81A10E608EA1";
name = "Bold Italic";
paths = (
{
closed = 1;
nodes = (
"532 -10 OFFCURVE",
"655 83 OFFCURVE",
"706 321 CURVE SMOOTH",
"714 357 OFFCURVE",
"717 389 OFFCURVE",
"717 419 CURVE SMOOTH",
"717 580 OFFCURVE",
"610 654 OFFCURVE",
"440 654 CURVE SMOOTH",
"208 654 OFFCURVE",
"84 562 OFFCURVE",
"32 321 CURVE SMOOTH",
"24 285 OFFCURVE",
"21 253 OFFCURVE",
"21 223 CURVE SMOOTH",
"21 60 OFFCURVE",
"132 -10 OFFCURVE",
"298 -10 CURVE SMOOTH"
);
},
{
closed = 1;
nodes = (
"336 -176 LINE",
"364 -46 LINE",
"221 -46 LINE",
"193 -176 LINE"
);
},
{
closed = 1;
nodes = (
"270 172 OFFCURVE",
"242 196 OFFCURVE",
"242 253 CURVE SMOOTH",
"242 272 OFFCURVE",
"245 294 OFFCURVE",
"251 321 CURVE SMOOTH",
"274 431 OFFCURVE",
"317 471 OFFCURVE",
"401 471 CURVE SMOOTH",
"468 471 OFFCURVE",
"495 449 OFFCURVE",
"495 391 CURVE SMOOTH",
"495 372 OFFCURVE",
"492 349 OFFCURVE",
"486 321 CURVE SMOOTH",
"463 215 OFFCURVE",
"420 172 OFFCURVE",
"337 172 CURVE SMOOTH"
);
}
);
width = 714;
}
);
leftKerningGroup = O;
note = Odotbelow;
rightKerningGroup = O;
unicode = 1ECC;
},
{
glyphname = Ograve;
lastChange = "2015-11-26 07:52:35 +0000";
layers = (
{
layerId = "DD5B64A7-4DAF-4BC4-A4CC-81A10E608EA1";
name = "Bold Italic";
paths = (
{
closed = 1;
nodes = (
"532 -10 OFFCURVE",
"655 83 OFFCURVE",
"706 321 CURVE SMOOTH",
"714 357 OFFCURVE",
"717 389 OFFCURVE",
"717 419 CURVE SMOOTH",
"717 580 OFFCURVE",
"610 654 OFFCURVE",
"440 654 CURVE SMOOTH",
"208 654 OFFCURVE",
"84 562 OFFCURVE",
"32 321 CURVE SMOOTH",
"24 285 OFFCURVE",
"21 253 OFFCURVE",
"21 223 CURVE SMOOTH",
"21 60 OFFCURVE",
"132 -10 OFFCURVE",
"298 -10 CURVE SMOOTH"
);
},
{
closed = 1;
nodes = (
"270 172 OFFCURVE",
"242 196 OFFCURVE",
"242 253 CURVE SMOOTH",
"242 272 OFFCURVE",
"245 294 OFFCURVE",
"251 321 CURVE SMOOTH",
"274 431 OFFCURVE",
"317 471 OFFCURVE",
"401 471 CURVE SMOOTH",
"468 471 OFFCURVE",
"495 449 OFFCURVE",
"495 391 CURVE SMOOTH",
"495 372 OFFCURVE",
"492 349 OFFCURVE",
"486 321 CURVE SMOOTH",
"463 215 OFFCURVE",
"420 172 OFFCURVE",
"337 172 CURVE SMOOTH"
);
},
{
closed = 1;
nodes = (
"531 688 LINE",
"485 904 LINE",
"318 904 LINE",
"373 688 LINE"
);
}
);
width = 714;
}
);
leftKerningGroup = O;
note = Ograve;
rightKerningGroup = O;
unicode = 00D2;
},
{
glyphname = Ohookabove;
lastChange = "2015-11-26 07:52:35 +0000";
layers = (
{
layerId = "DD5B64A7-4DAF-4BC4-A4CC-81A10E608EA1";
name = "Bold Italic";
paths = (
{
closed = 1;
nodes = (
"532 -10 OFFCURVE",
"655 83 OFFCURVE",
"706 321 CURVE SMOOTH",
"714 357 OFFCURVE",
"717 389 OFFCURVE",
"717 419 CURVE SMOOTH",
"717 580 OFFCURVE",
"610 654 OFFCURVE",
"440 654 CURVE SMOOTH",
"208 654 OFFCURVE",
"84 562 OFFCURVE",
"32 321 CURVE SMOOTH",
"24 285 OFFCURVE",
"21 253 OFFCURVE",
"21 223 CURVE SMOOTH",
"21 60 OFFCURVE",
"132 -10 OFFCURVE",
"298 -10 CURVE SMOOTH"
);
},
{
closed = 1;
nodes = (
"270 172 OFFCURVE",
"242 196 OFFCURVE",
"242 253 CURVE SMOOTH",
"242 272 OFFCURVE",
"245 294 OFFCURVE",
"251 321 CURVE SMOOTH",
"274 431 OFFCURVE",
"317 471 OFFCURVE",
"401 471 CURVE SMOOTH",
"468 471 OFFCURVE",
"495 449 OFFCURVE",
"495 391 CURVE SMOOTH",
"495 372 OFFCURVE",
"492 349 OFFCURVE",
"486 321 CURVE SMOOTH",
"463 215 OFFCURVE",
"420 172 OFFCURVE",
"337 172 CURVE SMOOTH"
);
},
{
closed = 1;
nodes = (
"521 688 LINE",
"529 726 LINE",
"589 743 OFFCURVE",
"621 769 OFFCURVE",
"634 828 CURVE SMOOTH",
"636 835 OFFCURVE",
"636 842 OFFCURVE",
"636 848 CURVE SMOOTH",
"636 898 OFFCURVE",
"593 932 OFFCURVE",
"510 932 CURVE SMOOTH",
"457 932 OFFCURVE",
"416 927 OFFCURVE",
"384 918 CURVE",
"366 832 LINE",
"383 837 OFFCURVE",
"406 841 OFFCURVE",
"426 841 CURVE SMOOTH",
"458 841 OFFCURVE",
"475 834 OFFCURVE",
"475 817 CURVE SMOOTH",
"475 791 OFFCURVE",
"453 773 OFFCURVE",
"378 769 CURVE",
"361 688 LINE"
);
}
);
width = 714;
}
);
leftKerningGroup = O;
note = Ohookabove;
rightKerningGroup = O;
unicode = 1ECE;
},
{
glyphname = Ohorn;
lastChange = "2015-11-26 07:52:35 +0000";
layers = (
{
layerId = "DD5B64A7-4DAF-4BC4-A4CC-81A10E608EA1";
name = "Bold Italic";
paths = (
{
closed = 1;
nodes = (
"532 -10 OFFCURVE",
"655 83 OFFCURVE",
"706 321 CURVE SMOOTH",
"713 356 OFFCURVE",
"717 387 OFFCURVE",
"717 417 CURVE SMOOTH",
"717 439 OFFCURVE",
"715 459 OFFCURVE",
"711 478 CURVE",
"806 500 OFFCURVE",
"857 559 OFFCURVE",
"885 688 CURVE",
"752 688 LINE",
"737 618 OFFCURVE",
"710 593 OFFCURVE",
"650 590 CURVE",
"601 633 OFFCURVE",
"529 654 OFFCURVE",
"440 654 CURVE SMOOTH",
"208 654 OFFCURVE",
"84 562 OFFCURVE",
"32 321 CURVE SMOOTH",
"24 285 OFFCURVE",
"21 253 OFFCURVE",
"21 223 CURVE SMOOTH",
"21 60 OFFCURVE",
"132 -10 OFFCURVE",
"298 -10 CURVE SMOOTH"
);
},
{
closed = 1;
nodes = (
"270 172 OFFCURVE",
"242 196 OFFCURVE",
"242 253 CURVE SMOOTH",
"242 272 OFFCURVE",
"245 294 OFFCURVE",
"251 321 CURVE SMOOTH",
"274 431 OFFCURVE",
"317 471 OFFCURVE",
"401 471 CURVE SMOOTH",
"468 471 OFFCURVE",
"495 449 OFFCURVE",
"495 391 CURVE SMOOTH",
"495 372 OFFCURVE",
"492 349 OFFCURVE",
"486 321 CURVE SMOOTH",
"463 215 OFFCURVE",
"420 172 OFFCURVE",
"337 172 CURVE SMOOTH"
);
}
);
width = 805;
}
);
leftKerningGroup = O;
note = Ohorn;
rightKerningGroup = O;
unicode = 01A0;
},
{
glyphname = Ohornacute;
lastChange = "2015-11-26 07:52:35 +0000";
layers = (
{
layerId = "DD5B64A7-4DAF-4BC4-A4CC-81A10E608EA1";
name = "Bold Italic";
paths = (
{
closed = 1;
nodes = (
"532 -10 OFFCURVE",
"655 83 OFFCURVE",
"706 321 CURVE SMOOTH",
"713 356 OFFCURVE",
"717 387 OFFCURVE",
"717 417 CURVE SMOOTH",
"717 439 OFFCURVE",
"715 459 OFFCURVE",
"711 478 CURVE",
"806 500 OFFCURVE",
"857 559 OFFCURVE",
"885 688 CURVE",
"752 688 LINE",
"737 618 OFFCURVE",
"710 593 OFFCURVE",
"650 590 CURVE",
"601 633 OFFCURVE",
"529 654 OFFCURVE",
"440 654 CURVE SMOOTH",
"208 654 OFFCURVE",
"84 562 OFFCURVE",
"32 321 CURVE SMOOTH",
"24 285 OFFCURVE",
"21 253 OFFCURVE",
"21 223 CURVE SMOOTH",
"21 60 OFFCURVE",
"132 -10 OFFCURVE",
"298 -10 CURVE SMOOTH"
);
},
{
closed = 1;
nodes = (
"270 172 OFFCURVE",
"242 196 OFFCURVE",
"242 253 CURVE SMOOTH",
"242 272 OFFCURVE",
"245 294 OFFCURVE",
"251 321 CURVE SMOOTH",
"274 431 OFFCURVE",
"317 471 OFFCURVE",
"401 471 CURVE SMOOTH",
"468 471 OFFCURVE",
"495 449 OFFCURVE",
"495 391 CURVE SMOOTH",
"495 372 OFFCURVE",
"492 349 OFFCURVE",
"486 321 CURVE SMOOTH",
"463 215 OFFCURVE",
"420 172 OFFCURVE",
"337 172 CURVE SMOOTH"
);
},
{
closed = 1;
nodes = (
"525 688 LINE",
"672 904 LINE",
"506 904 LINE",
"368 688 LINE"
);
}
);
width = 805;
}
);
leftKerningGroup = O;
note = Ohornacute;
rightKerningGroup = O;
unicode = 1EDA;
},
{
glyphname = Ohorndotbelow;
lastChange = "2015-11-26 07:52:34 +0000";
layers = (
{
layerId = "DD5B64A7-4DAF-4BC4-A4CC-81A10E608EA1";
name = "Bold Italic";
paths = (
{
closed = 1;
nodes = (
"532 -10 OFFCURVE",
"655 83 OFFCURVE",
"706 321 CURVE SMOOTH",
"713 356 OFFCURVE",
"717 387 OFFCURVE",
"717 417 CURVE SMOOTH",
"717 439 OFFCURVE",
"715 459 OFFCURVE",
"711 478 CURVE",
"806 500 OFFCURVE",
"857 559 OFFCURVE",
"885 688 CURVE",
"752 688 LINE",
"737 618 OFFCURVE",
"710 593 OFFCURVE",
"650 590 CURVE",
"601 633 OFFCURVE",
"529 654 OFFCURVE",
"440 654 CURVE SMOOTH",
"208 654 OFFCURVE",
"84 562 OFFCURVE",
"32 321 CURVE SMOOTH",
"24 285 OFFCURVE",
"21 253 OFFCURVE",
"21 223 CURVE SMOOTH",
"21 60 OFFCURVE",
"132 -10 OFFCURVE",
"298 -10 CURVE SMOOTH"
);
},
{
closed = 1;
nodes = (
"335 -176 LINE",
"363 -46 LINE",
"220 -46 LINE",
"192 -176 LINE"
);
},
{
closed = 1;
nodes = (
"270 172 OFFCURVE",
"242 196 OFFCURVE",
"242 253 CURVE SMOOTH",
"242 272 OFFCURVE",
"245 294 OFFCURVE",
"251 321 CURVE SMOOTH",
"274 431 OFFCURVE",
"317 471 OFFCURVE",
"401 471 CURVE SMOOTH",
"468 471 OFFCURVE",
"495 449 OFFCURVE",
"495 391 CURVE SMOOTH",
"495 372 OFFCURVE",
"492 349 OFFCURVE",
"486 321 CURVE SMOOTH",
"463 215 OFFCURVE",
"420 172 OFFCURVE",
"337 172 CURVE SMOOTH"
);
}
);
width = 805;
}
);
leftKerningGroup = O;
note = Ohorndotbelow;
rightKerningGroup = O;
unicode = 1EE2;
},
{
glyphname = Ohorngrave;
lastChange = "2015-11-26 07:52:34 +0000";
layers = (
{
layerId = "DD5B64A7-4DAF-4BC4-A4CC-81A10E608EA1";
name = "Bold Italic";
paths = (
{
closed = 1;
nodes = (
"532 -10 OFFCURVE",
"655 83 OFFCURVE",
"706 321 CURVE SMOOTH",
"713 356 OFFCURVE",
"717 387 OFFCURVE",
"717 417 CURVE SMOOTH",
"717 439 OFFCURVE",
"715 459 OFFCURVE",
"711 478 CURVE",
"806 500 OFFCURVE",
"857 559 OFFCURVE",
"885 688 CURVE",
"752 688 LINE",
"737 618 OFFCURVE",
"710 593 OFFCURVE",
"650 590 CURVE",
"601 633 OFFCURVE",
"529 654 OFFCURVE",
"440 654 CURVE SMOOTH",
"208 654 OFFCURVE",
"84 562 OFFCURVE",
"32 321 CURVE SMOOTH",
"24 285 OFFCURVE",
"21 253 OFFCURVE",
"21 223 CURVE SMOOTH",
"21 60 OFFCURVE",
"132 -10 OFFCURVE",
"298 -10 CURVE SMOOTH"
);
},
{
closed = 1;
nodes = (
"270 172 OFFCURVE",
"242 196 OFFCURVE",
"242 253 CURVE SMOOTH",
"242 272 OFFCURVE",
"245 294 OFFCURVE",
"251 321 CURVE SMOOTH",
"274 431 OFFCURVE",
"317 471 OFFCURVE",
"401 471 CURVE SMOOTH",
"468 471 OFFCURVE",
"495 449 OFFCURVE",
"495 391 CURVE SMOOTH",
"495 372 OFFCURVE",
"492 349 OFFCURVE",
"486 321 CURVE SMOOTH",
"463 215 OFFCURVE",
"420 172 OFFCURVE",
"337 172 CURVE SMOOTH"
);
},
{
closed = 1;
nodes = (
"539 688 LINE",
"493 904 LINE",
"326 904 LINE",
"381 688 LINE"
);
}
);
width = 805;
}
);
leftKerningGroup = O;
note = Ohorngrave;
rightKerningGroup = O;
unicode = 1EDC;
},
{
glyphname = Ohornhookabove;
lastChange = "2015-11-26 07:52:34 +0000";
layers = (
{
layerId = "DD5B64A7-4DAF-4BC4-A4CC-81A10E608EA1";
name = "Bold Italic";
paths = (
{
closed = 1;
nodes = (
"532 -10 OFFCURVE",
"655 83 OFFCURVE",
"706 321 CURVE SMOOTH",
"713 356 OFFCURVE",
"717 387 OFFCURVE",
"717 417 CURVE SMOOTH",
"717 439 OFFCURVE",
"715 459 OFFCURVE",
"711 478 CURVE",
"806 500 OFFCURVE",
"857 559 OFFCURVE",
"885 688 CURVE",
"752 688 LINE",
"737 618 OFFCURVE",
"710 593 OFFCURVE",
"650 590 CURVE",
"601 633 OFFCURVE",
"529 654 OFFCURVE",
"440 654 CURVE SMOOTH",
"208 654 OFFCURVE",
"84 562 OFFCURVE",
"32 321 CURVE SMOOTH",
"24 285 OFFCURVE",
"21 253 OFFCURVE",
"21 223 CURVE SMOOTH",
"21 60 OFFCURVE",
"132 -10 OFFCURVE",
"298 -10 CURVE SMOOTH"
);
},
{
closed = 1;
nodes = (
"270 172 OFFCURVE",
"242 196 OFFCURVE",
"242 253 CURVE SMOOTH",
"242 272 OFFCURVE",
"245 294 OFFCURVE",
"251 321 CURVE SMOOTH",
"274 431 OFFCURVE",
"317 471 OFFCURVE",
"401 471 CURVE SMOOTH",
"468 471 OFFCURVE",
"495 449 OFFCURVE",
"495 391 CURVE SMOOTH",
"495 372 OFFCURVE",
"492 349 OFFCURVE",
"486 321 CURVE SMOOTH",
"463 215 OFFCURVE",
"420 172 OFFCURVE",
"337 172 CURVE SMOOTH"
);
},
{
closed = 1;
nodes = (
"523 688 LINE",
"531 726 LINE",
"591 743 OFFCURVE",
"623 769 OFFCURVE",
"636 828 CURVE SMOOTH",
"638 835 OFFCURVE",
"638 842 OFFCURVE",
"638 848 CURVE SMOOTH",
"638 898 OFFCURVE",
"595 932 OFFCURVE",
"512 932 CURVE SMOOTH",
"459 932 OFFCURVE",
"418 927 OFFCURVE",
"386 918 CURVE",
"368 832 LINE",
"385 837 OFFCURVE",
"408 841 OFFCURVE",
"428 841 CURVE SMOOTH",
"460 841 OFFCURVE",
"477 834 OFFCURVE",
"477 817 CURVE SMOOTH",
"477 791 OFFCURVE",
"455 773 OFFCURVE",
"380 769 CURVE",
"363 688 LINE"
);
}
);
width = 805;
}
);
leftKerningGroup = O;
note = Ohornhookabove;
rightKerningGroup = O;
unicode = 1EDE;
},
{
glyphname = Ohorntilde;
lastChange = "2015-11-26 07:52:35 +0000";
layers = (
{
layerId = "DD5B64A7-4DAF-4BC4-A4CC-81A10E608EA1";
name = "Bold Italic";
paths = (
{
closed = 1;
nodes = (
"532 -10 OFFCURVE",
"655 83 OFFCURVE",
"706 321 CURVE SMOOTH",
"713 356 OFFCURVE",
"717 387 OFFCURVE",
"717 417 CURVE SMOOTH",
"717 439 OFFCURVE",
"715 459 OFFCURVE",
"711 478 CURVE",
"806 500 OFFCURVE",
"857 559 OFFCURVE",
"885 688 CURVE",
"752 688 LINE",
"737 618 OFFCURVE",
"710 593 OFFCURVE",
"650 590 CURVE",
"601 633 OFFCURVE",
"529 654 OFFCURVE",
"440 654 CURVE SMOOTH",
"208 654 OFFCURVE",
"84 562 OFFCURVE",
"32 321 CURVE SMOOTH",
"24 285 OFFCURVE",
"21 253 OFFCURVE",
"21 223 CURVE SMOOTH",
"21 60 OFFCURVE",
"132 -10 OFFCURVE",
"298 -10 CURVE SMOOTH"
);
},
{
closed = 1;
nodes = (
"270 172 OFFCURVE",
"242 196 OFFCURVE",
"242 253 CURVE SMOOTH",
"242 272 OFFCURVE",
"245 294 OFFCURVE",
"251 321 CURVE SMOOTH",
"274 431 OFFCURVE",
"317 471 OFFCURVE",
"401 471 CURVE SMOOTH",
"468 471 OFFCURVE",
"495 449 OFFCURVE",
"495 391 CURVE SMOOTH",
"495 372 OFFCURVE",
"492 349 OFFCURVE",
"486 321 CURVE SMOOTH",
"463 215 OFFCURVE",
"420 172 OFFCURVE",
"337 172 CURVE SMOOTH"
);
},
{
closed = 1;
nodes = (
"591 690 OFFCURVE",
"631 706 OFFCURVE",
"648 724 CURVE",
"676 854 LINE",
"655 831 OFFCURVE",
"617 813 OFFCURVE",
"573 813 CURVE SMOOTH",
"507 813 OFFCURVE",
"461 856 OFFCURVE",
"391 856 CURVE SMOOTH",
"351 856 OFFCURVE",
"309 840 OFFCURVE",
"286 822 CURVE",
"258 693 LINE",
"288 717 OFFCURVE",
"324 733 OFFCURVE",
"368 733 CURVE SMOOTH",
"426 733 OFFCURVE",
"481 690 OFFCURVE",
"550 690 CURVE SMOOTH"
);
}
);
width = 805;
}
);
leftKerningGroup = O;
note = Ohorntilde;
rightKerningGroup = O;
unicode = 1EE0;
},
{
glyphname = Ohungarumlaut;
lastChange = "2015-11-26 07:52:35 +0000";
layers = (
{
layerId = "DD5B64A7-4DAF-4BC4-A4CC-81A10E608EA1";
name = "Bold Italic";
paths = (
{
closed = 1;
nodes = (
"532 -10 OFFCURVE",
"655 83 OFFCURVE",
"706 321 CURVE SMOOTH",
"714 357 OFFCURVE",
"717 389 OFFCURVE",
"717 419 CURVE SMOOTH",
"717 580 OFFCURVE",
"610 654 OFFCURVE",
"440 654 CURVE SMOOTH",
"208 654 OFFCURVE",
"84 562 OFFCURVE",
"32 321 CURVE SMOOTH",
"24 285 OFFCURVE",
"21 253 OFFCURVE",
"21 223 CURVE SMOOTH",
"21 60 OFFCURVE",
"132 -10 OFFCURVE",
"298 -10 CURVE SMOOTH"
);
},
{
closed = 1;
nodes = (
"270 172 OFFCURVE",
"242 196 OFFCURVE",
"242 253 CURVE SMOOTH",
"242 272 OFFCURVE",
"245 294 OFFCURVE",
"251 321 CURVE SMOOTH",
"274 431 OFFCURVE",
"317 471 OFFCURVE",
"401 471 CURVE SMOOTH",
"468 471 OFFCURVE",
"495 449 OFFCURVE",
"495 391 CURVE SMOOTH",
"495 372 OFFCURVE",
"492 349 OFFCURVE",
"486 321 CURVE SMOOTH",
"463 215 OFFCURVE",
"420 172 OFFCURVE",
"337 172 CURVE SMOOTH"
);
},
{
closed = 1;
nodes = (
"370 688 LINE",
"518 882 LINE",
"337 882 LINE",
"206 688 LINE"
);
},
{
closed = 1;
nodes = (
"621 688 LINE",
"770 882 LINE",
"588 882 LINE",
"457 688 LINE"
);
}
);
width = 714;
}
);
leftKerningGroup = O;
note = Ohungarumlaut;
rightKerningGroup = O;
unicode = 0150;
},
{
glyphname = Omacron;
lastChange = "2015-11-26 07:52:34 +0000";
layers = (
{
layerId = "DD5B64A7-4DAF-4BC4-A4CC-81A10E608EA1";
name = "Bold Italic";
paths = (
{
closed = 1;
nodes = (
"532 -10 OFFCURVE",
"655 83 OFFCURVE",
"706 321 CURVE SMOOTH",
"714 357 OFFCURVE",
"717 389 OFFCURVE",
"717 419 CURVE SMOOTH",
"717 580 OFFCURVE",
"610 654 OFFCURVE",
"440 654 CURVE SMOOTH",
"208 654 OFFCURVE",
"84 562 OFFCURVE",
"32 321 CURVE SMOOTH",
"24 285 OFFCURVE",
"21 253 OFFCURVE",
"21 223 CURVE SMOOTH",
"21 60 OFFCURVE",
"132 -10 OFFCURVE",
"298 -10 CURVE SMOOTH"
);
},
{
closed = 1;
nodes = (
"270 172 OFFCURVE",
"242 196 OFFCURVE",
"242 253 CURVE SMOOTH",
"242 272 OFFCURVE",
"245 294 OFFCURVE",
"251 321 CURVE SMOOTH",
"274 431 OFFCURVE",
"317 471 OFFCURVE",
"401 471 CURVE SMOOTH",
"468 471 OFFCURVE",
"495 449 OFFCURVE",
"495 391 CURVE SMOOTH",
"495 372 OFFCURVE",
"492 349 OFFCURVE",
"486 321 CURVE SMOOTH",
"463 215 OFFCURVE",
"420 172 OFFCURVE",
"337 172 CURVE SMOOTH"
);
},
{
closed = 1;
nodes = (
"619 726 LINE",
"646 852 LINE",
"308 852 LINE",
"281 726 LINE"
);
}
);
width = 714;
}
);
leftKerningGroup = O;
note = Omacron;
rightKerningGroup = O;
unicode = 014C;
},
{
glyphname = Oslash;
lastChange = "2015-11-26 07:52:35 +0000";
layers = (
{
layerId = "DD5B64A7-4DAF-4BC4-A4CC-81A10E608EA1";
name = "Bold Italic";
paths = (
{
closed = 1;
nodes = (
"181 -53 LINE",
"212 -3 LINE",
"238 -8 OFFCURVE",
"267 -10 OFFCURVE",
"298 -10 CURVE SMOOTH",
"532 -10 OFFCURVE",
"655 83 OFFCURVE",
"706 321 CURVE SMOOTH",
"714 357 OFFCURVE",
"717 389 OFFCURVE",
"717 419 CURVE SMOOTH",
"717 522 OFFCURVE",
"673 589 OFFCURVE",
"597 624 CURVE",
"639 693 LINE",
"549 693 LINE",
"521 647 LINE",
"496 652 OFFCURVE",
"469 654 OFFCURVE",
"440 654 CURVE SMOOTH",
"208 654 OFFCURVE",
"84 562 OFFCURVE",
"32 321 CURVE SMOOTH",
"24 285 OFFCURVE",
"21 252 OFFCURVE",
"21 222 CURVE SMOOTH",
"21 121 OFFCURVE",
"63 56 OFFCURVE",
"136 21 CURVE",
"91 -53 LINE"
);
},
{
closed = 1;
nodes = (
"245 220 OFFCURVE",
"242 234 OFFCURVE",
"242 253 CURVE SMOOTH",
"242 271 OFFCURVE",
"245 294 OFFCURVE",
"251 321 CURVE SMOOTH",
"274 431 OFFCURVE",
"317 471 OFFCURVE",
"401 471 CURVE SMOOTH",
"412 471 LINE",
"251 208 LINE"
);
},
{
closed = 1;
nodes = (
"484 440 LINE",
"491 428 OFFCURVE",
"495 411 OFFCURVE",
"495 391 CURVE SMOOTH",
"495 371 OFFCURVE",
"492 348 OFFCURVE",
"486 321 CURVE SMOOTH",
"463 215 OFFCURVE",
"420 172 OFFCURVE",
"337 172 CURVE SMOOTH",
"319 172 LINE"
);
}
);
width = 714;
}
);
leftKerningGroup = O;
note = Oslash;
rightKerningGroup = O;
unicode = 00D8;
},
{
glyphname = Oslashacute;
lastChange = "2015-11-26 07:52:36 +0000";
layers = (
{
layerId = "DD5B64A7-4DAF-4BC4-A4CC-81A10E608EA1";
name = "Bold Italic";
paths = (
{
closed = 1;
nodes = (
"181 -53 LINE",
"212 -3 LINE",
"238 -8 OFFCURVE",
"267 -10 OFFCURVE",
"298 -10 CURVE SMOOTH",
"532 -10 OFFCURVE",
"655 83 OFFCURVE",
"706 321 CURVE SMOOTH",
"714 357 OFFCURVE",
"717 389 OFFCURVE",
"717 419 CURVE SMOOTH",
"717 522 OFFCURVE",
"673 589 OFFCURVE",
"597 624 CURVE",
"639 693 LINE",
"549 693 LINE",
"521 647 LINE",
"496 652 OFFCURVE",
"469 654 OFFCURVE",
"440 654 CURVE SMOOTH",
"208 654 OFFCURVE",
"84 562 OFFCURVE",
"32 321 CURVE SMOOTH",
"24 285 OFFCURVE",
"21 252 OFFCURVE",
"21 222 CURVE SMOOTH",
"21 121 OFFCURVE",
"63 56 OFFCURVE",
"136 21 CURVE",
"91 -53 LINE"
);
},
{
closed = 1;
nodes = (
"245 220 OFFCURVE",
"242 234 OFFCURVE",
"242 253 CURVE SMOOTH",
"242 271 OFFCURVE",
"245 294 OFFCURVE",
"251 321 CURVE SMOOTH",
"274 431 OFFCURVE",
"317 471 OFFCURVE",
"401 471 CURVE SMOOTH",
"412 471 LINE",
"251 208 LINE"
);
},
{
closed = 1;
nodes = (
"484 440 LINE",
"491 428 OFFCURVE",
"495 411 OFFCURVE",
"495 391 CURVE SMOOTH",
"495 371 OFFCURVE",
"492 348 OFFCURVE",
"486 321 CURVE SMOOTH",
"463 215 OFFCURVE",
"420 172 OFFCURVE",
"337 172 CURVE SMOOTH",
"319 172 LINE"
);
},
{
closed = 1;
nodes = (
"499 688 LINE",
"646 904 LINE",
"480 904 LINE",
"342 688 LINE"
);
}
);
width = 714;
}
);
leftKerningGroup = O;
note = Oslashacute;
rightKerningGroup = O;
unicode = 01FE;
},
{
glyphname = Otilde;
lastChange = "2015-11-26 07:52:34 +0000";
layers = (
{
layerId = "DD5B64A7-4DAF-4BC4-A4CC-81A10E608EA1";
name = "Bold Italic";
paths = (
{
closed = 1;
nodes = (
"532 -10 OFFCURVE",
"655 83 OFFCURVE",
"706 321 CURVE SMOOTH",
"714 357 OFFCURVE",
"717 389 OFFCURVE",
"717 419 CURVE SMOOTH",
"717 580 OFFCURVE",
"610 654 OFFCURVE",
"440 654 CURVE SMOOTH",
"208 654 OFFCURVE",
"84 562 OFFCURVE",
"32 321 CURVE SMOOTH",
"24 285 OFFCURVE",
"21 253 OFFCURVE",
"21 223 CURVE SMOOTH",
"21 60 OFFCURVE",
"132 -10 OFFCURVE",
"298 -10 CURVE SMOOTH"
);
},
{
closed = 1;
nodes = (
"270 172 OFFCURVE",
"242 196 OFFCURVE",
"242 253 CURVE SMOOTH",
"242 272 OFFCURVE",
"245 294 OFFCURVE",
"251 321 CURVE SMOOTH",
"274 431 OFFCURVE",
"317 471 OFFCURVE",
"401 471 CURVE SMOOTH",
"468 471 OFFCURVE",
"495 449 OFFCURVE",
"495 391 CURVE SMOOTH",
"495 372 OFFCURVE",
"492 349 OFFCURVE",
"486 321 CURVE SMOOTH",
"463 215 OFFCURVE",
"420 172 OFFCURVE",
"337 172 CURVE SMOOTH"
);
},
{
closed = 1;
nodes = (
"594 712 OFFCURVE",
"634 728 OFFCURVE",
"651 746 CURVE",
"679 876 LINE",
"658 853 OFFCURVE",
"620 835 OFFCURVE",
"576 835 CURVE SMOOTH",
"510 835 OFFCURVE",
"464 878 OFFCURVE",
"394 878 CURVE SMOOTH",
"354 878 OFFCURVE",
"312 862 OFFCURVE",
"289 844 CURVE",
"261 715 LINE",
"291 739 OFFCURVE",
"327 755 OFFCURVE",
"371 755 CURVE SMOOTH",
"429 755 OFFCURVE",
"484 712 OFFCURVE",
"553 712 CURVE SMOOTH"
);
}
);
width = 714;
}
);
leftKerningGroup = O;
note = Otilde;
rightKerningGroup = O;
unicode = 00D5;
},
{
glyphname = OE;
lastChange = "2015-11-26 07:52:34 +0000";
layers = (
{
layerId = "DD5B64A7-4DAF-4BC4-A4CC-81A10E608EA1";
name = "Bold Italic";
paths = (
{
closed = 1;
nodes = (
"344 -10 OFFCURVE",
"383 -7 OFFCURVE",
"420 0 CURVE",
"921 0 LINE",
"954 159 LINE",
"668 159 LINE",
"686 240 LINE",
"935 240 LINE",
"969 403 LINE",
"720 403 LINE",
"738 485 LINE",
"1024 485 LINE",
"1057 644 LINE",
"556 644 LINE",
"521 649 OFFCURVE",
"483 654 OFFCURVE",
"442 654 CURVE SMOOTH",
"210 654 OFFCURVE",
"86 562 OFFCURVE",
"34 321 CURVE SMOOTH",
"26 285 OFFCURVE",
"23 253 OFFCURVE",
"23 223 CURVE SMOOTH",
"23 60 OFFCURVE",
"134 -10 OFFCURVE",
"300 -10 CURVE SMOOTH"
);
},
{
closed = 1;
nodes = (
"272 172 OFFCURVE",
"244 196 OFFCURVE",
"244 253 CURVE SMOOTH",
"244 272 OFFCURVE",
"247 294 OFFCURVE",
"253 321 CURVE SMOOTH",
"276 431 OFFCURVE",
"319 471 OFFCURVE",
"403 471 CURVE SMOOTH",
"470 471 OFFCURVE",
"497 449 OFFCURVE",
"497 391 CURVE SMOOTH",
"497 372 OFFCURVE",
"494 349 OFFCURVE",
"488 321 CURVE SMOOTH",
"465 215 OFFCURVE",
"422 172 OFFCURVE",
"339 172 CURVE SMOOTH"
);
}
);
width = 997;
}
);
leftKerningGroup = C;
note = OE;
unicode = 0152;
},
{
glyphname = P;
lastChange = "2015-11-26 07:52:34 +0000";
layers = (
{
layerId = "DD5B64A7-4DAF-4BC4-A4CC-81A10E608EA1";
name = "Bold Italic";
paths = (
{
closed = 1;
nodes = (
"199 0 LINE",
"232 158 LINE",
"360 158 LINE SMOOTH",
"529 158 OFFCURVE",
"625 250 OFFCURVE",
"654 400 CURVE SMOOTH",
"658 419 OFFCURVE",
"660 437 OFFCURVE",
"660 455 CURVE SMOOTH",
"660 563 OFFCURVE",
"592 644 OFFCURVE",
"455 644 CURVE SMOOTH",
"120 644 LINE",
"-16 0 LINE"
);
},
{
closed = 1;
nodes = (
"300 477 LINE",
"382 477 LINE SMOOTH",
"422 477 OFFCURVE",
"438 459 OFFCURVE",
"438 428 CURVE SMOOTH",
"438 419 OFFCURVE",
"437 410 OFFCURVE",
"435 400 CURVE SMOOTH",
"425 355 OFFCURVE",
"403 325 OFFCURVE",
"346 325 CURVE SMOOTH",
"268 325 LINE"
);
}
);
width = 625;
}
);
note = P;
unicode = 0050;
},
{
glyphname = Thorn;
lastChange = "2015-11-26 07:52:35 +0000";
layers = (
{
layerId = "DD5B64A7-4DAF-4BC4-A4CC-81A10E608EA1";
name = "Bold Italic";
paths = (
{
closed = 1;
nodes = (
"199 0 LINE",
"216 81 LINE",
"344 81 LINE SMOOTH",
"511 81 OFFCURVE",
"609 182 OFFCURVE",
"637 321 CURVE SMOOTH",
"641 343 OFFCURVE",
"644 364 OFFCURVE",
"644 384 CURVE SMOOTH",
"644 492 OFFCURVE",
"577 562 OFFCURVE",
"450 562 CURVE SMOOTH",
"318 562 LINE",
"335 644 LINE",
"120 644 LINE",
"-16 0 LINE"
);
},
{
closed = 1;
nodes = (
"283 396 LINE",
"365 396 LINE SMOOTH",
"405 396 OFFCURVE",
"421 379 OFFCURVE",
"421 348 CURVE SMOOTH",
"421 340 OFFCURVE",
"420 331 OFFCURVE",
"418 321 CURVE SMOOTH",
"408 276 OFFCURVE",
"385 247 OFFCURVE",
"329 247 CURVE SMOOTH",
"251 247 LINE"
);
}
);
width = 645;
}
);
note = Thorn;
unicode = 00DE;
},
{
glyphname = Q;
lastChange = "2015-11-26 07:52:34 +0000";
layers = (
{
layerId = "DD5B64A7-4DAF-4BC4-A4CC-81A10E608EA1";
name = "Bold Italic";
paths = (
{
closed = 1;
nodes = (
"403 -172 OFFCURVE",
"445 -166 OFFCURVE",
"470 -159 CURVE",
"496 -34 LINE",
"474 -41 OFFCURVE",
"449 -45 OFFCURVE",
"427 -45 CURVE SMOOTH",
"393 -45 OFFCURVE",
"381 -39 OFFCURVE",
"381 -18 CURVE SMOOTH",
"381 -14 OFFCURVE",
"381 -10 OFFCURVE",
"382 -5 CURVE",
"562 16 OFFCURVE",
"661 113 OFFCURVE",
"706 321 CURVE SMOOTH",
"714 357 OFFCURVE",
"717 389 OFFCURVE",
"717 419 CURVE SMOOTH",
"717 580 OFFCURVE",
"610 654 OFFCURVE",
"440 654 CURVE SMOOTH",
"208 654 OFFCURVE",
"84 562 OFFCURVE",
"32 321 CURVE SMOOTH",
"24 285 OFFCURVE",
"20 252 OFFCURVE",
"20 222 CURVE SMOOTH",
"20 89 OFFCURVE",
"95 18 OFFCURVE",
"213 -3 CURVE",
"211 -17 OFFCURVE",
"209 -30 OFFCURVE",
"209 -42 CURVE SMOOTH",
"209 -125 OFFCURVE",
"264 -172 OFFCURVE",
"365 -172 CURVE SMOOTH"
);
},
{
closed = 1;
nodes = (
"270 172 OFFCURVE",
"242 196 OFFCURVE",
"242 253 CURVE SMOOTH",
"242 272 OFFCURVE",
"245 294 OFFCURVE",
"251 321 CURVE SMOOTH",
"274 431 OFFCURVE",
"317 471 OFFCURVE",
"401 471 CURVE SMOOTH",
"468 471 OFFCURVE",
"495 449 OFFCURVE",
"495 391 CURVE SMOOTH",
"495 372 OFFCURVE",
"492 349 OFFCURVE",
"486 321 CURVE SMOOTH",
"463 215 OFFCURVE",
"420 172 OFFCURVE",
"337 172 CURVE SMOOTH"
);
}
);
width = 714;
}
);
leftKerningGroup = O;
note = Q;
rightKerningGroup = O;
unicode = 0051;
},
{
glyphname = R;
lastChange = "2015-11-26 07:52:35 +0000";
layers = (
{
layerId = "DD5B64A7-4DAF-4BC4-A4CC-81A10E608EA1";
name = "Bold Italic";
paths = (
{
closed = 1;
nodes = (
"199 0 LINE",
"236 176 LINE",
"267 176 LINE SMOOTH",
"289 176 OFFCURVE",
"297 168 OFFCURVE",
"301 149 CURVE SMOOTH",
"336 0 LINE",
"560 0 LINE",
"521 172 LINE SMOOTH",
"517 189 OFFCURVE",
"510 205 OFFCURVE",
"498 216 CURVE",
"580 254 OFFCURVE",
"637 322 OFFCURVE",
"655 409 CURVE SMOOTH",
"659 429 OFFCURVE",
"661 448 OFFCURVE",
"661 466 CURVE SMOOTH",
"661 572 OFFCURVE",
"591 644 OFFCURVE",
"468 644 CURVE SMOOTH",
"120 644 LINE",
"-16 0 LINE"
);
},
{
closed = 1;
nodes = (
"300 477 LINE",
"384 477 LINE SMOOTH",
"424 477 OFFCURVE",
"439 464 OFFCURVE",
"439 436 CURVE SMOOTH",
"439 428 OFFCURVE",
"438 419 OFFCURVE",
"436 409 CURVE SMOOTH",
"427 365 OFFCURVE",
"404 342 OFFCURVE",
"350 342 CURVE SMOOTH",
"271 342 LINE"
);
}
);
width = 645;
}
);
note = R;
rightKerningGroup = R;
unicode = 0052;
},
{
glyphname = Racute;
lastChange = "2015-11-26 07:52:36 +0000";
layers = (
{
layerId = "DD5B64A7-4DAF-4BC4-A4CC-81A10E608EA1";
name = "Bold Italic";
paths = (
{
closed = 1;
nodes = (
"199 0 LINE",
"236 176 LINE",
"267 176 LINE SMOOTH",
"289 176 OFFCURVE",
"297 168 OFFCURVE",
"301 149 CURVE SMOOTH",
"336 0 LINE",
"560 0 LINE",
"521 172 LINE SMOOTH",
"517 189 OFFCURVE",
"510 205 OFFCURVE",
"498 216 CURVE",
"580 254 OFFCURVE",
"637 322 OFFCURVE",
"655 409 CURVE SMOOTH",
"659 429 OFFCURVE",
"661 448 OFFCURVE",
"661 466 CURVE SMOOTH",
"661 572 OFFCURVE",
"591 644 OFFCURVE",
"468 644 CURVE SMOOTH",
"120 644 LINE",
"-16 0 LINE"
);
},
{
closed = 1;
nodes = (
"300 477 LINE",
"384 477 LINE SMOOTH",
"424 477 OFFCURVE",
"439 464 OFFCURVE",
"439 436 CURVE SMOOTH",
"439 428 OFFCURVE",
"438 419 OFFCURVE",
"436 409 CURVE SMOOTH",
"427 365 OFFCURVE",
"404 342 OFFCURVE",
"350 342 CURVE SMOOTH",
"271 342 LINE"
);
},
{
closed = 1;
nodes = (
"438 688 LINE",
"585 904 LINE",
"419 904 LINE",
"281 688 LINE"
);
}
);
width = 645;
}
);
note = Racute;
rightKerningGroup = R;
unicode = 0154;
},
{
glyphname = Rcaron;
lastChange = "2015-11-26 07:52:35 +0000";
layers = (
{
layerId = "DD5B64A7-4DAF-4BC4-A4CC-81A10E608EA1";
name = "Bold Italic";
paths = (
{
closed = 1;
nodes = (
"199 0 LINE",
"236 176 LINE",
"267 176 LINE SMOOTH",
"289 176 OFFCURVE",
"297 168 OFFCURVE",
"301 149 CURVE SMOOTH",
"336 0 LINE",
"560 0 LINE",
"521 172 LINE SMOOTH",
"517 189 OFFCURVE",
"510 205 OFFCURVE",
"498 216 CURVE",
"580 254 OFFCURVE",
"637 322 OFFCURVE",
"655 409 CURVE SMOOTH",
"659 429 OFFCURVE",
"661 448 OFFCURVE",
"661 466 CURVE SMOOTH",
"661 572 OFFCURVE",
"591 644 OFFCURVE",
"468 644 CURVE SMOOTH",
"120 644 LINE",
"-16 0 LINE"
);
},
{
closed = 1;
nodes = (
"300 477 LINE",
"384 477 LINE SMOOTH",
"424 477 OFFCURVE",
"439 464 OFFCURVE",
"439 436 CURVE SMOOTH",
"439 428 OFFCURVE",
"438 419 OFFCURVE",
"436 409 CURVE SMOOTH",
"427 365 OFFCURVE",
"404 342 OFFCURVE",
"350 342 CURVE SMOOTH",
"271 342 LINE"
);
},
{
closed = 1;
nodes = (
"438 688 LINE",
"647 896 LINE",
"489 896 LINE",
"390 788 LINE",
"340 896 LINE",
"191 896 LINE",
"312 688 LINE"
);
}
);
width = 645;
}
);
note = Rcaron;
rightKerningGroup = R;
unicode = 0158;
},
{
glyphname = Rcommaaccent;
lastChange = "2015-11-26 07:52:35 +0000";
layers = (
{
layerId = "DD5B64A7-4DAF-4BC4-A4CC-81A10E608EA1";
name = "Bold Italic";
paths = (
{
closed = 1;
nodes = (
"199 0 LINE",
"236 176 LINE",
"267 176 LINE SMOOTH",
"289 176 OFFCURVE",
"297 168 OFFCURVE",
"301 149 CURVE SMOOTH",
"336 0 LINE",
"560 0 LINE",
"521 172 LINE SMOOTH",
"517 189 OFFCURVE",
"510 205 OFFCURVE",
"498 216 CURVE",
"580 254 OFFCURVE",
"637 322 OFFCURVE",
"655 409 CURVE SMOOTH",
"659 429 OFFCURVE",
"661 448 OFFCURVE",
"661 466 CURVE SMOOTH",
"661 572 OFFCURVE",
"591 644 OFFCURVE",
"468 644 CURVE SMOOTH",
"120 644 LINE",
"-16 0 LINE"
);
},
{
closed = 1;
nodes = (
"226 -274 LINE",
"338 -37 LINE",
"172 -37 LINE",
"87 -274 LINE"
);
},
{
closed = 1;
nodes = (
"300 477 LINE",
"384 477 LINE SMOOTH",
"424 477 OFFCURVE",
"439 464 OFFCURVE",
"439 436 CURVE SMOOTH",
"439 428 OFFCURVE",
"438 419 OFFCURVE",
"436 409 CURVE SMOOTH",
"427 365 OFFCURVE",
"404 342 OFFCURVE",
"350 342 CURVE SMOOTH",
"271 342 LINE"
);
}
);
width = 645;
}
);
note = Rcommaaccent;
rightKerningGroup = R;
unicode = 0156;
},
{
glyphname = Rdotbelow;
lastChange = "2015-11-26 07:52:35 +0000";
layers = (
{
layerId = "DD5B64A7-4DAF-4BC4-A4CC-81A10E608EA1";
name = "Bold Italic";
paths = (
{
closed = 1;
nodes = (
"199 0 LINE",
"236 176 LINE",
"267 176 LINE SMOOTH",
"289 176 OFFCURVE",
"297 168 OFFCURVE",
"301 149 CURVE SMOOTH",
"336 0 LINE",
"560 0 LINE",
"521 172 LINE SMOOTH",
"517 189 OFFCURVE",
"510 205 OFFCURVE",
"498 216 CURVE",
"580 254 OFFCURVE",
"637 322 OFFCURVE",
"655 409 CURVE SMOOTH",
"659 429 OFFCURVE",
"661 448 OFFCURVE",
"661 466 CURVE SMOOTH",
"661 572 OFFCURVE",
"591 644 OFFCURVE",
"468 644 CURVE SMOOTH",
"120 644 LINE",
"-16 0 LINE"
);
},
{
closed = 1;
nodes = (
"283 -175 LINE",
"311 -45 LINE",
"168 -45 LINE",
"140 -175 LINE"
);
},
{
closed = 1;
nodes = (
"300 477 LINE",
"384 477 LINE SMOOTH",
"424 477 OFFCURVE",
"439 464 OFFCURVE",
"439 436 CURVE SMOOTH",
"439 428 OFFCURVE",
"438 419 OFFCURVE",
"436 409 CURVE SMOOTH",
"427 365 OFFCURVE",
"404 342 OFFCURVE",
"350 342 CURVE SMOOTH",
"271 342 LINE"
);
}
);
width = 645;
}
);
note = Rdotbelow;
rightKerningGroup = R;
unicode = 1E5A;
},
{
glyphname = Rdotbelowmacron;
lastChange = "2015-11-26 07:52:36 +0000";
layers = (
{
layerId = "DD5B64A7-4DAF-4BC4-A4CC-81A10E608EA1";
name = "Bold Italic";
paths = (
{
closed = 1;
nodes = (
"199 0 LINE",
"236 176 LINE",
"267 176 LINE SMOOTH",
"289 176 OFFCURVE",
"297 168 OFFCURVE",
"301 149 CURVE SMOOTH",
"336 0 LINE",
"560 0 LINE",
"521 172 LINE SMOOTH",
"517 189 OFFCURVE",
"510 205 OFFCURVE",
"498 216 CURVE",
"580 254 OFFCURVE",
"637 322 OFFCURVE",
"655 409 CURVE SMOOTH",
"659 429 OFFCURVE",
"661 448 OFFCURVE",
"661 466 CURVE SMOOTH",
"661 572 OFFCURVE",
"591 644 OFFCURVE",
"468 644 CURVE SMOOTH",
"120 644 LINE",
"-16 0 LINE"
);
},
{
closed = 1;
nodes = (
"278 -175 LINE",
"306 -45 LINE",
"163 -45 LINE",
"135 -175 LINE"
);
},
{
closed = 1;
nodes = (
"300 477 LINE",
"384 477 LINE SMOOTH",
"424 477 OFFCURVE",
"439 464 OFFCURVE",
"439 436 CURVE SMOOTH",
"439 428 OFFCURVE",
"438 419 OFFCURVE",
"436 409 CURVE SMOOTH",
"427 365 OFFCURVE",
"404 342 OFFCURVE",
"350 342 CURVE SMOOTH",
"271 342 LINE"
);
},
{
closed = 1;
nodes = (
"545 717 LINE",
"572 843 LINE",
"234 843 LINE",
"207 717 LINE"
);
}
);
width = 645;
}
);
note = Rdotbelowmacron;
rightKerningGroup = R;
unicode = 1E5C;
},
{
glyphname = Rlinebelow;
lastChange = "2015-11-26 07:52:34 +0000";
layers = (
{
layerId = "DD5B64A7-4DAF-4BC4-A4CC-81A10E608EA1";
name = "Bold Italic";
paths = (
{
closed = 1;
nodes = (
"199 0 LINE",
"236 176 LINE",
"267 176 LINE SMOOTH",
"289 176 OFFCURVE",
"297 168 OFFCURVE",
"301 149 CURVE SMOOTH",
"336 0 LINE",
"560 0 LINE",
"521 172 LINE SMOOTH",
"517 189 OFFCURVE",
"510 205 OFFCURVE",
"498 216 CURVE",
"580 254 OFFCURVE",
"637 322 OFFCURVE",
"655 409 CURVE SMOOTH",
"659 429 OFFCURVE",
"661 448 OFFCURVE",
"661 466 CURVE SMOOTH",
"661 572 OFFCURVE",
"591 644 OFFCURVE",
"468 644 CURVE SMOOTH",
"120 644 LINE",
"-16 0 LINE"
);
},
{
closed = 1;
nodes = (
"380 -175 LINE",
"407 -49 LINE",
"69 -49 LINE",
"42 -175 LINE"
);
},
{
closed = 1;
nodes = (
"300 477 LINE",
"384 477 LINE SMOOTH",
"424 477 OFFCURVE",
"439 464 OFFCURVE",
"439 436 CURVE SMOOTH",
"439 428 OFFCURVE",
"438 419 OFFCURVE",
"436 409 CURVE SMOOTH",
"427 365 OFFCURVE",
"404 342 OFFCURVE",
"350 342 CURVE SMOOTH",
"271 342 LINE"
);
}
);
width = 645;
}
);
note = Rlinebelow;
rightKerningGroup = R;
unicode = 1E5E;
},
{
glyphname = S;
lastChange = "2015-11-26 07:52:31 +0000";
layers = (
{
layerId = "DD5B64A7-4DAF-4BC4-A4CC-81A10E608EA1";
name = "Bold Italic";
paths = (
{
closed = 1;
nodes = (
"394 -10 OFFCURVE",
"495 69 OFFCURVE",
"521 189 CURVE SMOOTH",
"525 207 OFFCURVE",
"527 225 OFFCURVE",
"527 242 CURVE SMOOTH",
"527 313 OFFCURVE",
"490 371 OFFCURVE",
"377 404 CURVE SMOOTH",
"309 424 OFFCURVE",
"279 431 OFFCURVE",
"279 452 CURVE SMOOTH",
"279 487 OFFCURVE",
"329 492 OFFCURVE",
"379 492 CURVE SMOOTH",
"425 492 OFFCURVE",
"480 482 OFFCURVE",
"542 455 CURVE",
"578 624 LINE",
"531 639 OFFCURVE",
"446 654 OFFCURVE",
"378 654 CURVE SMOOTH",
"187 654 OFFCURVE",
"89 594 OFFCURVE",
"60 456 CURVE SMOOTH",
"56 439 OFFCURVE",
"54 422 OFFCURVE",
"54 408 CURVE SMOOTH",
"54 333 OFFCURVE",
"100 289 OFFCURVE",
"187 257 CURVE SMOOTH",
"264 229 OFFCURVE",
"307 221 OFFCURVE",
"300 188 CURVE SMOOTH",
"294 159 OFFCURVE",
"262 150 OFFCURVE",
"209 150 CURVE SMOOTH",
"146 150 OFFCURVE",
"69 171 OFFCURVE",
"13 200 CURVE",
"-23 32 LINE",
"28 5 OFFCURVE",
"111 -10 OFFCURVE",
"198 -10 CURVE SMOOTH"
);
}
);
width = 557;
}
);
leftKerningGroup = S;
note = S;
rightKerningGroup = S;
unicode = 0053;
},
{
glyphname = Sacute;
lastChange = "2015-11-26 07:52:35 +0000";
layers = (
{
layerId = "DD5B64A7-4DAF-4BC4-A4CC-81A10E608EA1";
name = "Bold Italic";
paths = (
{
closed = 1;
nodes = (
"394 -10 OFFCURVE",
"495 69 OFFCURVE",
"521 189 CURVE SMOOTH",
"525 207 OFFCURVE",
"527 225 OFFCURVE",
"527 242 CURVE SMOOTH",
"527 313 OFFCURVE",
"490 371 OFFCURVE",
"377 404 CURVE SMOOTH",
"309 424 OFFCURVE",
"279 431 OFFCURVE",
"279 452 CURVE SMOOTH",
"279 487 OFFCURVE",
"329 492 OFFCURVE",
"379 492 CURVE SMOOTH",
"425 492 OFFCURVE",
"480 482 OFFCURVE",
"542 455 CURVE",
"578 624 LINE",
"531 639 OFFCURVE",
"446 654 OFFCURVE",
"378 654 CURVE SMOOTH",
"187 654 OFFCURVE",
"89 594 OFFCURVE",
"60 456 CURVE SMOOTH",
"56 439 OFFCURVE",
"54 422 OFFCURVE",
"54 408 CURVE SMOOTH",
"54 333 OFFCURVE",
"100 289 OFFCURVE",
"187 257 CURVE SMOOTH",
"264 229 OFFCURVE",
"307 221 OFFCURVE",
"300 188 CURVE SMOOTH",
"294 159 OFFCURVE",
"262 150 OFFCURVE",
"209 150 CURVE SMOOTH",
"146 150 OFFCURVE",
"69 171 OFFCURVE",
"13 200 CURVE",
"-23 32 LINE",
"28 5 OFFCURVE",
"111 -10 OFFCURVE",
"198 -10 CURVE SMOOTH"
);
},
{
closed = 1;
nodes = (
"433 688 LINE",
"580 904 LINE",
"414 904 LINE",
"276 688 LINE"
);
}
);
width = 557;
}
);
leftKerningGroup = S;
note = Sacute;
rightKerningGroup = S;
unicode = 015A;
},
{
glyphname = Scaron;
lastChange = "2015-11-26 07:52:35 +0000";
layers = (
{
layerId = "DD5B64A7-4DAF-4BC4-A4CC-81A10E608EA1";
name = "Bold Italic";
paths = (
{
closed = 1;
nodes = (
"394 -10 OFFCURVE",
"495 69 OFFCURVE",
"521 189 CURVE SMOOTH",
"525 207 OFFCURVE",
"527 225 OFFCURVE",
"527 242 CURVE SMOOTH",
"527 313 OFFCURVE",
"490 371 OFFCURVE",
"377 404 CURVE SMOOTH",
"309 424 OFFCURVE",
"279 431 OFFCURVE",
"279 452 CURVE SMOOTH",
"279 487 OFFCURVE",
"329 492 OFFCURVE",
"379 492 CURVE SMOOTH",
"425 492 OFFCURVE",
"480 482 OFFCURVE",
"542 455 CURVE",
"578 624 LINE",
"531 639 OFFCURVE",
"446 654 OFFCURVE",
"378 654 CURVE SMOOTH",
"187 654 OFFCURVE",
"89 594 OFFCURVE",
"60 456 CURVE SMOOTH",
"56 439 OFFCURVE",
"54 422 OFFCURVE",
"54 408 CURVE SMOOTH",
"54 333 OFFCURVE",
"100 289 OFFCURVE",
"187 257 CURVE SMOOTH",
"264 229 OFFCURVE",
"307 221 OFFCURVE",
"300 188 CURVE SMOOTH",
"294 159 OFFCURVE",
"262 150 OFFCURVE",
"209 150 CURVE SMOOTH",
"146 150 OFFCURVE",
"69 171 OFFCURVE",
"13 200 CURVE",
"-23 32 LINE",
"28 5 OFFCURVE",
"111 -10 OFFCURVE",
"198 -10 CURVE SMOOTH"
);
},
{
closed = 1;
nodes = (
"428 688 LINE",
"637 896 LINE",
"479 896 LINE",
"380 788 LINE",
"330 896 LINE",
"181 896 LINE",
"302 688 LINE"
);
}
);
width = 557;
}
);
leftKerningGroup = S;
note = Scaron;
rightKerningGroup = S;
unicode = 0160;
},
{
glyphname = Scedilla;
lastChange = "2015-11-26 07:52:31 +0000";
layers = (
{
layerId = "DD5B64A7-4DAF-4BC4-A4CC-81A10E608EA1";
name = "Bold Italic";
paths = (
{
closed = 1;
nodes = (
"252 -240 OFFCURVE",
"316 -200 OFFCURVE",
"330 -134 CURVE SMOOTH",
"332 -126 OFFCURVE",
"332 -119 OFFCURVE",
"332 -112 CURVE SMOOTH",
"332 -69 OFFCURVE",
"303 -39 OFFCURVE",
"240 -39 CURVE",
"259 -7 LINE",
"415 8 OFFCURVE",
"498 82 OFFCURVE",
"521 189 CURVE SMOOTH",
"525 207 OFFCURVE",
"527 225 OFFCURVE",
"527 242 CURVE SMOOTH",
"527 313 OFFCURVE",
"490 371 OFFCURVE",
"377 404 CURVE SMOOTH",
"309 424 OFFCURVE",
"279 431 OFFCURVE",
"279 452 CURVE SMOOTH",
"279 487 OFFCURVE",
"329 492 OFFCURVE",
"379 492 CURVE SMOOTH",
"425 492 OFFCURVE",
"480 482 OFFCURVE",
"542 455 CURVE",
"578 624 LINE",
"531 639 OFFCURVE",
"446 654 OFFCURVE",
"378 654 CURVE SMOOTH",
"187 654 OFFCURVE",
"89 594 OFFCURVE",
"60 456 CURVE SMOOTH",
"56 439 OFFCURVE",
"54 422 OFFCURVE",
"54 408 CURVE SMOOTH",
"54 333 OFFCURVE",
"100 289 OFFCURVE",
"187 257 CURVE SMOOTH",
"264 229 OFFCURVE",
"307 221 OFFCURVE",
"300 188 CURVE SMOOTH",
"294 159 OFFCURVE",
"262 150 OFFCURVE",
"209 150 CURVE SMOOTH",
"146 150 OFFCURVE",
"69 171 OFFCURVE",
"13 200 CURVE",
"-23 32 LINE",
"18 10 OFFCURVE",
"79 -4 OFFCURVE",
"147 -8 CURVE",
"101 -101 LINE",
"170 -101 LINE SMOOTH",
"194 -101 OFFCURVE",
"210 -105 OFFCURVE",
"210 -122 CURVE SMOOTH",
"210 -152 OFFCURVE",
"184 -165 OFFCURVE",
"132 -165 CURVE SMOOTH",
"112 -165 OFFCURVE",
"92 -162 OFFCURVE",
"75 -157 CURVE",
"59 -232 LINE",
"73 -236 OFFCURVE",
"118 -240 OFFCURVE",
"142 -240 CURVE SMOOTH"
);
}
);
width = 557;
}
);
leftKerningGroup = S;
note = Scedilla;
rightKerningGroup = S;
unicode = 015E;
},
{
glyphname = Scircumflex;
lastChange = "2015-11-26 07:52:34 +0000";
layers = (
{
layerId = "DD5B64A7-4DAF-4BC4-A4CC-81A10E608EA1";
name = "Bold Italic";
paths = (
{
closed = 1;
nodes = (
"415 -10 OFFCURVE",
"516 69 OFFCURVE",
"542 189 CURVE SMOOTH",
"546 207 OFFCURVE",
"548 225 OFFCURVE",
"548 242 CURVE SMOOTH",
"548 313 OFFCURVE",
"511 371 OFFCURVE",
"398 404 CURVE SMOOTH",
"330 424 OFFCURVE",
"300 431 OFFCURVE",
"300 452 CURVE SMOOTH",
"300 487 OFFCURVE",
"350 492 OFFCURVE",
"400 492 CURVE SMOOTH",
"446 492 OFFCURVE",
"501 482 OFFCURVE",
"563 455 CURVE",
"599 624 LINE",
"552 639 OFFCURVE",
"467 654 OFFCURVE",
"399 654 CURVE SMOOTH",
"208 654 OFFCURVE",
"110 594 OFFCURVE",
"81 456 CURVE SMOOTH",
"77 439 OFFCURVE",
"75 422 OFFCURVE",
"75 408 CURVE SMOOTH",
"75 333 OFFCURVE",
"121 289 OFFCURVE",
"208 257 CURVE SMOOTH",
"285 229 OFFCURVE",
"328 221 OFFCURVE",
"321 188 CURVE SMOOTH",
"315 159 OFFCURVE",
"283 150 OFFCURVE",
"230 150 CURVE SMOOTH",
"167 150 OFFCURVE",
"90 171 OFFCURVE",
"34 200 CURVE",
"-2 32 LINE",
"49 5 OFFCURVE",
"132 -10 OFFCURVE",
"219 -10 CURVE SMOOTH"
);
},
{
closed = 1;
nodes = (
"310 688 LINE",
"405 796 LINE",
"458 688 LINE",
"604 688 LINE",
"483 896 LINE",
"356 896 LINE",
"148 688 LINE"
);
}
);
width = 578;
}
);
leftKerningGroup = S;
note = Scircumflex;
rightKerningGroup = S;
unicode = 015C;
},
{
glyphname = Scommaaccent;
lastChange = "2015-11-26 07:52:35 +0000";
layers = (
{
layerId = "DD5B64A7-4DAF-4BC4-A4CC-81A10E608EA1";
name = "Bold Italic";
paths = (
{
closed = 1;
nodes = (
"394 -10 OFFCURVE",
"495 69 OFFCURVE",
"521 189 CURVE SMOOTH",
"525 207 OFFCURVE",
"527 225 OFFCURVE",
"527 242 CURVE SMOOTH",
"527 313 OFFCURVE",
"490 371 OFFCURVE",
"377 404 CURVE SMOOTH",
"309 424 OFFCURVE",
"279 431 OFFCURVE",
"279 452 CURVE SMOOTH",
"279 487 OFFCURVE",
"329 492 OFFCURVE",
"379 492 CURVE SMOOTH",
"425 492 OFFCURVE",
"480 482 OFFCURVE",
"542 455 CURVE",
"578 624 LINE",
"531 639 OFFCURVE",
"446 654 OFFCURVE",
"378 654 CURVE SMOOTH",
"187 654 OFFCURVE",
"89 594 OFFCURVE",
"60 456 CURVE SMOOTH",
"56 439 OFFCURVE",
"54 422 OFFCURVE",
"54 408 CURVE SMOOTH",
"54 333 OFFCURVE",
"100 289 OFFCURVE",
"187 257 CURVE SMOOTH",
"264 229 OFFCURVE",
"307 221 OFFCURVE",
"300 188 CURVE SMOOTH",
"294 159 OFFCURVE",
"262 150 OFFCURVE",
"209 150 CURVE SMOOTH",
"146 150 OFFCURVE",
"69 171 OFFCURVE",
"13 200 CURVE",
"-23 32 LINE",
"28 5 OFFCURVE",
"111 -10 OFFCURVE",
"198 -10 CURVE SMOOTH"
);
},
{
closed = 1;
nodes = (
"219 -238 LINE",
"309 -40 LINE",
"135 -40 LINE",
"60 -238 LINE"
);
}
);
width = 557;
}
);
leftKerningGroup = S;
note = Scommaaccent;
rightKerningGroup = S;
unicode = 0218;
},
{
glyphname = Sdotaccent;
lastChange = "2015-11-26 07:52:35 +0000";
layers = (
{
layerId = "DD5B64A7-4DAF-4BC4-A4CC-81A10E608EA1";
name = "Bold Italic";
paths = (
{
closed = 1;
nodes = (
"394 -10 OFFCURVE",
"495 69 OFFCURVE",
"521 189 CURVE SMOOTH",
"525 207 OFFCURVE",
"527 225 OFFCURVE",
"527 242 CURVE SMOOTH",
"527 313 OFFCURVE",
"490 371 OFFCURVE",
"377 404 CURVE SMOOTH",
"309 424 OFFCURVE",
"279 431 OFFCURVE",
"279 452 CURVE SMOOTH",
"279 487 OFFCURVE",
"329 492 OFFCURVE",
"379 492 CURVE SMOOTH",
"425 492 OFFCURVE",
"480 482 OFFCURVE",
"542 455 CURVE",
"578 624 LINE",
"531 639 OFFCURVE",
"446 654 OFFCURVE",
"378 654 CURVE SMOOTH",
"187 654 OFFCURVE",
"89 594 OFFCURVE",
"60 456 CURVE SMOOTH",
"56 439 OFFCURVE",
"54 422 OFFCURVE",
"54 408 CURVE SMOOTH",
"54 333 OFFCURVE",
"100 289 OFFCURVE",
"187 257 CURVE SMOOTH",
"264 229 OFFCURVE",
"307 221 OFFCURVE",
"300 188 CURVE SMOOTH",
"294 159 OFFCURVE",
"262 150 OFFCURVE",
"209 150 CURVE SMOOTH",
"146 150 OFFCURVE",
"69 171 OFFCURVE",
"13 200 CURVE",
"-23 32 LINE",
"28 5 OFFCURVE",
"111 -10 OFFCURVE",
"198 -10 CURVE SMOOTH"
);
},
{
closed = 1;
nodes = (
"440 716 LINE",
"467 847 LINE",
"324 847 LINE",
"297 716 LINE"
);
}
);
width = 557;
}
);
leftKerningGroup = S;
note = Sdotaccent;
rightKerningGroup = S;
unicode = 1E60;
},
{
glyphname = Sdotbelow;
lastChange = "2015-11-26 07:52:35 +0000";
layers = (
{
layerId = "DD5B64A7-4DAF-4BC4-A4CC-81A10E608EA1";
name = "Bold Italic";
paths = (
{
closed = 1;
nodes = (
"394 -10 OFFCURVE",
"495 69 OFFCURVE",
"521 189 CURVE SMOOTH",
"525 207 OFFCURVE",
"527 225 OFFCURVE",
"527 242 CURVE SMOOTH",
"527 313 OFFCURVE",
"490 371 OFFCURVE",
"377 404 CURVE SMOOTH",
"309 424 OFFCURVE",
"279 431 OFFCURVE",
"279 452 CURVE SMOOTH",
"279 487 OFFCURVE",
"329 492 OFFCURVE",
"379 492 CURVE SMOOTH",
"425 492 OFFCURVE",
"480 482 OFFCURVE",
"542 455 CURVE",
"578 624 LINE",
"531 639 OFFCURVE",
"446 654 OFFCURVE",
"378 654 CURVE SMOOTH",
"187 654 OFFCURVE",
"89 594 OFFCURVE",
"60 456 CURVE SMOOTH",
"56 439 OFFCURVE",
"54 422 OFFCURVE",
"54 408 CURVE SMOOTH",
"54 333 OFFCURVE",
"100 289 OFFCURVE",
"187 257 CURVE SMOOTH",
"264 229 OFFCURVE",
"307 221 OFFCURVE",
"300 188 CURVE SMOOTH",
"294 159 OFFCURVE",
"262 150 OFFCURVE",
"209 150 CURVE SMOOTH",
"146 150 OFFCURVE",
"69 171 OFFCURVE",
"13 200 CURVE",
"-23 32 LINE",
"28 5 OFFCURVE",
"111 -10 OFFCURVE",
"198 -10 CURVE SMOOTH"
);
},
{
closed = 1;
nodes = (
"252 -176 LINE",
"280 -46 LINE",
"137 -46 LINE",
"109 -176 LINE"
);
}
);
width = 557;
}
);
leftKerningGroup = S;
note = Sdotbelow;
rightKerningGroup = S;
unicode = 1E62;
},
{
glyphname = Germandbls;
lastChange = "2015-11-26 07:52:31 +0000";
layers = (
{
layerId = "DD5B64A7-4DAF-4BC4-A4CC-81A10E608EA1";
name = "Bold Italic";
paths = (
{
closed = 1;
nodes = (
"507 -10 OFFCURVE",
"586 50 OFFCURVE",
"608 170 CURVE SMOOTH",
"610 181 OFFCURVE",
"611 192 OFFCURVE",
"611 202 CURVE SMOOTH",
"611 270 OFFCURVE",
"566 314 OFFCURVE",
"508 314 CURVE SMOOTH",
"486 314 LINE",
"638 415 LINE",
"639 423 OFFCURVE",
"640 432 OFFCURVE",
"640 440 CURVE SMOOTH",
"640 546 OFFCURVE",
"551 654 OFFCURVE",
"400 654 CURVE SMOOTH",
"201 654 OFFCURVE",
"98 561 OFFCURVE",
"65 405 CURVE SMOOTH",
"-21 0 LINE",
"181 0 LINE",
"265 399 LINE SMOOTH",
"276 450 OFFCURVE",
"311 477 OFFCURVE",
"373 477 CURVE SMOOTH",
"415 477 OFFCURVE",
"444 459 OFFCURVE",
"443 438 CURVE",
"299 338 LINE",
"276 229 LINE",
"339 229 LINE SMOOTH",
"376 229 OFFCURVE",
"394 219 OFFCURVE",
"394 199 CURVE SMOOTH",
"394 196 OFFCURVE",
"394 192 OFFCURVE",
"393 189 CURVE SMOOTH",
"385 153 OFFCURVE",
"366 141 OFFCURVE",
"323 141 CURVE SMOOTH",
"301 141 OFFCURVE",
"271 146 OFFCURVE",
"252 154 CURVE",
"222 12 LINE",
"249 -2 OFFCURVE",
"298 -10 OFFCURVE",
"350 -10 CURVE SMOOTH"
);
}
);
width = 648;
}
);
note = uni1E9E;
unicode = 1E9E;
},
{
glyphname = Schwa;
lastChange = "2015-11-26 07:52:35 +0000";
layers = (
{
layerId = "DD5B64A7-4DAF-4BC4-A4CC-81A10E608EA1";
name = "Bold Italic";
paths = (
{
closed = 1;
nodes = (
"513 -10 OFFCURVE",
"644 116 OFFCURVE",
"686 312 CURVE SMOOTH",
"692 341 OFFCURVE",
"695 369 OFFCURVE",
"695 395 CURVE SMOOTH",
"695 555 OFFCURVE",
"582 654 OFFCURVE",
"403 654 CURVE SMOOTH",
"296 654 OFFCURVE",
"195 634 OFFCURVE",
"125 607 CURVE",
"95 469 LINE",
"147 490 OFFCURVE",
"254 512 OFFCURVE",
"326 512 CURVE SMOOTH",
"467 512 OFFCURVE",
"506 489 OFFCURVE",
"506 417 CURVE SMOOTH",
"506 411 OFFCURVE",
"505 405 OFFCURVE",
"505 399 CURVE",
"48 399 LINE",
"24 283 LINE SMOOTH",
"18 256 OFFCURVE",
"16 232 OFFCURVE",
"16 208 CURVE SMOOTH",
"16 69 OFFCURVE",
"116 -10 OFFCURVE",
"284 -10 CURVE SMOOTH"
);
},
{
closed = 1;
nodes = (
"224 123 OFFCURVE",
"195 153 OFFCURVE",
"195 198 CURVE SMOOTH",
"195 209 OFFCURVE",
"197 221 OFFCURVE",
"200 233 CURVE SMOOTH",
"206 259 LINE",
"476 259 LINE",
"457 173 OFFCURVE",
"411 123 OFFCURVE",
"313 123 CURVE SMOOTH"
);
}
);
width = 696;
}
);
note = uni018F;
unicode = 018F;
},
{
glyphname = T;
lastChange = "2015-11-26 07:52:31 +0000";
layers = (
{
layerId = "DD5B64A7-4DAF-4BC4-A4CC-81A10E608EA1";
name = "Bold Italic";
paths = (
{
closed = 1;
nodes = (
"331 0 LINE",
"434 487 LINE",
"607 487 LINE",
"640 644 LINE",
"80 644 LINE",
"47 487 LINE",
"219 487 LINE",
"116 0 LINE"
);
}
);
width = 560;
}
);
leftKerningGroup = T;
note = T;
rightKerningGroup = T;
unicode = 0054;
},
{
glyphname = Tbar;
lastChange = "2015-11-26 07:52:31 +0000";
layers = (
{
layerId = "DD5B64A7-4DAF-4BC4-A4CC-81A10E608EA1";
name = "Bold Italic";
paths = (
{
closed = 1;
nodes = (
"331 0 LINE",
"384 252 LINE",
"470 252 LINE",
"500 392 LINE",
"414 392 LINE",
"434 487 LINE",
"607 487 LINE",
"640 644 LINE",
"80 644 LINE",
"47 487 LINE",
"219 487 LINE",
"199 392 LINE",
"116 392 LINE",
"86 252 LINE",
"169 252 LINE",
"116 0 LINE"
);
}
);
width = 560;
}
);
leftKerningGroup = T;
note = Tbar;
rightKerningGroup = T;
unicode = 0166;
},
{
glyphname = Tcaron;
lastChange = "2015-11-26 07:52:34 +0000";
layers = (
{
layerId = "DD5B64A7-4DAF-4BC4-A4CC-81A10E608EA1";
name = "Bold Italic";
paths = (
{
closed = 1;
nodes = (
"331 0 LINE",
"434 487 LINE",
"607 487 LINE",
"640 644 LINE",
"80 644 LINE",
"47 487 LINE",
"219 487 LINE",
"116 0 LINE"
);
},
{
closed = 1;
nodes = (
"433 688 LINE",
"642 896 LINE",
"484 896 LINE",
"385 788 LINE",
"335 896 LINE",
"186 896 LINE",
"307 688 LINE"
);
}
);
width = 560;
}
);
leftKerningGroup = T;
note = Tcaron;
rightKerningGroup = T;
unicode = 0164;
},
{
glyphname = Tcedilla;
lastChange = "2015-11-26 07:52:31 +0000";
layers = (
{
layerId = "DD5B64A7-4DAF-4BC4-A4CC-81A10E608EA1";
name = "Bold Italic";
paths = (
{
closed = 1;
nodes = (
"275 -240 OFFCURVE",
"339 -200 OFFCURVE",
"353 -134 CURVE SMOOTH",
"355 -126 OFFCURVE",
"355 -119 OFFCURVE",
"355 -112 CURVE SMOOTH",
"355 -69 OFFCURVE",
"326 -39 OFFCURVE",
"263 -39 CURVE",
"286 0 LINE",
"331 0 LINE",
"434 487 LINE",
"607 487 LINE",
"640 644 LINE",
"80 644 LINE",
"47 487 LINE",
"219 487 LINE",
"116 0 LINE",
"174 0 LINE",
"124 -101 LINE",
"193 -101 LINE SMOOTH",
"217 -101 OFFCURVE",
"233 -105 OFFCURVE",
"233 -122 CURVE SMOOTH",
"233 -152 OFFCURVE",
"207 -165 OFFCURVE",
"155 -165 CURVE SMOOTH",
"135 -165 OFFCURVE",
"115 -162 OFFCURVE",
"98 -157 CURVE",
"82 -232 LINE",
"96 -236 OFFCURVE",
"141 -240 OFFCURVE",
"165 -240 CURVE SMOOTH"
);
}
);
width = 560;
}
);
leftKerningGroup = T;
note = Tcedilla;
rightKerningGroup = T;
unicode = 0162;
},
{
glyphname = Tcommaaccent;
lastChange = "2015-11-26 07:52:34 +0000";
layers = (
{
layerId = "DD5B64A7-4DAF-4BC4-A4CC-81A10E608EA1";
name = "Bold Italic";
paths = (
{
closed = 1;
nodes = (
"319 0 LINE",
"422 487 LINE",
"595 487 LINE",
"628 644 LINE",
"68 644 LINE",
"35 487 LINE",
"207 487 LINE",
"104 0 LINE"
);
},
{
closed = 1;
nodes = (
"171 -277 LINE",
"283 -40 LINE",
"117 -40 LINE",
"32 -277 LINE"
);
}
);
width = 548;
}
);
leftKerningGroup = T;
note = Tcommaaccent;
rightKerningGroup = T;
unicode = 021A;
},
{
glyphname = Tdotbelow;
lastChange = "2015-11-26 07:52:35 +0000";
layers = (
{
layerId = "DD5B64A7-4DAF-4BC4-A4CC-81A10E608EA1";
name = "Bold Italic";
paths = (
{
closed = 1;
nodes = (
"331 0 LINE",
"434 487 LINE",
"607 487 LINE",
"640 644 LINE",
"80 644 LINE",
"47 487 LINE",
"219 487 LINE",
"116 0 LINE"
);
},
{
closed = 1;
nodes = (
"260 -176 LINE",
"288 -46 LINE",
"145 -46 LINE",
"117 -176 LINE"
);
}
);
width = 560;
}
);
leftKerningGroup = T;
note = Tdotbelow;
rightKerningGroup = T;
unicode = 1E6C;
},
{
glyphname = Tlinebelow;
lastChange = "2015-11-26 07:52:36 +0000";
layers = (
{
layerId = "DD5B64A7-4DAF-4BC4-A4CC-81A10E608EA1";
name = "Bold Italic";
paths = (
{
closed = 1;
nodes = (
"331 0 LINE",
"434 487 LINE",
"607 487 LINE",
"640 644 LINE",
"80 644 LINE",
"47 487 LINE",
"219 487 LINE",
"116 0 LINE"
);
},
{
closed = 1;
nodes = (
"355 -176 LINE",
"382 -50 LINE",
"44 -50 LINE",
"17 -176 LINE"
);
}
);
width = 560;
}
);
leftKerningGroup = T;
note = Tlinebelow;
rightKerningGroup = T;
unicode = 1E6E;
},
{
glyphname = U;
lastChange = "2015-11-26 07:52:31 +0000";
layers = (
{
layerId = "DD5B64A7-4DAF-4BC4-A4CC-81A10E608EA1";
name = "Bold Italic";
paths = (
{
closed = 1;
nodes = (
"488 -10 OFFCURVE",
"622 81 OFFCURVE",
"658 251 CURVE SMOOTH",
"741 644 LINE",
"526 644 LINE",
"448 276 LINE SMOOTH",
"432 200 OFFCURVE",
"397 172 OFFCURVE",
"328 172 CURVE SMOOTH",
"272 172 OFFCURVE",
"247 189 OFFCURVE",
"247 234 CURVE SMOOTH",
"247 246 OFFCURVE",
"249 260 OFFCURVE",
"252 276 CURVE SMOOTH",
"330 644 LINE",
"115 644 LINE",
"37 275 LINE SMOOTH",
"33 254 OFFCURVE",
"30 234 OFFCURVE",
"30 214 CURVE SMOOTH",
"30 79 OFFCURVE",
"133 -10 OFFCURVE",
"289 -10 CURVE SMOOTH"
);
}
);
width = 696;
}
);
leftKerningGroup = U;
note = U;
rightKerningGroup = U;
unicode = 0055;
},
{
glyphname = Uacute;
lastChange = "2015-11-26 07:52:34 +0000";
layers = (
{
layerId = "DD5B64A7-4DAF-4BC4-A4CC-81A10E608EA1";
name = "Bold Italic";
paths = (
{
closed = 1;
nodes = (
"488 -10 OFFCURVE",
"622 81 OFFCURVE",
"658 251 CURVE SMOOTH",
"741 644 LINE",
"526 644 LINE",
"448 276 LINE SMOOTH",
"432 200 OFFCURVE",
"397 172 OFFCURVE",
"328 172 CURVE SMOOTH",
"272 172 OFFCURVE",
"247 189 OFFCURVE",
"247 234 CURVE SMOOTH",
"247 246 OFFCURVE",
"249 260 OFFCURVE",
"252 276 CURVE SMOOTH",
"330 644 LINE",
"115 644 LINE",
"37 275 LINE SMOOTH",
"33 254 OFFCURVE",
"30 234 OFFCURVE",
"30 214 CURVE SMOOTH",
"30 79 OFFCURVE",
"133 -10 OFFCURVE",
"289 -10 CURVE SMOOTH"
);
},
{
closed = 1;
nodes = (
"516 688 LINE",
"663 904 LINE",
"497 904 LINE",
"359 688 LINE"
);
}
);
width = 696;
}
);
leftKerningGroup = U;
note = Uacute;
rightKerningGroup = U;
unicode = 00DA;
},
{
glyphname = Ubreve;
lastChange = "2015-11-26 07:52:34 +0000";
layers = (
{
layerId = "DD5B64A7-4DAF-4BC4-A4CC-81A10E608EA1";
name = "Bold Italic";
paths = (
{
closed = 1;
nodes = (
"488 -10 OFFCURVE",
"622 81 OFFCURVE",
"658 251 CURVE SMOOTH",
"741 644 LINE",
"526 644 LINE",
"448 276 LINE SMOOTH",
"432 200 OFFCURVE",
"397 172 OFFCURVE",
"328 172 CURVE SMOOTH",
"272 172 OFFCURVE",
"247 189 OFFCURVE",
"247 234 CURVE SMOOTH",
"247 246 OFFCURVE",
"249 260 OFFCURVE",
"252 276 CURVE SMOOTH",
"330 644 LINE",
"115 644 LINE",
"37 275 LINE SMOOTH",
"33 254 OFFCURVE",
"30 234 OFFCURVE",
"30 214 CURVE SMOOTH",
"30 79 OFFCURVE",
"133 -10 OFFCURVE",
"289 -10 CURVE SMOOTH"
);
},
{
closed = 1;
nodes = (
"570 688 OFFCURVE",
"658 760 OFFCURVE",
"686 892 CURVE",
"542 892 LINE",
"532 845 OFFCURVE",
"515 806 OFFCURVE",
"457 806 CURVE SMOOTH",
"417 806 OFFCURVE",
"405 827 OFFCURVE",
"405 857 CURVE SMOOTH",
"405 868 OFFCURVE",
"406 879 OFFCURVE",
"409 892 CURVE",
"277 892 LINE",
"273 872 OFFCURVE",
"271 853 OFFCURVE",
"271 835 CURVE SMOOTH",
"271 740 OFFCURVE",
"334 688 OFFCURVE",
"437 688 CURVE SMOOTH"
);
}
);
width = 696;
}
);
leftKerningGroup = U;
note = Ubreve;
rightKerningGroup = U;
unicode = 016C;
},
{
glyphname = Ucaron;
lastChange = "2015-11-26 07:52:36 +0000";
layers = (
{
layerId = "DD5B64A7-4DAF-4BC4-A4CC-81A10E608EA1";
name = "Bold Italic";
paths = (
{
closed = 1;
nodes = (
"489 -10 OFFCURVE",
"623 81 OFFCURVE",
"659 251 CURVE SMOOTH",
"742 644 LINE",
"527 644 LINE",
"449 276 LINE SMOOTH",
"433 200 OFFCURVE",
"398 172 OFFCURVE",
"329 172 CURVE SMOOTH",
"273 172 OFFCURVE",
"248 189 OFFCURVE",
"248 234 CURVE SMOOTH",
"248 246 OFFCURVE",
"250 260 OFFCURVE",
"253 276 CURVE SMOOTH",
"331 644 LINE",
"116 644 LINE",
"38 275 LINE SMOOTH",
"34 254 OFFCURVE",
"31 234 OFFCURVE",
"31 214 CURVE SMOOTH",
"31 79 OFFCURVE",
"134 -10 OFFCURVE",
"290 -10 CURVE SMOOTH"
);
},
{
closed = 1;
nodes = (
"501 688 LINE",
"710 896 LINE",
"552 896 LINE",
"453 788 LINE",
"403 896 LINE",
"254 896 LINE",
"375 688 LINE"
);
}
);
width = 697;
}
);
leftKerningGroup = U;
note = Ucaron;
rightKerningGroup = U;
unicode = 01D3;
},
{
glyphname = Ucircumflex;
lastChange = "2015-11-26 07:52:35 +0000";
layers = (
{
layerId = "DD5B64A7-4DAF-4BC4-A4CC-81A10E608EA1";
name = "Bold Italic";
paths = (
{
closed = 1;
nodes = (
"488 -10 OFFCURVE",
"622 81 OFFCURVE",
"658 251 CURVE SMOOTH",
"741 644 LINE",
"526 644 LINE",
"448 276 LINE SMOOTH",
"432 200 OFFCURVE",
"397 172 OFFCURVE",
"328 172 CURVE SMOOTH",
"272 172 OFFCURVE",
"247 189 OFFCURVE",
"247 234 CURVE SMOOTH",
"247 246 OFFCURVE",
"249 260 OFFCURVE",
"252 276 CURVE SMOOTH",
"330 644 LINE",
"115 644 LINE",
"37 275 LINE SMOOTH",
"33 254 OFFCURVE",
"30 234 OFFCURVE",
"30 214 CURVE SMOOTH",
"30 79 OFFCURVE",
"133 -10 OFFCURVE",
"289 -10 CURVE SMOOTH"
);
},
{
closed = 1;
nodes = (
"372 688 LINE",
"467 796 LINE",
"520 688 LINE",
"666 688 LINE",
"545 896 LINE",
"418 896 LINE",
"210 688 LINE"
);
}
);
width = 696;
}
);
leftKerningGroup = U;
note = Ucircumflex;
rightKerningGroup = U;
unicode = 00DB;
},
{
glyphname = Udieresis;
lastChange = "2015-11-26 07:52:34 +0000";
layers = (
{
layerId = "DD5B64A7-4DAF-4BC4-A4CC-81A10E608EA1";
name = "Bold Italic";
paths = (
{
closed = 1;
nodes = (
"488 -10 OFFCURVE",
"622 81 OFFCURVE",
"658 251 CURVE SMOOTH",
"741 644 LINE",
"526 644 LINE",
"448 276 LINE SMOOTH",
"432 200 OFFCURVE",
"397 172 OFFCURVE",
"328 172 CURVE SMOOTH",
"272 172 OFFCURVE",
"247 189 OFFCURVE",
"247 234 CURVE SMOOTH",
"247 246 OFFCURVE",
"249 260 OFFCURVE",
"252 276 CURVE SMOOTH",
"330 644 LINE",
"115 644 LINE",
"37 275 LINE SMOOTH",
"33 254 OFFCURVE",
"30 234 OFFCURVE",
"30 214 CURVE SMOOTH",
"30 79 OFFCURVE",
"133 -10 OFFCURVE",
"289 -10 CURVE SMOOTH"
);
},
{
closed = 1;
nodes = (
"403 716 LINE",
"430 847 LINE",
"287 847 LINE",
"260 716 LINE"
);
},
{
closed = 1;
nodes = (
"628 716 LINE",
"655 847 LINE",
"512 847 LINE",
"485 716 LINE"
);
}
);
width = 696;
}
);
leftKerningGroup = U;
note = Udieresis;
rightKerningGroup = U;
unicode = 00DC;
},
{
glyphname = Udieresisacute;
lastChange = "2015-11-26 07:52:35 +0000";
layers = (
{
layerId = "DD5B64A7-4DAF-4BC4-A4CC-81A10E608EA1";
name = "Bold Italic";
paths = (
{
closed = 1;
nodes = (
"488 -10 OFFCURVE",
"622 81 OFFCURVE",
"658 251 CURVE SMOOTH",
"741 644 LINE",
"526 644 LINE",
"448 276 LINE SMOOTH",
"432 200 OFFCURVE",
"397 172 OFFCURVE",
"328 172 CURVE SMOOTH",
"272 172 OFFCURVE",
"247 189 OFFCURVE",
"247 234 CURVE SMOOTH",
"247 246 OFFCURVE",
"249 260 OFFCURVE",
"252 276 CURVE SMOOTH",
"330 644 LINE",
"115 644 LINE",
"37 275 LINE SMOOTH",
"33 254 OFFCURVE",
"30 234 OFFCURVE",
"30 214 CURVE SMOOTH",
"30 79 OFFCURVE",
"133 -10 OFFCURVE",
"289 -10 CURVE SMOOTH"
);
},
{
closed = 1;
nodes = (
"398 695 LINE",
"424 818 LINE",
"284 818 LINE",
"258 695 LINE"
);
},
{
closed = 1;
nodes = (
"620 695 LINE",
"646 818 LINE",
"506 818 LINE",
"480 695 LINE"
);
},
{
closed = 1;
nodes = (
"539 846 LINE",
"641 987 LINE",
"482 987 LINE",
"395 846 LINE"
);
}
);
width = 696;
}
);
leftKerningGroup = U;
note = Udieresisacute;
rightKerningGroup = U;
unicode = 01D7;
},
{
glyphname = Udieresiscaron;
lastChange = "2015-11-26 07:52:34 +0000";
layers = (
{
layerId = "DD5B64A7-4DAF-4BC4-A4CC-81A10E608EA1";
name = "Bold Italic";
paths = (
{
closed = 1;
nodes = (
"488 -10 OFFCURVE",
"622 81 OFFCURVE",
"658 251 CURVE SMOOTH",
"741 644 LINE",
"526 644 LINE",
"448 276 LINE SMOOTH",
"432 200 OFFCURVE",
"397 172 OFFCURVE",
"328 172 CURVE SMOOTH",
"272 172 OFFCURVE",
"247 189 OFFCURVE",
"247 234 CURVE SMOOTH",
"247 246 OFFCURVE",
"249 260 OFFCURVE",
"252 276 CURVE SMOOTH",
"330 644 LINE",
"115 644 LINE",
"37 275 LINE SMOOTH",
"33 254 OFFCURVE",
"30 234 OFFCURVE",
"30 214 CURVE SMOOTH",
"30 79 OFFCURVE",
"133 -10 OFFCURVE",
"289 -10 CURVE SMOOTH"
);
},
{
closed = 1;
nodes = (
"395 695 LINE",
"421 818 LINE",
"281 818 LINE",
"255 695 LINE"
);
},
{
closed = 1;
nodes = (
"616 695 LINE",
"642 818 LINE",
"503 818 LINE",
"477 695 LINE"
);
},
{
closed = 1;
nodes = (
"545 845 LINE",
"711 984 LINE",
"552 984 LINE",
"481 911 LINE",
"442 984 LINE",
"290 984 LINE",
"398 845 LINE"
);
}
);
width = 696;
}
);
leftKerningGroup = U;
note = Udieresiscaron;
rightKerningGroup = U;
unicode = 01D9;
},
{
glyphname = Udieresisgrave;
lastChange = "2015-11-26 07:52:34 +0000";
layers = (
{
layerId = "DD5B64A7-4DAF-4BC4-A4CC-81A10E608EA1";
name = "Bold Italic";
paths = (
{
closed = 1;
nodes = (
"488 -10 OFFCURVE",
"622 81 OFFCURVE",
"658 251 CURVE SMOOTH",
"741 644 LINE",
"526 644 LINE",
"448 276 LINE SMOOTH",
"432 200 OFFCURVE",
"397 172 OFFCURVE",
"328 172 CURVE SMOOTH",
"272 172 OFFCURVE",
"247 189 OFFCURVE",
"247 234 CURVE SMOOTH",
"247 246 OFFCURVE",
"249 260 OFFCURVE",
"252 276 CURVE SMOOTH",
"330 644 LINE",
"115 644 LINE",
"37 275 LINE SMOOTH",
"33 254 OFFCURVE",
"30 234 OFFCURVE",
"30 214 CURVE SMOOTH",
"30 79 OFFCURVE",
"133 -10 OFFCURVE",
"289 -10 CURVE SMOOTH"
);
},
{
closed = 1;
nodes = (
"404 721 LINE",
"430 844 LINE",
"290 844 LINE",
"264 721 LINE"
);
},
{
closed = 1;
nodes = (
"626 721 LINE",
"652 844 LINE",
"512 844 LINE",
"486 721 LINE"
);
},
{
closed = 1;
nodes = (
"553 872 LINE",
"526 1013 LINE",
"367 1013 LINE",
"409 872 LINE"
);
}
);
width = 696;
}
);
leftKerningGroup = U;
note = Udieresisgrave;
rightKerningGroup = U;
unicode = 01DB;
},
{
glyphname = Udieresismacron;
lastChange = "2015-11-26 07:52:35 +0000";
layers = (
{
layerId = "DD5B64A7-4DAF-4BC4-A4CC-81A10E608EA1";
name = "Bold Italic";
paths = (
{
closed = 1;
nodes = (
"488 -10 OFFCURVE",
"622 81 OFFCURVE",
"658 251 CURVE SMOOTH",
"741 644 LINE",
"526 644 LINE",
"448 276 LINE SMOOTH",
"432 200 OFFCURVE",
"397 172 OFFCURVE",
"328 172 CURVE SMOOTH",
"272 172 OFFCURVE",
"247 189 OFFCURVE",
"247 234 CURVE SMOOTH",
"247 246 OFFCURVE",
"249 260 OFFCURVE",
"252 276 CURVE SMOOTH",
"330 644 LINE",
"115 644 LINE",
"37 275 LINE SMOOTH",
"33 254 OFFCURVE",
"30 234 OFFCURVE",
"30 214 CURVE SMOOTH",
"30 79 OFFCURVE",
"133 -10 OFFCURVE",
"289 -10 CURVE SMOOTH"
);
},
{
closed = 1;
nodes = (
"399 697 LINE",
"426 828 LINE",
"283 828 LINE",
"256 697 LINE"
);
},
{
closed = 1;
nodes = (
"624 697 LINE",
"651 828 LINE",
"508 828 LINE",
"481 697 LINE"
);
},
{
closed = 1;
nodes = (
"647 880 LINE",
"674 1006 LINE",
"336 1006 LINE",
"309 880 LINE"
);
}
);
width = 696;
}
);
leftKerningGroup = U;
note = Udieresismacron;
rightKerningGroup = U;
unicode = 01D5;
},
{
glyphname = Udotbelow;
lastChange = "2015-11-26 07:52:35 +0000";
layers = (
{
layerId = "DD5B64A7-4DAF-4BC4-A4CC-81A10E608EA1";
name = "Bold Italic";
paths = (
{
closed = 1;
nodes = (
"488 -10 OFFCURVE",
"622 81 OFFCURVE",
"658 251 CURVE SMOOTH",
"741 644 LINE",
"526 644 LINE",
"448 276 LINE SMOOTH",
"432 200 OFFCURVE",
"397 172 OFFCURVE",
"328 172 CURVE SMOOTH",
"272 172 OFFCURVE",
"247 189 OFFCURVE",
"247 234 CURVE SMOOTH",
"247 246 OFFCURVE",
"249 260 OFFCURVE",
"252 276 CURVE SMOOTH",
"330 644 LINE",
"115 644 LINE",
"37 275 LINE SMOOTH",
"33 254 OFFCURVE",
"30 234 OFFCURVE",
"30 214 CURVE SMOOTH",
"30 79 OFFCURVE",
"133 -10 OFFCURVE",
"289 -10 CURVE SMOOTH"
);
},
{
closed = 1;
nodes = (
"326 -176 LINE",
"354 -46 LINE",
"211 -46 LINE",
"183 -176 LINE"
);
}
);
width = 696;
}
);
leftKerningGroup = U;
note = Udotbelow;
rightKerningGroup = U;
unicode = 1EE4;
},
{
glyphname = Ugrave;
lastChange = "2015-11-26 07:52:34 +0000";
layers = (
{
layerId = "DD5B64A7-4DAF-4BC4-A4CC-81A10E608EA1";
name = "Bold Italic";
paths = (
{
closed = 1;
nodes = (
"488 -10 OFFCURVE",
"622 81 OFFCURVE",
"658 251 CURVE SMOOTH",
"741 644 LINE",
"526 644 LINE",
"448 276 LINE SMOOTH",
"432 200 OFFCURVE",
"397 172 OFFCURVE",
"328 172 CURVE SMOOTH",
"272 172 OFFCURVE",
"247 189 OFFCURVE",
"247 234 CURVE SMOOTH",
"247 246 OFFCURVE",
"249 260 OFFCURVE",
"252 276 CURVE SMOOTH",
"330 644 LINE",
"115 644 LINE",
"37 275 LINE SMOOTH",
"33 254 OFFCURVE",
"30 234 OFFCURVE",
"30 214 CURVE SMOOTH",
"30 79 OFFCURVE",
"133 -10 OFFCURVE",
"289 -10 CURVE SMOOTH"
);
},
{
closed = 1;
nodes = (
"520 688 LINE",
"474 904 LINE",
"307 904 LINE",
"362 688 LINE"
);
}
);
width = 696;
}
);
leftKerningGroup = U;
note = Ugrave;
rightKerningGroup = U;
unicode = 00D9;
},
{
glyphname = Uhookabove;
lastChange = "2015-11-26 07:52:36 +0000";
layers = (
{
layerId = "DD5B64A7-4DAF-4BC4-A4CC-81A10E608EA1";
name = "Bold Italic";
paths = (
{
closed = 1;
nodes = (
"488 -10 OFFCURVE",
"622 81 OFFCURVE",
"658 251 CURVE SMOOTH",
"741 644 LINE",
"526 644 LINE",
"448 276 LINE SMOOTH",
"432 200 OFFCURVE",
"397 172 OFFCURVE",
"328 172 CURVE SMOOTH",
"272 172 OFFCURVE",
"247 189 OFFCURVE",
"247 234 CURVE SMOOTH",
"247 246 OFFCURVE",
"249 260 OFFCURVE",
"252 276 CURVE SMOOTH",
"330 644 LINE",
"115 644 LINE",
"37 275 LINE SMOOTH",
"33 254 OFFCURVE",
"30 234 OFFCURVE",
"30 214 CURVE SMOOTH",
"30 79 OFFCURVE",
"133 -10 OFFCURVE",
"289 -10 CURVE SMOOTH"
);
},
{
closed = 1;
nodes = (
"517 688 LINE",
"525 726 LINE",
"585 743 OFFCURVE",
"617 769 OFFCURVE",
"630 828 CURVE SMOOTH",
"632 835 OFFCURVE",
"632 842 OFFCURVE",
"632 848 CURVE SMOOTH",
"632 898 OFFCURVE",
"589 932 OFFCURVE",
"506 932 CURVE SMOOTH",
"453 932 OFFCURVE",
"412 927 OFFCURVE",
"380 918 CURVE",
"362 832 LINE",
"379 837 OFFCURVE",
"402 841 OFFCURVE",
"422 841 CURVE SMOOTH",
"454 841 OFFCURVE",
"471 834 OFFCURVE",
"471 817 CURVE SMOOTH",
"471 791 OFFCURVE",
"449 773 OFFCURVE",
"374 769 CURVE",
"357 688 LINE"
);
}
);
width = 696;
}
);
leftKerningGroup = U;
note = Uhookabove;
rightKerningGroup = U;
unicode = 1EE6;
},
{
glyphname = Uhorn;
lastChange = "2015-11-26 07:52:31 +0000";
layers = (
{
layerId = "DD5B64A7-4DAF-4BC4-A4CC-81A10E608EA1";
name = "Bold Italic";
paths = (
{
closed = 1;
nodes = (
"483 -10 OFFCURVE",
"610 80 OFFCURVE",
"645 248 CURVE SMOOTH",
"692 468 LINE",
"850 471 OFFCURVE",
"921 525 OFFCURVE",
"956 688 CURVE",
"823 688 LINE",
"808 617 OFFCURVE",
"787 592 OFFCURVE",
"718 590 CURVE",
"729 644 LINE",
"541 644 LINE",
"461 268 LINE SMOOTH",
"444 188 OFFCURVE",
"404 150 OFFCURVE",
"320 150 CURVE SMOOTH",
"252 150 OFFCURVE",
"222 169 OFFCURVE",
"222 221 CURVE SMOOTH",
"222 234 OFFCURVE",
"224 250 OFFCURVE",
"228 268 CURVE SMOOTH",
"308 644 LINE",
"120 644 LINE",
"38 253 LINE SMOOTH",
"34 234 OFFCURVE",
"32 215 OFFCURVE",
"32 198 CURVE SMOOTH",
"32 72 OFFCURVE",
"132 -10 OFFCURVE",
"286 -10 CURVE SMOOTH"
);
}
);
width = 876;
}
);
note = Uhorn;
unicode = 01AF;
},
{
glyphname = Uhornacute;
lastChange = "2015-11-26 07:52:35 +0000";
layers = (
{
layerId = "DD5B64A7-4DAF-4BC4-A4CC-81A10E608EA1";
name = "Bold Italic";
paths = (
{
closed = 1;
nodes = (
"483 -10 OFFCURVE",
"610 80 OFFCURVE",
"645 248 CURVE SMOOTH",
"692 468 LINE",
"850 471 OFFCURVE",
"921 525 OFFCURVE",
"956 688 CURVE",
"823 688 LINE",
"808 617 OFFCURVE",
"787 592 OFFCURVE",
"718 590 CURVE",
"729 644 LINE",
"541 644 LINE",
"461 268 LINE SMOOTH",
"444 188 OFFCURVE",
"404 150 OFFCURVE",
"320 150 CURVE SMOOTH",
"252 150 OFFCURVE",
"222 169 OFFCURVE",
"222 221 CURVE SMOOTH",
"222 234 OFFCURVE",
"224 250 OFFCURVE",
"228 268 CURVE SMOOTH",
"308 644 LINE",
"120 644 LINE",
"38 253 LINE SMOOTH",
"34 234 OFFCURVE",
"32 215 OFFCURVE",
"32 198 CURVE SMOOTH",
"32 72 OFFCURVE",
"132 -10 OFFCURVE",
"286 -10 CURVE SMOOTH"
);
},
{
closed = 1;
nodes = (
"513 688 LINE",
"660 904 LINE",
"494 904 LINE",
"356 688 LINE"
);
}
);
width = 876;
}
);
leftKerningGroup = U;
note = Uhornacute;
rightKerningGroup = U;
unicode = 1EE8;
},
{
glyphname = Uhorndotbelow;
lastChange = "2015-11-26 07:52:35 +0000";
layers = (
{
layerId = "DD5B64A7-4DAF-4BC4-A4CC-81A10E608EA1";
name = "Bold Italic";
paths = (
{
closed = 1;
nodes = (
"483 -10 OFFCURVE",
"610 80 OFFCURVE",
"645 248 CURVE SMOOTH",
"692 468 LINE",
"850 471 OFFCURVE",
"921 525 OFFCURVE",
"956 688 CURVE",
"823 688 LINE",
"808 617 OFFCURVE",
"787 592 OFFCURVE",
"718 590 CURVE",
"729 644 LINE",
"541 644 LINE",
"461 268 LINE SMOOTH",
"444 188 OFFCURVE",
"404 150 OFFCURVE",
"320 150 CURVE SMOOTH",
"252 150 OFFCURVE",
"222 169 OFFCURVE",
"222 221 CURVE SMOOTH",
"222 234 OFFCURVE",
"224 250 OFFCURVE",
"228 268 CURVE SMOOTH",
"308 644 LINE",
"120 644 LINE",
"38 253 LINE SMOOTH",
"34 234 OFFCURVE",
"32 215 OFFCURVE",
"32 198 CURVE SMOOTH",
"32 72 OFFCURVE",
"132 -10 OFFCURVE",
"286 -10 CURVE SMOOTH"
);
},
{
closed = 1;
nodes = (
"329 -176 LINE",
"357 -46 LINE",
"214 -46 LINE",
"186 -176 LINE"
);
}
);
width = 876;
}
);
leftKerningGroup = U;
note = Uhorndotbelow;
rightKerningGroup = U;
unicode = 1EF0;
},
{
glyphname = Uhorngrave;
lastChange = "2015-11-26 07:52:34 +0000";
layers = (
{
layerId = "DD5B64A7-4DAF-4BC4-A4CC-81A10E608EA1";
name = "Bold Italic";
paths = (
{
closed = 1;
nodes = (
"483 -10 OFFCURVE",
"610 80 OFFCURVE",
"645 248 CURVE SMOOTH",
"692 468 LINE",
"850 471 OFFCURVE",
"921 525 OFFCURVE",
"956 688 CURVE",
"823 688 LINE",
"808 617 OFFCURVE",
"787 592 OFFCURVE",
"718 590 CURVE",
"729 644 LINE",
"541 644 LINE",
"461 268 LINE SMOOTH",
"444 188 OFFCURVE",
"404 150 OFFCURVE",
"320 150 CURVE SMOOTH",
"252 150 OFFCURVE",
"222 169 OFFCURVE",
"222 221 CURVE SMOOTH",
"222 234 OFFCURVE",
"224 250 OFFCURVE",
"228 268 CURVE SMOOTH",
"308 644 LINE",
"120 644 LINE",
"38 253 LINE SMOOTH",
"34 234 OFFCURVE",
"32 215 OFFCURVE",
"32 198 CURVE SMOOTH",
"32 72 OFFCURVE",
"132 -10 OFFCURVE",
"286 -10 CURVE SMOOTH"
);
},
{
closed = 1;
nodes = (
"524 688 LINE",
"478 904 LINE",
"311 904 LINE",
"366 688 LINE"
);
}
);
width = 876;
}
);
leftKerningGroup = U;
note = Uhorngrave;
rightKerningGroup = U;
unicode = 1EEA;
},
{
glyphname = Uhornhookabove;
lastChange = "2015-11-26 07:52:34 +0000";
layers = (
{
layerId = "DD5B64A7-4DAF-4BC4-A4CC-81A10E608EA1";
name = "Bold Italic";
paths = (
{
closed = 1;
nodes = (
"483 -10 OFFCURVE",
"610 80 OFFCURVE",
"645 248 CURVE SMOOTH",
"692 468 LINE",
"850 471 OFFCURVE",
"921 525 OFFCURVE",
"956 688 CURVE",
"823 688 LINE",
"808 617 OFFCURVE",
"787 592 OFFCURVE",
"718 590 CURVE",
"729 644 LINE",
"541 644 LINE",
"461 268 LINE SMOOTH",
"444 188 OFFCURVE",
"404 150 OFFCURVE",
"320 150 CURVE SMOOTH",
"252 150 OFFCURVE",
"222 169 OFFCURVE",
"222 221 CURVE SMOOTH",
"222 234 OFFCURVE",
"224 250 OFFCURVE",
"228 268 CURVE SMOOTH",
"308 644 LINE",
"120 644 LINE",
"38 253 LINE SMOOTH",
"34 234 OFFCURVE",
"32 215 OFFCURVE",
"32 198 CURVE SMOOTH",
"32 72 OFFCURVE",
"132 -10 OFFCURVE",
"286 -10 CURVE SMOOTH"
);
},
{
closed = 1;
nodes = (
"503 688 LINE",
"511 726 LINE",
"571 743 OFFCURVE",
"603 769 OFFCURVE",
"616 828 CURVE SMOOTH",
"618 835 OFFCURVE",
"618 842 OFFCURVE",
"618 848 CURVE SMOOTH",
"618 898 OFFCURVE",
"575 932 OFFCURVE",
"492 932 CURVE SMOOTH",
"439 932 OFFCURVE",
"398 927 OFFCURVE",
"366 918 CURVE",
"348 832 LINE",
"365 837 OFFCURVE",
"388 841 OFFCURVE",
"408 841 CURVE SMOOTH",
"440 841 OFFCURVE",
"457 834 OFFCURVE",
"457 817 CURVE SMOOTH",
"457 791 OFFCURVE",
"435 773 OFFCURVE",
"360 769 CURVE",
"343 688 LINE"
);
}
);
width = 876;
}
);
leftKerningGroup = U;
note = Uhornhookabove;
rightKerningGroup = U;
unicode = 1EEC;
},
{
glyphname = Uhorntilde;
lastChange = "2015-11-26 07:52:35 +0000";
layers = (
{
layerId = "DD5B64A7-4DAF-4BC4-A4CC-81A10E608EA1";
name = "Bold Italic";
paths = (
{
closed = 1;
nodes = (
"483 -10 OFFCURVE",
"610 80 OFFCURVE",
"645 248 CURVE SMOOTH",
"692 468 LINE",
"850 471 OFFCURVE",
"921 525 OFFCURVE",
"956 688 CURVE",
"823 688 LINE",
"808 617 OFFCURVE",
"787 592 OFFCURVE",
"718 590 CURVE",
"729 644 LINE",
"541 644 LINE",
"461 268 LINE SMOOTH",
"444 188 OFFCURVE",
"404 150 OFFCURVE",
"320 150 CURVE SMOOTH",
"252 150 OFFCURVE",
"222 169 OFFCURVE",
"222 221 CURVE SMOOTH",
"222 234 OFFCURVE",
"224 250 OFFCURVE",
"228 268 CURVE SMOOTH",
"308 644 LINE",
"120 644 LINE",
"38 253 LINE SMOOTH",
"34 234 OFFCURVE",
"32 215 OFFCURVE",
"32 198 CURVE SMOOTH",
"32 72 OFFCURVE",
"132 -10 OFFCURVE",
"286 -10 CURVE SMOOTH"
);
},
{
closed = 1;
nodes = (
"585 690 OFFCURVE",
"625 706 OFFCURVE",
"642 724 CURVE",
"670 854 LINE",
"649 831 OFFCURVE",
"611 813 OFFCURVE",
"567 813 CURVE SMOOTH",
"501 813 OFFCURVE",
"455 856 OFFCURVE",
"385 856 CURVE SMOOTH",
"345 856 OFFCURVE",
"303 840 OFFCURVE",
"280 822 CURVE",
"252 693 LINE",
"282 717 OFFCURVE",
"318 733 OFFCURVE",
"362 733 CURVE SMOOTH",
"420 733 OFFCURVE",
"475 690 OFFCURVE",
"544 690 CURVE SMOOTH"
);
}
);
width = 876;
}
);
leftKerningGroup = U;
note = Uhorntilde;
rightKerningGroup = U;
unicode = 1EEE;
},
{
glyphname = Uhungarumlaut;
lastChange = "2015-11-26 07:52:35 +0000";
layers = (
{
layerId = "DD5B64A7-4DAF-4BC4-A4CC-81A10E608EA1";
name = "Bold Italic";
paths = (
{
closed = 1;
nodes = (
"488 -10 OFFCURVE",
"622 81 OFFCURVE",
"658 251 CURVE SMOOTH",
"741 644 LINE",
"526 644 LINE",
"448 276 LINE SMOOTH",
"432 200 OFFCURVE",
"397 172 OFFCURVE",
"328 172 CURVE SMOOTH",
"272 172 OFFCURVE",
"247 189 OFFCURVE",
"247 234 CURVE SMOOTH",
"247 246 OFFCURVE",
"249 260 OFFCURVE",
"252 276 CURVE SMOOTH",
"330 644 LINE",
"115 644 LINE",
"37 275 LINE SMOOTH",
"33 254 OFFCURVE",
"30 234 OFFCURVE",
"30 214 CURVE SMOOTH",
"30 79 OFFCURVE",
"133 -10 OFFCURVE",
"289 -10 CURVE SMOOTH"
);
},
{
closed = 1;
nodes = (
"376 688 LINE",
"524 882 LINE",
"343 882 LINE",
"212 688 LINE"
);
},
{
closed = 1;
nodes = (
"627 688 LINE",
"776 882 LINE",
"594 882 LINE",
"463 688 LINE"
);
}
);
width = 696;
}
);
leftKerningGroup = U;
note = Uhungarumlaut;
rightKerningGroup = U;
unicode = 0170;
},
{
glyphname = Umacron;
lastChange = "2015-11-26 07:52:34 +0000";
layers = (
{
layerId = "DD5B64A7-4DAF-4BC4-A4CC-81A10E608EA1";
name = "Bold Italic";
paths = (
{
closed = 1;
nodes = (
"488 -10 OFFCURVE",
"622 81 OFFCURVE",
"658 251 CURVE SMOOTH",
"741 644 LINE",
"526 644 LINE",
"448 276 LINE SMOOTH",
"432 200 OFFCURVE",
"397 172 OFFCURVE",
"328 172 CURVE SMOOTH",
"272 172 OFFCURVE",
"247 189 OFFCURVE",
"247 234 CURVE SMOOTH",
"247 246 OFFCURVE",
"249 260 OFFCURVE",
"252 276 CURVE SMOOTH",
"330 644 LINE",
"115 644 LINE",
"37 275 LINE SMOOTH",
"33 254 OFFCURVE",
"30 234 OFFCURVE",
"30 214 CURVE SMOOTH",
"30 79 OFFCURVE",
"133 -10 OFFCURVE",
"289 -10 CURVE SMOOTH"
);
},
{
closed = 1;
nodes = (
"614 725 LINE",
"641 851 LINE",
"303 851 LINE",
"276 725 LINE"
);
}
);
width = 696;
}
);
leftKerningGroup = U;
note = Umacron;
rightKerningGroup = U;
unicode = 016A;
},
{
glyphname = Uogonek;
lastChange = "2015-11-26 07:52:31 +0000";
layers = (
{
layerId = "DD5B64A7-4DAF-4BC4-A4CC-81A10E608EA1";
name = "Bold Italic";
paths = (
{
closed = 1;
nodes = (
"298 -220 OFFCURVE",
"343 -211 OFFCURVE",
"365 -203 CURVE",
"386 -107 LINE",
"372 -114 OFFCURVE",
"350 -118 OFFCURVE",
"333 -118 CURVE SMOOTH",
"309 -118 OFFCURVE",
"296 -111 OFFCURVE",
"296 -93 CURVE SMOOTH",
"296 -90 OFFCURVE",
"296 -87 OFFCURVE",
"297 -83 CURVE SMOOTH",
"303 -54 OFFCURVE",
"325 -29 OFFCURVE",
"357 -6 CURVE",
"518 12 OFFCURVE",
"626 101 OFFCURVE",
"658 251 CURVE SMOOTH",
"741 644 LINE",
"526 644 LINE",
"448 276 LINE SMOOTH",
"432 200 OFFCURVE",
"397 172 OFFCURVE",
"328 172 CURVE SMOOTH",
"272 172 OFFCURVE",
"247 189 OFFCURVE",
"247 234 CURVE SMOOTH",
"247 246 OFFCURVE",
"249 260 OFFCURVE",
"252 276 CURVE SMOOTH",
"330 644 LINE",
"115 644 LINE",
"37 275 LINE SMOOTH",
"32 254 OFFCURVE",
"30 233 OFFCURVE",
"30 213 CURVE SMOOTH",
"30 98 OFFCURVE",
"105 17 OFFCURVE",
"225 -4 CURVE",
"173 -34 OFFCURVE",
"130 -84 OFFCURVE",
"130 -143 CURVE SMOOTH",
"130 -196 OFFCURVE",
"179 -220 OFFCURVE",
"252 -220 CURVE SMOOTH"
);
}
);
width = 696;
}
);
leftKerningGroup = U;
note = Uogonek;
rightKerningGroup = U;
unicode = 0172;
},
{
glyphname = Uring;
lastChange = "2015-11-26 07:52:35 +0000";
layers = (
{
layerId = "DD5B64A7-4DAF-4BC4-A4CC-81A10E608EA1";
name = "Bold Italic";
paths = (
{
closed = 1;
nodes = (
"488 -10 OFFCURVE",
"622 81 OFFCURVE",
"658 251 CURVE SMOOTH",
"741 644 LINE",
"526 644 LINE",
"448 276 LINE SMOOTH",
"432 200 OFFCURVE",
"397 172 OFFCURVE",
"328 172 CURVE SMOOTH",
"272 172 OFFCURVE",
"247 189 OFFCURVE",
"247 234 CURVE SMOOTH",
"247 246 OFFCURVE",
"249 260 OFFCURVE",
"252 276 CURVE SMOOTH",
"330 644 LINE",
"115 644 LINE",
"37 275 LINE SMOOTH",
"33 254 OFFCURVE",
"30 234 OFFCURVE",
"30 214 CURVE SMOOTH",
"30 79 OFFCURVE",
"133 -10 OFFCURVE",
"289 -10 CURVE SMOOTH"
);
},
{
closed = 1;
nodes = (
"537 688 OFFCURVE",
"596 748 OFFCURVE",
"612 825 CURVE SMOOTH",
"614 836 OFFCURVE",
"616 847 OFFCURVE",
"616 858 CURVE SMOOTH",
"616 919 OFFCURVE",
"574 963 OFFCURVE",
"495 963 CURVE SMOOTH",
"395 963 OFFCURVE",
"337 903 OFFCURVE",
"320 825 CURVE SMOOTH",
"318 814 OFFCURVE",
"317 804 OFFCURVE",
"317 794 CURVE SMOOTH",
"317 732 OFFCURVE",
"359 688 OFFCURVE",
"436 688 CURVE SMOOTH"
);
},
{
closed = 1;
nodes = (
"421 773 OFFCURVE",
"408 789 OFFCURVE",
"408 811 CURVE SMOOTH",
"408 844 OFFCURVE",
"435 878 OFFCURVE",
"477 878 CURVE SMOOTH",
"510 878 OFFCURVE",
"522 862 OFFCURVE",
"522 840 CURVE SMOOTH",
"522 807 OFFCURVE",
"498 773 OFFCURVE",
"454 773 CURVE SMOOTH"
);
}
);
width = 696;
}
);
leftKerningGroup = U;
note = Uring;
rightKerningGroup = U;
unicode = 016E;
},
{
glyphname = Utilde;
lastChange = "2015-11-26 07:52:35 +0000";
layers = (
{
layerId = "DD5B64A7-4DAF-4BC4-A4CC-81A10E608EA1";
name = "Bold Italic";
paths = (
{
closed = 1;
nodes = (
"488 -10 OFFCURVE",
"622 81 OFFCURVE",
"658 251 CURVE SMOOTH",
"741 644 LINE",
"526 644 LINE",
"448 276 LINE SMOOTH",
"432 200 OFFCURVE",
"397 172 OFFCURVE",
"328 172 CURVE SMOOTH",
"272 172 OFFCURVE",
"247 189 OFFCURVE",
"247 234 CURVE SMOOTH",
"247 246 OFFCURVE",
"249 260 OFFCURVE",
"252 276 CURVE SMOOTH",
"330 644 LINE",
"115 644 LINE",
"37 275 LINE SMOOTH",
"33 254 OFFCURVE",
"30 234 OFFCURVE",
"30 214 CURVE SMOOTH",
"30 79 OFFCURVE",
"133 -10 OFFCURVE",
"289 -10 CURVE SMOOTH"
);
},
{
closed = 1;
nodes = (
"581 694 OFFCURVE",
"621 710 OFFCURVE",
"638 728 CURVE",
"666 858 LINE",
"645 835 OFFCURVE",
"607 817 OFFCURVE",
"563 817 CURVE SMOOTH",
"497 817 OFFCURVE",
"451 860 OFFCURVE",
"381 860 CURVE SMOOTH",
"341 860 OFFCURVE",
"299 844 OFFCURVE",
"276 826 CURVE",
"248 697 LINE",
"278 721 OFFCURVE",
"314 737 OFFCURVE",
"358 737 CURVE SMOOTH",
"416 737 OFFCURVE",
"471 694 OFFCURVE",
"540 694 CURVE SMOOTH"
);
}
);
width = 696;
}
);
leftKerningGroup = U;
note = Utilde;
rightKerningGroup = U;
unicode = 0168;
},
{
glyphname = V;
lastChange = "2015-11-26 07:52:31 +0000";
layers = (
{
layerId = "DD5B64A7-4DAF-4BC4-A4CC-81A10E608EA1";
name = "Bold Italic";
paths = (
{
closed = 1;
nodes = (
"436 0 LINE",
"820 644 LINE",
"589 644 LINE",
"370 252 LINE",
"318 644 LINE",
"100 644 LINE",
"211 0 LINE"
);
}
);
width = 760;
}
);
note = V;
unicode = 0056;
},
{
glyphname = W;
lastChange = "2015-11-26 07:52:31 +0000";
layers = (
{
layerId = "DD5B64A7-4DAF-4BC4-A4CC-81A10E608EA1";
name = "Bold Italic";
paths = (
{
closed = 1;
nodes = (
"310 0 LINE",
"466 293 LINE",
"491 0 LINE",
"676 0 LINE",
"961 644 LINE",
"751 644 LINE",
"623 349 LINE",
"600 644 LINE",
"425 644 LINE",
"403 541 LINE",
"309 350 LINE",
"310 644 LINE",
"100 644 LINE",
"114 0 LINE"
);
}
);
width = 901;
}
);
leftKerningGroup = W;
note = W;
rightKerningGroup = W;
unicode = 0057;
},
{
glyphname = Wacute;
lastChange = "2015-11-26 07:52:34 +0000";
layers = (
{
layerId = "DD5B64A7-4DAF-4BC4-A4CC-81A10E608EA1";
name = "Bold Italic";
paths = (
{
closed = 1;
nodes = (
"310 0 LINE",
"466 293 LINE",
"491 0 LINE",
"676 0 LINE",
"961 644 LINE",
"751 644 LINE",
"623 349 LINE",
"600 644 LINE",
"425 644 LINE",
"403 541 LINE",
"309 350 LINE",
"310 644 LINE",
"100 644 LINE",
"114 0 LINE"
);
},
{
closed = 1;
nodes = (
"596 688 LINE",
"743 904 LINE",
"577 904 LINE",
"439 688 LINE"
);
}
);
width = 901;
}
);
leftKerningGroup = W;
note = Wacute;
rightKerningGroup = W;
unicode = 1E82;
},
{
glyphname = Wcircumflex;
lastChange = "2015-11-26 07:52:35 +0000";
layers = (
{
layerId = "DD5B64A7-4DAF-4BC4-A4CC-81A10E608EA1";
name = "Bold Italic";
paths = (
{
closed = 1;
nodes = (
"310 0 LINE",
"466 293 LINE",
"491 0 LINE",
"676 0 LINE",
"961 644 LINE",
"751 644 LINE",
"623 349 LINE",
"600 644 LINE",
"425 644 LINE",
"403 541 LINE",
"309 350 LINE",
"310 644 LINE",
"100 644 LINE",
"114 0 LINE"
);
},
{
closed = 1;
nodes = (
"478 688 LINE",
"573 796 LINE",
"626 688 LINE",
"772 688 LINE",
"651 896 LINE",
"524 896 LINE",
"316 688 LINE"
);
}
);
width = 901;
}
);
leftKerningGroup = W;
note = Wcircumflex;
rightKerningGroup = W;
unicode = 0174;
},
{
glyphname = Wdieresis;
lastChange = "2015-11-26 07:52:35 +0000";
layers = (
{
layerId = "DD5B64A7-4DAF-4BC4-A4CC-81A10E608EA1";
name = "Bold Italic";
paths = (
{
closed = 1;
nodes = (
"310 0 LINE",
"466 293 LINE",
"491 0 LINE",
"676 0 LINE",
"961 644 LINE",
"751 644 LINE",
"623 349 LINE",
"600 644 LINE",
"425 644 LINE",
"403 541 LINE",
"309 350 LINE",
"310 644 LINE",
"100 644 LINE",
"114 0 LINE"
);
},
{
closed = 1;
nodes = (
"510 716 LINE",
"537 847 LINE",
"394 847 LINE",
"367 716 LINE"
);
},
{
closed = 1;
nodes = (
"735 716 LINE",
"762 847 LINE",
"619 847 LINE",
"592 716 LINE"
);
}
);
width = 901;
}
);
leftKerningGroup = W;
note = Wdieresis;
rightKerningGroup = W;
unicode = 1E84;
},
{
glyphname = Wgrave;
lastChange = "2015-11-26 07:52:35 +0000";
layers = (
{
layerId = "DD5B64A7-4DAF-4BC4-A4CC-81A10E608EA1";
name = "Bold Italic";
paths = (
{
closed = 1;
nodes = (
"310 0 LINE",
"466 293 LINE",
"491 0 LINE",
"676 0 LINE",
"961 644 LINE",
"751 644 LINE",
"623 349 LINE",
"600 644 LINE",
"425 644 LINE",
"403 541 LINE",
"309 350 LINE",
"310 644 LINE",
"100 644 LINE",
"114 0 LINE"
);
},
{
closed = 1;
nodes = (
"606 688 LINE",
"560 904 LINE",
"393 904 LINE",
"448 688 LINE"
);
}
);
width = 901;
}
);
leftKerningGroup = W;
note = Wgrave;
rightKerningGroup = W;
unicode = 1E80;
},
{
glyphname = X;
lastChange = "2015-11-26 07:52:31 +0000";
layers = (
{
layerId = "DD5B64A7-4DAF-4BC4-A4CC-81A10E608EA1";
name = "Bold Italic";
paths = (
{
closed = 1;
nodes = (
"196 0 LINE",
"357 175 LINE",
"445 0 LINE",
"672 0 LINE",
"503 326 LINE",
"799 644 LINE",
"575 644 LINE",
"420 475 LINE",
"338 644 LINE",
"114 644 LINE",
"276 326 LINE",
"-31 0 LINE"
);
}
);
width = 781;
}
);
note = X;
unicode = 0058;
},
{
glyphname = Y;
lastChange = "2015-11-26 07:52:31 +0000";
layers = (
{
layerId = "DD5B64A7-4DAF-4BC4-A4CC-81A10E608EA1";
name = "Bold Italic";
paths = (
{
closed = 1;
nodes = (
"411 0 LINE",
"460 235 LINE",
"780 644 LINE",
"550 644 LINE",
"387 420 LINE",
"318 644 LINE",
"100 644 LINE",
"245 235 LINE",
"196 0 LINE"
);
}
);
width = 720;
}
);
leftKerningGroup = Y;
note = Y;
rightKerningGroup = Y;
unicode = 0059;
},
{
glyphname = Yacute;
lastChange = "2015-11-26 07:52:34 +0000";
layers = (
{
layerId = "DD5B64A7-4DAF-4BC4-A4CC-81A10E608EA1";
name = "Bold Italic";
paths = (
{
closed = 1;
nodes = (
"411 0 LINE",
"460 235 LINE",
"780 644 LINE",
"550 644 LINE",
"387 420 LINE",
"318 644 LINE",
"100 644 LINE",
"245 235 LINE",
"196 0 LINE"
);
},
{
closed = 1;
nodes = (
"526 688 LINE",
"673 904 LINE",
"507 904 LINE",
"369 688 LINE"
);
}
);
width = 720;
}
);
leftKerningGroup = Y;
note = Yacute;
rightKerningGroup = Y;
unicode = 00DD;
},
{
glyphname = Ycircumflex;
lastChange = "2015-11-26 07:52:35 +0000";
layers = (
{
layerId = "DD5B64A7-4DAF-4BC4-A4CC-81A10E608EA1";
name = "Bold Italic";
paths = (
{
closed = 1;
nodes = (
"411 0 LINE",
"460 235 LINE",
"780 644 LINE",
"550 644 LINE",
"387 420 LINE",
"318 644 LINE",
"100 644 LINE",
"245 235 LINE",
"196 0 LINE"
);
},
{
closed = 1;
nodes = (
"384 688 LINE",
"479 796 LINE",
"532 688 LINE",
"678 688 LINE",
"557 896 LINE",
"430 896 LINE",
"222 688 LINE"
);
}
);
width = 720;
}
);
leftKerningGroup = Y;
note = Ycircumflex;
rightKerningGroup = Y;
unicode = 0176;
},
{
glyphname = Ydieresis;
lastChange = "2015-11-26 07:52:35 +0000";
layers = (
{
layerId = "DD5B64A7-4DAF-4BC4-A4CC-81A10E608EA1";
name = "Bold Italic";
paths = (
{
closed = 1;
nodes = (
"411 0 LINE",
"460 235 LINE",
"780 644 LINE",
"550 644 LINE",
"387 420 LINE",
"318 644 LINE",
"100 644 LINE",
"245 235 LINE",
"196 0 LINE"
);
},
{
closed = 1;
nodes = (
"416 716 LINE",
"443 847 LINE",
"300 847 LINE",
"273 716 LINE"
);
},
{
closed = 1;
nodes = (
"641 716 LINE",
"668 847 LINE",
"525 847 LINE",
"498 716 LINE"
);
}
);
width = 720;
}
);
leftKerningGroup = Y;
note = Ydieresis;
rightKerningGroup = Y;
unicode = 0178;
},
{
glyphname = Ydotaccent;
lastChange = "2015-11-26 07:52:34 +0000";
layers = (
{
layerId = "DD5B64A7-4DAF-4BC4-A4CC-81A10E608EA1";
name = "Bold Italic";
paths = (
{
closed = 1;
nodes = (
"411 0 LINE",
"460 235 LINE",
"780 644 LINE",
"550 644 LINE",
"387 420 LINE",
"318 644 LINE",
"100 644 LINE",
"245 235 LINE",
"196 0 LINE"
);
},
{
closed = 1;
nodes = (
"527 716 LINE",
"554 847 LINE",
"411 847 LINE",
"384 716 LINE"
);
}
);
width = 720;
}
);
leftKerningGroup = Y;
note = Ydotaccent;
rightKerningGroup = Y;
unicode = 1E8E;
},
{
glyphname = Ydotbelow;
lastChange = "2015-11-26 07:52:35 +0000";
layers = (
{
layerId = "DD5B64A7-4DAF-4BC4-A4CC-81A10E608EA1";
name = "Bold Italic";
paths = (
{
closed = 1;
nodes = (
"411 0 LINE",
"460 235 LINE",
"780 644 LINE",
"550 644 LINE",
"387 420 LINE",
"318 644 LINE",
"100 644 LINE",
"245 235 LINE",
"196 0 LINE"
);
},
{
closed = 1;
nodes = (
"339 -175 LINE",
"367 -45 LINE",
"224 -45 LINE",
"196 -175 LINE"
);
}
);
width = 720;
}
);
leftKerningGroup = Y;
note = Ydotbelow;
rightKerningGroup = Y;
unicode = 1EF4;
},
{
glyphname = Ygrave;
lastChange = "2015-11-26 07:52:34 +0000";
layers = (
{
layerId = "DD5B64A7-4DAF-4BC4-A4CC-81A10E608EA1";
name = "Bold Italic";
paths = (
{
closed = 1;
nodes = (
"411 0 LINE",
"460 235 LINE",
"780 644 LINE",
"550 644 LINE",
"387 420 LINE",
"318 644 LINE",
"100 644 LINE",
"245 235 LINE",
"196 0 LINE"
);
},
{
closed = 1;
nodes = (
"527 688 LINE",
"481 904 LINE",
"314 904 LINE",
"369 688 LINE"
);
}
);
width = 720;
}
);
leftKerningGroup = Y;
note = Ygrave;
rightKerningGroup = Y;
unicode = 1EF2;
},
{
glyphname = Yhookabove;
lastChange = "2015-11-26 07:52:34 +0000";
layers = (
{
layerId = "DD5B64A7-4DAF-4BC4-A4CC-81A10E608EA1";
name = "Bold Italic";
paths = (
{
closed = 1;
nodes = (
"411 0 LINE",
"460 235 LINE",
"780 644 LINE",
"550 644 LINE",
"387 420 LINE",
"318 644 LINE",
"100 644 LINE",
"245 235 LINE",
"196 0 LINE"
);
},
{
closed = 1;
nodes = (
"528 688 LINE",
"536 726 LINE",
"596 743 OFFCURVE",
"628 769 OFFCURVE",
"641 828 CURVE SMOOTH",
"643 835 OFFCURVE",
"643 842 OFFCURVE",
"643 848 CURVE SMOOTH",
"643 898 OFFCURVE",
"600 932 OFFCURVE",
"517 932 CURVE SMOOTH",
"464 932 OFFCURVE",
"423 927 OFFCURVE",
"391 918 CURVE",
"373 832 LINE",
"390 837 OFFCURVE",
"413 841 OFFCURVE",
"433 841 CURVE SMOOTH",
"465 841 OFFCURVE",
"482 834 OFFCURVE",
"482 817 CURVE SMOOTH",
"482 791 OFFCURVE",
"460 773 OFFCURVE",
"385 769 CURVE",
"368 688 LINE"
);
}
);
width = 720;
}
);
leftKerningGroup = Y;
note = Yhookabove;
rightKerningGroup = Y;
unicode = 1EF6;
},
{
glyphname = Ytilde;
lastChange = "2015-11-26 07:52:34 +0000";
layers = (
{
layerId = "DD5B64A7-4DAF-4BC4-A4CC-81A10E608EA1";
name = "Bold Italic";
paths = (
{
closed = 1;
nodes = (
"411 0 LINE",
"460 235 LINE",
"780 644 LINE",
"550 644 LINE",
"387 420 LINE",
"318 644 LINE",
"100 644 LINE",
"245 235 LINE",
"196 0 LINE"
);
},
{
closed = 1;
nodes = (
"593 694 OFFCURVE",
"633 710 OFFCURVE",
"650 728 CURVE",
"678 858 LINE",
"657 835 OFFCURVE",
"619 817 OFFCURVE",
"575 817 CURVE SMOOTH",
"509 817 OFFCURVE",
"463 860 OFFCURVE",
"393 860 CURVE SMOOTH",
"353 860 OFFCURVE",
"311 844 OFFCURVE",
"288 826 CURVE",
"260 697 LINE",
"290 721 OFFCURVE",
"326 737 OFFCURVE",
"370 737 CURVE SMOOTH",
"428 737 OFFCURVE",
"483 694 OFFCURVE",
"552 694 CURVE SMOOTH"
);
}
);
width = 720;
}
);
leftKerningGroup = Y;
note = Ytilde;
rightKerningGroup = Y;
unicode = 1EF8;
},
{
glyphname = Z;
lastChange = "2015-11-26 07:52:31 +0000";
layers = (
{
layerId = "DD5B64A7-4DAF-4BC4-A4CC-81A10E608EA1";
name = "Bold Italic";
paths = (
{
closed = 1;
nodes = (
"511 0 LINE",
"545 164 LINE",
"284 164 LINE",
"616 526 LINE",
"641 644 LINE",
"114 644 LINE",
"78 473 LINE",
"322 473 LINE",
"-14 106 LINE",
"-36 0 LINE"
);
}
);
width = 582;
}
);
note = Z;
unicode = 005A;
},
{
glyphname = Zacute;
lastChange = "2015-11-26 07:52:34 +0000";
layers = (
{
layerId = "DD5B64A7-4DAF-4BC4-A4CC-81A10E608EA1";
name = "Bold Italic";
paths = (
{
closed = 1;
nodes = (
"511 0 LINE",
"545 164 LINE",
"284 164 LINE",
"616 526 LINE",
"641 644 LINE",
"114 644 LINE",
"78 473 LINE",
"322 473 LINE",
"-14 106 LINE",
"-36 0 LINE"
);
},
{
closed = 1;
nodes = (
"447 688 LINE",
"594 904 LINE",
"428 904 LINE",
"290 688 LINE"
);
}
);
width = 582;
}
);
note = Zacute;
unicode = 0179;
},
{
glyphname = Zcaron;
lastChange = "2015-11-26 07:52:35 +0000";
layers = (
{
layerId = "DD5B64A7-4DAF-4BC4-A4CC-81A10E608EA1";
name = "Bold Italic";
paths = (
{
closed = 1;
nodes = (
"511 0 LINE",
"545 164 LINE",
"284 164 LINE",
"616 526 LINE",
"641 644 LINE",
"114 644 LINE",
"78 473 LINE",
"322 473 LINE",
"-14 106 LINE",
"-36 0 LINE"
);
},
{
closed = 1;
nodes = (
"460 688 LINE",
"669 896 LINE",
"511 896 LINE",
"412 788 LINE",
"362 896 LINE",
"213 896 LINE",
"334 688 LINE"
);
}
);
width = 584;
}
);
note = Zcaron;
unicode = 017D;
},
{
glyphname = Zdotaccent;
lastChange = "2015-11-26 07:52:36 +0000";
layers = (
{
layerId = "DD5B64A7-4DAF-4BC4-A4CC-81A10E608EA1";
name = "Bold Italic";
paths = (
{
closed = 1;
nodes = (
"511 0 LINE",
"545 164 LINE",
"284 164 LINE",
"616 526 LINE",
"641 644 LINE",
"114 644 LINE",
"78 473 LINE",
"322 473 LINE",
"-14 106 LINE",
"-36 0 LINE"
);
},
{
closed = 1;
nodes = (
"466 716 LINE",
"493 847 LINE",
"350 847 LINE",
"323 716 LINE"
);
}
);
width = 584;
}
);
note = Zdotaccent;
unicode = 017B;
},
{
glyphname = Zdotbelow;
lastChange = "2015-11-26 07:52:35 +0000";
layers = (
{
layerId = "DD5B64A7-4DAF-4BC4-A4CC-81A10E608EA1";
name = "Bold Italic";
paths = (
{
closed = 1;
nodes = (
"511 0 LINE",
"545 164 LINE",
"284 164 LINE",
"616 526 LINE",
"641 644 LINE",
"114 644 LINE",
"78 473 LINE",
"322 473 LINE",
"-14 106 LINE",
"-36 0 LINE"
);
},
{
closed = 1;
nodes = (
"278 -176 LINE",
"306 -46 LINE",
"163 -46 LINE",
"135 -176 LINE"
);
}
);
width = 582;
}
);
note = Zdotbelow;
unicode = 1E92;
},
{
glyphname = a;
lastChange = "2015-11-26 07:52:35 +0000";
layers = (
{
layerId = "DD5B64A7-4DAF-4BC4-A4CC-81A10E608EA1";
name = "Bold Italic";
paths = (
{
closed = 1;
nodes = (
"242 -10 OFFCURVE",
"289 6 OFFCURVE",
"332 34 CURVE",
"335 0 LINE",
"521 0 LINE",
"621 474 LINE",
"406 474 LINE",
"401 449 LINE",
"382 468 OFFCURVE",
"348 484 OFFCURVE",
"295 484 CURVE SMOOTH",
"157 484 OFFCURVE",
"46 394 OFFCURVE",
"10 218 CURVE SMOOTH",
"5 196 OFFCURVE",
"3 175 OFFCURVE",
"3 155 CURVE SMOOTH",
"3 49 OFFCURVE",
"70 -10 OFFCURVE",
"177 -10 CURVE SMOOTH"
);
},
{
closed = 1;
nodes = (
"244 144 OFFCURVE",
"225 154 OFFCURVE",
"225 188 CURVE SMOOTH",
"225 196 OFFCURVE",
"227 206 OFFCURVE",
"229 218 CURVE SMOOTH",
"244 290 OFFCURVE",
"273 329 OFFCURVE",
"323 329 CURVE SMOOTH",
"347 329 OFFCURVE",
"361 322 OFFCURVE",
"371 309 CURVE",
"341 166 LINE",
"328 153 OFFCURVE",
"306 144 OFFCURVE",
"278 144 CURVE SMOOTH"
);
}
);
width = 617;
}
);
leftKerningGroup = a;
note = a;
unicode = 0061;
},
{
glyphname = aacute;
lastChange = "2015-11-26 07:53:01 +0000";
layers = (
{
layerId = "DD5B64A7-4DAF-4BC4-A4CC-81A10E608EA1";
name = "Bold Italic";
paths = (
{
closed = 1;
nodes = (
"242 -10 OFFCURVE",
"289 6 OFFCURVE",
"332 34 CURVE",
"335 0 LINE",
"521 0 LINE",
"621 474 LINE",
"406 474 LINE",
"401 449 LINE",
"382 468 OFFCURVE",
"348 484 OFFCURVE",
"295 484 CURVE SMOOTH",
"157 484 OFFCURVE",
"46 394 OFFCURVE",
"10 218 CURVE SMOOTH",
"5 196 OFFCURVE",
"3 175 OFFCURVE",
"3 155 CURVE SMOOTH",
"3 49 OFFCURVE",
"70 -10 OFFCURVE",
"177 -10 CURVE SMOOTH"
);
},
{
closed = 1;
nodes = (
"244 144 OFFCURVE",
"225 154 OFFCURVE",
"225 188 CURVE SMOOTH",
"225 196 OFFCURVE",
"227 206 OFFCURVE",
"229 218 CURVE SMOOTH",
"244 290 OFFCURVE",
"273 329 OFFCURVE",
"323 329 CURVE SMOOTH",
"347 329 OFFCURVE",
"361 322 OFFCURVE",
"371 309 CURVE",
"341 166 LINE",
"328 153 OFFCURVE",
"306 144 OFFCURVE",
"278 144 CURVE SMOOTH"
);
},
{
closed = 1;
nodes = (
"423 522 LINE",
"570 738 LINE",
"404 738 LINE",
"266 522 LINE"
);
}
);
width = 617;
}
);
leftKerningGroup = a;
note = aacute;
unicode = 00E1;
},
{
glyphname = abreve;
lastChange = "2015-11-26 07:53:01 +0000";
layers = (
{
layerId = "DD5B64A7-4DAF-4BC4-A4CC-81A10E608EA1";
name = "Bold Italic";
paths = (
{
closed = 1;
nodes = (
"242 -10 OFFCURVE",
"289 6 OFFCURVE",
"332 34 CURVE",
"335 0 LINE",
"521 0 LINE",
"621 474 LINE",
"406 474 LINE",
"401 449 LINE",
"382 468 OFFCURVE",
"348 484 OFFCURVE",
"295 484 CURVE SMOOTH",
"157 484 OFFCURVE",
"46 394 OFFCURVE",
"10 218 CURVE SMOOTH",
"5 196 OFFCURVE",
"3 175 OFFCURVE",
"3 155 CURVE SMOOTH",
"3 49 OFFCURVE",
"70 -10 OFFCURVE",
"177 -10 CURVE SMOOTH"
);
},
{
closed = 1;
nodes = (
"244 144 OFFCURVE",
"225 154 OFFCURVE",
"225 188 CURVE SMOOTH",
"225 196 OFFCURVE",
"227 206 OFFCURVE",
"229 218 CURVE SMOOTH",
"244 290 OFFCURVE",
"273 329 OFFCURVE",
"323 329 CURVE SMOOTH",
"347 329 OFFCURVE",
"361 322 OFFCURVE",
"371 309 CURVE",
"341 166 LINE",
"328 153 OFFCURVE",
"306 144 OFFCURVE",
"278 144 CURVE SMOOTH"
);
},
{
closed = 1;
nodes = (
"485 522 OFFCURVE",
"573 594 OFFCURVE",
"601 726 CURVE",
"457 726 LINE",
"447 679 OFFCURVE",
"430 640 OFFCURVE",
"372 640 CURVE SMOOTH",
"332 640 OFFCURVE",
"320 661 OFFCURVE",
"320 691 CURVE SMOOTH",
"320 702 OFFCURVE",
"321 713 OFFCURVE",
"324 726 CURVE",
"192 726 LINE",
"188 706 OFFCURVE",
"186 687 OFFCURVE",
"186 669 CURVE SMOOTH",
"186 574 OFFCURVE",
"249 522 OFFCURVE",
"352 522 CURVE SMOOTH"
);
}
);
width = 617;
}
);
leftKerningGroup = a;
note = abreve;
unicode = 0103;
},
{
glyphname = abreveacute;
lastChange = "2015-11-26 07:53:01 +0000";
layers = (
{
layerId = "DD5B64A7-4DAF-4BC4-A4CC-81A10E608EA1";
name = "Bold Italic";
paths = (
{
closed = 1;
nodes = (
"242 -10 OFFCURVE",
"289 6 OFFCURVE",
"332 34 CURVE",
"335 0 LINE",
"521 0 LINE",
"621 474 LINE",
"406 474 LINE",
"401 449 LINE",
"382 468 OFFCURVE",
"348 484 OFFCURVE",
"295 484 CURVE SMOOTH",
"157 484 OFFCURVE",
"46 394 OFFCURVE",
"10 218 CURVE SMOOTH",
"5 196 OFFCURVE",
"3 175 OFFCURVE",
"3 155 CURVE SMOOTH",
"3 49 OFFCURVE",
"70 -10 OFFCURVE",
"177 -10 CURVE SMOOTH"
);
},
{
closed = 1;
nodes = (
"244 144 OFFCURVE",
"225 154 OFFCURVE",
"225 188 CURVE SMOOTH",
"225 196 OFFCURVE",
"227 206 OFFCURVE",
"229 218 CURVE SMOOTH",
"244 290 OFFCURVE",
"273 329 OFFCURVE",
"323 329 CURVE SMOOTH",
"347 329 OFFCURVE",
"361 322 OFFCURVE",
"371 309 CURVE",
"341 166 LINE",
"328 153 OFFCURVE",
"306 144 OFFCURVE",
"278 144 CURVE SMOOTH"
);
},
{
closed = 1;
nodes = (
"472 522 OFFCURVE",
"554 577 OFFCURVE",
"580 702 CURVE",
"458 702 LINE",
"450 656 OFFCURVE",
"425 626 OFFCURVE",
"371 626 CURVE SMOOTH",
"330 626 OFFCURVE",
"313 641 OFFCURVE",
"313 672 CURVE SMOOTH",
"313 681 OFFCURVE",
"315 691 OFFCURVE",
"317 702 CURVE",
"200 702 LINE",
"197 685 OFFCURVE",
"195 670 OFFCURVE",
"195 656 CURVE SMOOTH",
"195 565 OFFCURVE",
"260 522 OFFCURVE",
"352 522 CURVE SMOOTH"
);
},
{
closed = 1;
nodes = (
"458 726 LINE",
"570 874 LINE",
"429 874 LINE",
"330 726 LINE"
);
}
);
width = 617;
}
);
leftKerningGroup = a;
note = abreveacute;
unicode = 1EAF;
},
{
glyphname = abrevedotbelow;
lastChange = "2015-11-26 07:53:09 +0000";
layers = (
{
layerId = "DD5B64A7-4DAF-4BC4-A4CC-81A10E608EA1";
name = "Bold Italic";
paths = (
{
closed = 1;
nodes = (
"242 -10 OFFCURVE",
"289 6 OFFCURVE",
"332 34 CURVE",
"335 0 LINE",
"521 0 LINE",
"621 474 LINE",
"406 474 LINE",
"401 449 LINE",
"382 468 OFFCURVE",
"348 484 OFFCURVE",
"295 484 CURVE SMOOTH",
"157 484 OFFCURVE",
"46 394 OFFCURVE",
"10 218 CURVE SMOOTH",
"5 196 OFFCURVE",
"3 175 OFFCURVE",
"3 155 CURVE SMOOTH",
"3 49 OFFCURVE",
"70 -10 OFFCURVE",
"177 -10 CURVE SMOOTH"
);
},
{
closed = 1;
nodes = (
"244 144 OFFCURVE",
"225 154 OFFCURVE",
"225 188 CURVE SMOOTH",
"225 196 OFFCURVE",
"227 206 OFFCURVE",
"229 218 CURVE SMOOTH",
"244 290 OFFCURVE",
"273 329 OFFCURVE",
"323 329 CURVE SMOOTH",
"347 329 OFFCURVE",
"361 322 OFFCURVE",
"371 309 CURVE",
"341 166 LINE",
"328 153 OFFCURVE",
"306 144 OFFCURVE",
"278 144 CURVE SMOOTH"
);
},
{
closed = 1;
nodes = (
"497 522 OFFCURVE",
"585 594 OFFCURVE",
"613 726 CURVE",
"469 726 LINE",
"459 679 OFFCURVE",
"442 640 OFFCURVE",
"384 640 CURVE SMOOTH",
"344 640 OFFCURVE",
"332 661 OFFCURVE",
"332 691 CURVE SMOOTH",
"332 702 OFFCURVE",
"333 713 OFFCURVE",
"336 726 CURVE",
"204 726 LINE",
"200 706 OFFCURVE",
"198 687 OFFCURVE",
"198 669 CURVE SMOOTH",
"198 574 OFFCURVE",
"261 522 OFFCURVE",
"364 522 CURVE SMOOTH"
);
},
{
closed = 1;
nodes = (
"292 -176 LINE",
"320 -46 LINE",
"177 -46 LINE",
"149 -176 LINE"
);
}
);
width = 617;
}
);
leftKerningGroup = a;
note = abrevedotbelow;
unicode = 1EB7;
},
{
glyphname = abrevegrave;
lastChange = "2015-11-26 07:53:01 +0000";
layers = (
{
layerId = "DD5B64A7-4DAF-4BC4-A4CC-81A10E608EA1";
name = "Bold Italic";
paths = (
{
closed = 1;
nodes = (
"242 -10 OFFCURVE",
"289 6 OFFCURVE",
"332 34 CURVE",
"335 0 LINE",
"521 0 LINE",
"621 474 LINE",
"406 474 LINE",
"401 449 LINE",
"382 468 OFFCURVE",
"348 484 OFFCURVE",
"295 484 CURVE SMOOTH",
"157 484 OFFCURVE",
"46 394 OFFCURVE",
"10 218 CURVE SMOOTH",
"5 196 OFFCURVE",
"3 175 OFFCURVE",
"3 155 CURVE SMOOTH",
"3 49 OFFCURVE",
"70 -10 OFFCURVE",
"177 -10 CURVE SMOOTH"
);
},
{
closed = 1;
nodes = (
"244 144 OFFCURVE",
"225 154 OFFCURVE",
"225 188 CURVE SMOOTH",
"225 196 OFFCURVE",
"227 206 OFFCURVE",
"229 218 CURVE SMOOTH",
"244 290 OFFCURVE",
"273 329 OFFCURVE",
"323 329 CURVE SMOOTH",
"347 329 OFFCURVE",
"361 322 OFFCURVE",
"371 309 CURVE",
"341 166 LINE",
"328 153 OFFCURVE",
"306 144 OFFCURVE",
"278 144 CURVE SMOOTH"
);
},
{
closed = 1;
nodes = (
"475 522 OFFCURVE",
"557 577 OFFCURVE",
"583 702 CURVE",
"461 702 LINE",
"453 656 OFFCURVE",
"428 626 OFFCURVE",
"374 626 CURVE SMOOTH",
"333 626 OFFCURVE",
"316 641 OFFCURVE",
"316 672 CURVE SMOOTH",
"316 681 OFFCURVE",
"318 691 OFFCURVE",
"320 702 CURVE",
"203 702 LINE",
"200 685 OFFCURVE",
"198 670 OFFCURVE",
"198 656 CURVE SMOOTH",
"198 565 OFFCURVE",
"263 522 OFFCURVE",
"355 522 CURVE SMOOTH"
);
},
{
closed = 1;
nodes = (
"463 726 LINE",
"428 874 LINE",
"287 874 LINE",
"335 726 LINE"
);
}
);
width = 617;
}
);
leftKerningGroup = a;
note = abrevegrave;
unicode = 1EB1;
},
{
glyphname = abrevehookabove;
lastChange = "2015-11-26 07:53:01 +0000";
layers = (
{
layerId = "DD5B64A7-4DAF-4BC4-A4CC-81A10E608EA1";
name = "Bold Italic";
paths = (
{
closed = 1;
nodes = (
"242 -10 OFFCURVE",
"289 6 OFFCURVE",
"332 34 CURVE",
"335 0 LINE",
"521 0 LINE",
"621 474 LINE",
"406 474 LINE",
"401 449 LINE",
"382 468 OFFCURVE",
"348 484 OFFCURVE",
"295 484 CURVE SMOOTH",
"157 484 OFFCURVE",
"46 394 OFFCURVE",
"10 218 CURVE SMOOTH",
"5 196 OFFCURVE",
"3 175 OFFCURVE",
"3 155 CURVE SMOOTH",
"3 49 OFFCURVE",
"70 -10 OFFCURVE",
"177 -10 CURVE SMOOTH"
);
},
{
closed = 1;
nodes = (
"244 144 OFFCURVE",
"225 154 OFFCURVE",
"225 188 CURVE SMOOTH",
"225 196 OFFCURVE",
"227 206 OFFCURVE",
"229 218 CURVE SMOOTH",
"244 290 OFFCURVE",
"273 329 OFFCURVE",
"323 329 CURVE SMOOTH",
"347 329 OFFCURVE",
"361 322 OFFCURVE",
"371 309 CURVE",
"341 166 LINE",
"328 153 OFFCURVE",
"306 144 OFFCURVE",
"278 144 CURVE SMOOTH"
);
},
{
closed = 1;
nodes = (
"477 522 OFFCURVE",
"559 577 OFFCURVE",
"585 702 CURVE",
"463 702 LINE",
"455 656 OFFCURVE",
"430 626 OFFCURVE",
"376 626 CURVE SMOOTH",
"335 626 OFFCURVE",
"318 641 OFFCURVE",
"318 672 CURVE SMOOTH",
"318 681 OFFCURVE",
"320 691 OFFCURVE",
"322 702 CURVE",
"205 702 LINE",
"202 685 OFFCURVE",
"200 670 OFFCURVE",
"200 656 CURVE SMOOTH",
"200 565 OFFCURVE",
"265 522 OFFCURVE",
"357 522 CURVE SMOOTH"
);
},
{
closed = 1;
nodes = (
"464 716 LINE",
"470 744 LINE",
"523 757 OFFCURVE",
"548 780 OFFCURVE",
"557 824 CURVE SMOOTH",
"558 829 OFFCURVE",
"559 835 OFFCURVE",
"559 840 CURVE SMOOTH",
"559 880 OFFCURVE",
"524 910 OFFCURVE",
"457 910 CURVE SMOOTH",
"418 910 OFFCURVE",
"376 904 OFFCURVE",
"351 897 CURVE",
"335 825 LINE",
"348 830 OFFCURVE",
"367 835 OFFCURVE",
"384 835 CURVE SMOOTH",
"410 835 OFFCURVE",
"424 831 OFFCURVE",
"424 816 CURVE SMOOTH",
"424 794 OFFCURVE",
"402 779 OFFCURVE",
"344 777 CURVE",
"331 716 LINE"
);
}
);
width = 617;
}
);
leftKerningGroup = a;
note = abrevehookabove;
unicode = 1EB3;
},
{
glyphname = abrevetilde;
lastChange = "2015-11-26 07:53:01 +0000";
layers = (
{
layerId = "DD5B64A7-4DAF-4BC4-A4CC-81A10E608EA1";
name = "Bold Italic";
paths = (
{
closed = 1;
nodes = (
"242 -10 OFFCURVE",
"289 6 OFFCURVE",
"332 34 CURVE",
"335 0 LINE",
"521 0 LINE",
"621 474 LINE",
"406 474 LINE",
"401 449 LINE",
"382 468 OFFCURVE",
"348 484 OFFCURVE",
"295 484 CURVE SMOOTH",
"157 484 OFFCURVE",
"46 394 OFFCURVE",
"10 218 CURVE SMOOTH",
"5 196 OFFCURVE",
"3 175 OFFCURVE",
"3 155 CURVE SMOOTH",
"3 49 OFFCURVE",
"70 -10 OFFCURVE",
"177 -10 CURVE SMOOTH"
);
},
{
closed = 1;
nodes = (
"244 144 OFFCURVE",
"225 154 OFFCURVE",
"225 188 CURVE SMOOTH",
"225 196 OFFCURVE",
"227 206 OFFCURVE",
"229 218 CURVE SMOOTH",
"244 290 OFFCURVE",
"273 329 OFFCURVE",
"323 329 CURVE SMOOTH",
"347 329 OFFCURVE",
"361 322 OFFCURVE",
"371 309 CURVE",
"341 166 LINE",
"328 153 OFFCURVE",
"306 144 OFFCURVE",
"278 144 CURVE SMOOTH"
);
},
{
closed = 1;
nodes = (
"483 522 OFFCURVE",
"565 577 OFFCURVE",
"591 702 CURVE",
"469 702 LINE",
"461 656 OFFCURVE",
"436 626 OFFCURVE",
"382 626 CURVE SMOOTH",
"341 626 OFFCURVE",
"324 641 OFFCURVE",
"324 672 CURVE SMOOTH",
"324 681 OFFCURVE",
"326 691 OFFCURVE",
"328 702 CURVE",
"211 702 LINE",
"208 685 OFFCURVE",
"206 670 OFFCURVE",
"206 656 CURVE SMOOTH",
"206 565 OFFCURVE",
"271 522 OFFCURVE",
"363 522 CURVE SMOOTH"
);
},
{
closed = 1;
nodes = (
"539 723 OFFCURVE",
"576 738 OFFCURVE",
"592 755 CURVE",
"614 861 LINE",
"594 838 OFFCURVE",
"559 822 OFFCURVE",
"518 822 CURVE SMOOTH",
"458 822 OFFCURVE",
"415 863 OFFCURVE",
"350 863 CURVE SMOOTH",
"312 863 OFFCURVE",
"273 849 OFFCURVE",
"252 831 CURVE",
"229 726 LINE",
"257 750 OFFCURVE",
"291 764 OFFCURVE",
"332 764 CURVE SMOOTH",
"386 764 OFFCURVE",
"437 723 OFFCURVE",
"500 723 CURVE SMOOTH"
);
}
);
width = 617;
}
);
leftKerningGroup = a;
note = abrevetilde;
unicode = 1EB5;
},
{
glyphname = acaron;
lastChange = "2015-11-26 07:53:01 +0000";
layers = (
{
layerId = "DD5B64A7-4DAF-4BC4-A4CC-81A10E608EA1";
name = "Bold Italic";
paths = (
{
closed = 1;
nodes = (
"242 -10 OFFCURVE",
"289 6 OFFCURVE",
"332 34 CURVE",
"335 0 LINE",
"521 0 LINE",
"621 474 LINE",
"406 474 LINE",
"401 449 LINE",
"382 468 OFFCURVE",
"348 484 OFFCURVE",
"295 484 CURVE SMOOTH",
"157 484 OFFCURVE",
"46 394 OFFCURVE",
"10 218 CURVE SMOOTH",
"5 196 OFFCURVE",
"3 175 OFFCURVE",
"3 155 CURVE SMOOTH",
"3 49 OFFCURVE",
"70 -10 OFFCURVE",
"177 -10 CURVE SMOOTH"
);
},
{
closed = 1;
nodes = (
"244 144 OFFCURVE",
"225 154 OFFCURVE",
"225 188 CURVE SMOOTH",
"225 196 OFFCURVE",
"227 206 OFFCURVE",
"229 218 CURVE SMOOTH",
"244 290 OFFCURVE",
"273 329 OFFCURVE",
"323 329 CURVE SMOOTH",
"347 329 OFFCURVE",
"361 322 OFFCURVE",
"371 309 CURVE",
"341 166 LINE",
"328 153 OFFCURVE",
"306 144 OFFCURVE",
"278 144 CURVE SMOOTH"
);
},
{
closed = 1;
nodes = (
"412 521 LINE",
"621 729 LINE",
"463 729 LINE",
"364 621 LINE",
"314 729 LINE",
"165 729 LINE",
"286 521 LINE"
);
}
);
width = 617;
}
);
leftKerningGroup = a;
note = acaron;
unicode = 01CE;
},
{
glyphname = acircumflex;
lastChange = "2015-11-26 07:53:24 +0000";
layers = (
{
layerId = "DD5B64A7-4DAF-4BC4-A4CC-81A10E608EA1";
name = "Bold Italic";
paths = (
{
closed = 1;
nodes = (
"242 -10 OFFCURVE",
"289 6 OFFCURVE",
"332 34 CURVE",
"335 0 LINE",
"521 0 LINE",
"621 474 LINE",
"406 474 LINE",
"401 449 LINE",
"382 468 OFFCURVE",
"348 484 OFFCURVE",
"295 484 CURVE SMOOTH",
"157 484 OFFCURVE",
"46 394 OFFCURVE",
"10 218 CURVE SMOOTH",
"5 196 OFFCURVE",
"3 175 OFFCURVE",
"3 155 CURVE SMOOTH",
"3 49 OFFCURVE",
"70 -10 OFFCURVE",
"177 -10 CURVE SMOOTH"
);
},
{
closed = 1;
nodes = (
"244 144 OFFCURVE",
"225 154 OFFCURVE",
"225 188 CURVE SMOOTH",
"225 196 OFFCURVE",
"227 206 OFFCURVE",
"229 218 CURVE SMOOTH",
"244 290 OFFCURVE",
"273 329 OFFCURVE",
"323 329 CURVE SMOOTH",
"347 329 OFFCURVE",
"361 322 OFFCURVE",
"371 309 CURVE",
"341 166 LINE",
"328 153 OFFCURVE",
"306 144 OFFCURVE",
"278 144 CURVE SMOOTH"
);
},
{
closed = 1;
nodes = (
"286 522 LINE",
"381 630 LINE",
"434 522 LINE",
"580 522 LINE",
"459 730 LINE",
"332 730 LINE",
"124 522 LINE"
);
}
);
width = 617;
}
);
leftKerningGroup = a;
note = acircumflex;
unicode = 00E2;
},
{
glyphname = acircumflexacute;
lastChange = "2015-11-26 07:53:01 +0000";
layers = (
{
layerId = "DD5B64A7-4DAF-4BC4-A4CC-81A10E608EA1";
name = "Bold Italic";
paths = (
{
closed = 1;
nodes = (
"242 -10 OFFCURVE",
"289 6 OFFCURVE",
"332 34 CURVE",
"335 0 LINE",
"521 0 LINE",
"621 474 LINE",
"406 474 LINE",
"401 449 LINE",
"382 468 OFFCURVE",
"348 484 OFFCURVE",
"295 484 CURVE SMOOTH",
"157 484 OFFCURVE",
"46 394 OFFCURVE",
"10 218 CURVE SMOOTH",
"5 196 OFFCURVE",
"3 175 OFFCURVE",
"3 155 CURVE SMOOTH",
"3 49 OFFCURVE",
"70 -10 OFFCURVE",
"177 -10 CURVE SMOOTH"
);
},
{
closed = 1;
nodes = (
"244 144 OFFCURVE",
"225 154 OFFCURVE",
"225 188 CURVE SMOOTH",
"225 196 OFFCURVE",
"227 206 OFFCURVE",
"229 218 CURVE SMOOTH",
"244 290 OFFCURVE",
"273 329 OFFCURVE",
"323 329 CURVE SMOOTH",
"347 329 OFFCURVE",
"361 322 OFFCURVE",
"371 309 CURVE",
"341 166 LINE",
"328 153 OFFCURVE",
"306 144 OFFCURVE",
"278 144 CURVE SMOOTH"
);
},
{
closed = 1;
nodes = (
"301 522 LINE",
"374 599 LINE",
"417 522 LINE",
"580 522 LINE",
"465 682 LINE",
"309 682 LINE",
"125 522 LINE"
);
},
{
closed = 1;
nodes = (
"662 650 LINE",
"777 814 LINE",
"620 814 LINE",
"513 650 LINE"
);
}
);
width = 617;
}
);
leftKerningGroup = a;
note = acircumflexacute;
unicode = 1EA5;
},
{
glyphname = acircumflexdotbelow;
lastChange = "2015-11-26 07:53:31 +0000";
layers = (
{
layerId = "DD5B64A7-4DAF-4BC4-A4CC-81A10E608EA1";
name = "Bold Italic";
paths = (
{
closed = 1;
nodes = (
"242 -10 OFFCURVE",
"289 6 OFFCURVE",
"332 34 CURVE",
"335 0 LINE",
"521 0 LINE",
"621 474 LINE",
"406 474 LINE",
"401 449 LINE",
"382 468 OFFCURVE",
"348 484 OFFCURVE",
"295 484 CURVE SMOOTH",
"157 484 OFFCURVE",
"46 394 OFFCURVE",
"10 218 CURVE SMOOTH",
"5 196 OFFCURVE",
"3 175 OFFCURVE",
"3 155 CURVE SMOOTH",
"3 49 OFFCURVE",
"70 -10 OFFCURVE",
"177 -10 CURVE SMOOTH"
);
},
{
closed = 1;
nodes = (
"244 144 OFFCURVE",
"225 154 OFFCURVE",
"225 188 CURVE SMOOTH",
"225 196 OFFCURVE",
"227 206 OFFCURVE",
"229 218 CURVE SMOOTH",
"244 290 OFFCURVE",
"273 329 OFFCURVE",
"323 329 CURVE SMOOTH",
"347 329 OFFCURVE",
"361 322 OFFCURVE",
"371 309 CURVE",
"341 166 LINE",
"328 153 OFFCURVE",
"306 144 OFFCURVE",
"278 144 CURVE SMOOTH"
);
},
{
closed = 1;
nodes = (
"289 522 LINE",
"384 630 LINE",
"437 522 LINE",
"583 522 LINE",
"462 730 LINE",
"335 730 LINE",
"127 522 LINE"
);
},
{
closed = 1;
nodes = (
"280 -176 LINE",
"308 -46 LINE",
"165 -46 LINE",
"137 -176 LINE"
);
}
);
width = 617;
}
);
leftKerningGroup = a;
note = acircumflexdotbelow;
unicode = 1EAD;
},
{
glyphname = acircumflexgrave;
lastChange = "2015-11-26 07:53:01 +0000";
layers = (
{
layerId = "DD5B64A7-4DAF-4BC4-A4CC-81A10E608EA1";
name = "Bold Italic";
paths = (
{
closed = 1;
nodes = (
"242 -10 OFFCURVE",
"289 6 OFFCURVE",
"332 34 CURVE",
"335 0 LINE",
"521 0 LINE",
"621 474 LINE",
"406 474 LINE",
"401 449 LINE",
"382 468 OFFCURVE",
"348 484 OFFCURVE",
"295 484 CURVE SMOOTH",
"157 484 OFFCURVE",
"46 394 OFFCURVE",
"10 218 CURVE SMOOTH",
"5 196 OFFCURVE",
"3 175 OFFCURVE",
"3 155 CURVE SMOOTH",
"3 49 OFFCURVE",
"70 -10 OFFCURVE",
"177 -10 CURVE SMOOTH"
);
},
{
closed = 1;
nodes = (
"244 144 OFFCURVE",
"225 154 OFFCURVE",
"225 188 CURVE SMOOTH",
"225 196 OFFCURVE",
"227 206 OFFCURVE",
"229 218 CURVE SMOOTH",
"244 290 OFFCURVE",
"273 329 OFFCURVE",
"323 329 CURVE SMOOTH",
"347 329 OFFCURVE",
"361 322 OFFCURVE",
"371 309 CURVE",
"341 166 LINE",
"328 153 OFFCURVE",
"306 144 OFFCURVE",
"278 144 CURVE SMOOTH"
);
},
{
closed = 1;
nodes = (
"252 650 LINE",
"214 814 LINE",
"56 814 LINE",
"102 650 LINE"
);
},
{
closed = 1;
nodes = (
"302 522 LINE",
"377 599 LINE",
"419 522 LINE",
"585 522 LINE",
"470 682 LINE",
"313 682 LINE",
"129 522 LINE"
);
}
);
width = 617;
}
);
leftKerningGroup = a;
note = acircumflexgrave;
unicode = 1EA7;
},
